MonaSans.glyphspackage
{
color = 6;
glyphname = exclam;
kernLeft = exclam;
layers = (
{
layerId = "E787E54A-EE3E-475A-BF02-8501A6DA5144";
shapes = (
{
closed = 1;
nodes = (
(158,232,l),
(206,507,l),
(206,729,l),
(30,729,l),
(30,507,l),
(79,232,l)
);
},
{
closed = 1;
nodes = (
(173,-10,o),
(214,22,o),
(214,77,cs),
(214,132,o),
(173,164,o),
(118,164,cs),
(63,164,o),
(22,132,o),
(22,77,cs),
(22,22,o),
(63,-10,o),
(118,-10,cs)
);
}
);
width = 236;
},
{
layerId = "5713303B-ED49-44A7-8230-B5CAE56DEB7E";
shapes = (
{
closed = 1;
nodes = (
(135,146,l),
(140,523,l),
(140,729,l),
(108,729,l),
(108,523,l),
(113,146,l)
);
},
{
closed = 1;
nodes = (
(138,-6,o),
(149,4,o),
(149,18,cs),
(149,32,o),
(138,42,o),
(124,42,cs),
(110,42,o),
(99,32,o),
(99,18,cs),
(99,4,o),
(110,-6,o),
(124,-6,cs)
);
}
);
width = 248;
},
{
layerId = master01;
shapes = (
{
closed = 1;
nodes = (
(130,186,l),
(140,493,l),
(140,729,l),
(101,729,l),
(101,493,l),
(110,186,l)
);
},
{
closed = 1;
nodes = (
(137,-7,o),
(150,5,o),
(150,22,cs),
(150,39,o),
(137,51,o),
(120,51,cs),
(103,51,o),
(90,39,o),
(90,22,cs),
(90,5,o),
(103,-7,o),
(120,-7,cs)
);
}
);
width = 240;
},
{
layerId = "1EDCBF6C-9964-4A28-BC87-E86B534B8BE7";
shapes = (
{
closed = 1;
nodes = (
(202,231,l),
(249,487,l),
(249,729,l),
(55,729,l),
(55,487,l),
(103,231,l)
);
},
{
closed = 1;
nodes = (
(208,-8,o),
(246,27,o),
(246,80,cs),
(246,133,o),
(208,168,o),
(152,168,cs),
(96,168,o),
(58,133,o),
(58,80,cs),
(58,27,o),
(96,-8,o),
(152,-8,cs)
);
}
);
width = 304;
},
{
layerId = "28A8A76A-23B4-40F5-83B9-DC51E48BF161";
shapes = (
{
closed = 1;
nodes = (
(89,186,l),
(98,493,l),
(98,729,l),
(60,729,l),
(60,493,l),
(69,186,l)
);
},
{
closed = 1;
nodes = (
(96,-7,o),
(109,5,o),
(109,22,cs),
(109,39,o),
(96,51,o),
(79,51,cs),
(62,51,o),
(49,39,o),
(49,22,cs),
(49,5,o),
(62,-7,o),
(79,-7,cs)
);
}
);
width = 157;
},
{
layerId = "D2144554-01B8-4B9B-B16A-E0E5B5794DFC";
shapes = (
{
closed = 1;
nodes = (
(203,232,l),
(252,484,l),
(252,729,l),
(49,729,l),
(49,484,l),
(100,232,l)
);
},
{
closed = 1;
nodes = (
(234,-10,o),
(268,29,o),
(268,83,cs),
(268,136,o),
(234,175,o),
(150,175,cs),
(66,175,o),
(32,136,o),
(32,83,cs),
(32,29,o),
(66,-10,o),
(150,-10,cs)
);
}
);
width = 300;
},
{
layerId = "23BA42C1-D468-4A44-9BE5-E18AE60B7926";
shapes = (
{
closed = 1;
nodes = (
(112,146,l),
(197,523,l),
(239,729,l),
(208,729,l),
(165,523,l),
(90,146,l)
);
},
{
closed = 1;
nodes = (
(87,-6,o),
(98,4,o),
(98,19,cs),
(98,33,o),
(88,42,o),
(75,42,cs),
(61,42,o),
(50,32,o),
(50,17,cs),
(50,3,o),
(60,-6,o),
(73,-6,cs)
);
}
);
width = 247;
},
{
layerId = "2D4E69BA-A319-45D0-84B7-5297BCF4B7A0";
shapes = (
{
closed = 1;
nodes = (
(152,232,l),
(256,507,l),
(303,729,l),
(128,729,l),
(82,507,l),
(73,232,l)
);
},
{
closed = 1;
nodes = (
(136,-10,o),
(178,27,o),
(178,82,cs),
(178,131,o),
(145,164,o),
(88,164,cs),
(25,164,o),
(-17,127,o),
(-17,72,cs),
(-17,23,o),
(16,-10,o),
(73,-10,cs)
);
}
);
width = 241;
},
{
layerId = "095FE76F-1953-440B-9108-AA0678D151F9";
shapes = (
{
closed = 1;
nodes = (
(116,186,l),
(190,493,l),
(239,729,l),
(200,729,l),
(151,493,l),
(96,186,l)
);
},
{
closed = 1;
nodes = (
(89,-7,o),
(102,4,o),
(102,23,cs),
(102,40,o),
(90,51,o),
(73,51,cs),
(55,51,o),
(42,40,o),
(42,21,cs),
(42,4,o),
(54,-7,o),
(71,-7,cs)
);
}
);
width = 242;
},
{
layerId = "63AAE8D6-1DFF-4DD4-BD9A-49272FE52904";
shapes = (
{
closed = 1;
nodes = (
(196,231,l),
(297,487,l),
(347,729,l),
(155,729,l),
(105,487,l),
(98,231,l)
);
},
{
closed = 1;
nodes = (
(170,-8,o),
(214,29,o),
(214,87,cs),
(214,135,o),
(178,167,o),
(124,167,cs),
(60,167,o),
(16,130,o),
(16,72,cs),
(16,24,o),
(52,-8,o),
(106,-8,cs)
);
}
);
width = 310;
},
{
layerId = "C17B1F32-8075-45B4-AA59-7DAFF0D7E404";
shapes = (
{
closed = 1;
nodes = (
(76,186,l),
(149,493,l),
(198,729,l),
(160,729,l),
(111,493,l),
(56,186,l)
);
},
{
closed = 1;
nodes = (
(48,-7,o),
(61,4,o),
(61,23,cs),
(61,40,o),
(49,51,o),
(32,51,cs),
(14,51,o),
(1,40,o),
(1,21,cs),
(1,4,o),
(13,-7,o),
(30,-7,cs)
);
}
);
width = 159;
},
{
layerId = "377EF8AC-8B0D-46C2-96BB-3B5B69A8F571";
shapes = (
{
closed = 1;
nodes = (
(194,232,l),
(295,484,l),
(346,729,l),
(145,729,l),
(94,484,l),
(92,232,l)
);
},
{
closed = 1;
nodes = (
(188,-10,o),
(234,26,o),
(234,90,cs),
(234,141,o),
(193,175,o),
(121,175,cs),
(40,175,o),
(-6,139,o),
(-6,75,cs),
(-6,24,o),
(35,-10,o),
(107,-10,cs)
);
}
);
width = 306;
}
);
unicode = 33;
userData = {
KernOnName = exclam;
KernOnSpecialSpacing = {
L = "spaced-off";
};
};
}
{
glyphname = numbersign;
layers = (
{
layerId = "E787E54A-EE3E-475A-BF02-8501A6DA5144";
shapes = (
{
closed = 1;
nodes = (
(241,0,l),
(241,192,l),
(322,192,l),
(322,0,l),
(459,0,l),
(459,192,l),
(549,192,l),
(549,315,l),
(459,315,l),
(459,417,l),
(549,417,l),
(549,540,l),
(459,540,l),
(459,729,l),
(322,729,l),
(322,540,l),
(241,540,l),
(241,729,l),
(103,729,l),
(103,540,l),
(13,540,l),
(13,417,l),
(103,417,l),
(103,315,l),
(13,315,l),
(13,192,l),
(103,192,l),
(103,0,l)
);
},
{
closed = 1;
nodes = (
(241,417,l),
(322,417,l),
(322,315,l),
(241,315,l)
);
}
);
width = 562;
},
{
layerId = "5713303B-ED49-44A7-8230-B5CAE56DEB7E";
shapes = (
{
closed = 1;
nodes = (
(152,0,l),
(152,265,l),
(273,265,l),
(273,0,l),
(301,0,l),
(301,265,l),
(413,265,l),
(413,291,l),
(301,291,l),
(301,462,l),
(413,462,l),
(413,488,l),
(301,488,l),
(301,729,l),
(273,729,l),
(273,488,l),
(152,488,l),
(152,729,l),
(124,729,l),
(124,488,l),
(6,488,l),
(6,462,l),
(124,462,l),
(124,291,l),
(6,291,l),
(6,265,l),
(124,265,l),
(124,0,l)
);
},
{
closed = 1;
nodes = (
(152,462,l),
(273,462,l),
(273,291,l),
(152,291,l)
);
}
);
width = 419;
},
{
layerId = master01;
shapes = (
{
closed = 1;
nodes = (
(227,0,l),
(227,245,l),
(412,245,l),
(412,0,l),
(444,0,l),
(444,245,l),
(601,245,l),
(601,273,l),
(444,273,l),
(444,480,l),
(601,480,l),
(601,507,l),
(444,507,l),
(444,729,l),
(412,729,l),
(412,507,l),
(227,507,l),
(227,729,l),
(195,729,l),
(195,507,l),
(32,507,l),
(32,480,l),
(195,480,l),
(195,273,l),
(32,273,l),
(32,245,l),
(195,245,l),
(195,0,l)
);
},
{
closed = 1;
nodes = (
(227,480,l),
(412,480,l),
(412,273,l),
(227,273,l)
);
}
);
userData = {
com.schriftgestaltung.hints = (
{
horizontal = 1;
options = 0;
origin = (
0,
27
);
stem = -2;
target = (
u,
p
);
type = BottomGhost;
},
{
horizontal = 1;
options = 0;
origin = (
0,
24
);
stem = -2;
target = (
0,
25
);
type = Stem;
},
{
horizontal = 1;
options = 0;
origin = (
0,
20
);
stem = -2;
target = (
0,
21
);
type = Stem;
},
{
horizontal = 1;
options = 0;
origin = (
0,
18
);
stem = -2;
target = (
d,
o,
w,
n
);
type = TopGhost;
},
{
horizontal = 0;
options = 0;
origin = (
0,
27
);
stem = -2;
target = (
0,
0
);
type = Stem;
},
{
horizontal = 0;
options = 0;
origin = (
0,
3
);
stem = -2;
target = (
0,
4
);
type = Stem;
}
);
};
width = 633;
},
{
layerId = "1EDCBF6C-9964-4A28-BC87-E86B534B8BE7";
shapes = (
{
closed = 1;
nodes = (
(292,0,l),
(292,182,l),
(406,182,l),
(406,0,l),
(546,0,l),
(546,182,l),
(669,182,l),
(669,309,l),
(546,309,l),
(546,423,l),
(669,423,l),
(669,551,l),
(546,551,l),
(546,729,l),
(406,729,l),
(406,551,l),
(292,551,l),
(292,729,l),
(150,729,l),
(150,551,l),
(26,551,l),
(26,423,l),
(150,423,l),
(150,309,l),
(26,309,l),
(26,182,l),
(150,182,l),
(150,0,l)
);
},
{
closed = 1;
nodes = (
(292,423,l),
(406,423,l),
(406,309,l),
(292,309,l)
);
}
);
width = 695;
},
{
layerId = "28A8A76A-23B4-40F5-83B9-DC51E48BF161";
shapes = (
{
closed = 1;
nodes = (
(230,0,l),
(230,245,l),
(440,245,l),
(440,0,l),
(472,0,l),
(472,245,l),
(645,245,l),
(645,273,l),
(472,273,l),
(472,480,l),
(645,480,l),
(645,507,l),
(472,507,l),
(472,729,l),
(440,729,l),
(440,507,l),
(230,507,l),
(230,729,l),
(198,729,l),
(198,507,l),
(19,507,l),
(19,480,l),
(198,480,l),
(198,273,l),
(19,273,l),
(19,245,l),
(198,245,l),
(198,0,l)
);
},
{
closed = 1;
nodes = (
(230,480,l),
(440,480,l),
(440,273,l),
(230,273,l)
);
}
);
width = 663;
},
{
layerId = "D2144554-01B8-4B9B-B16A-E0E5B5794DFC";
shapes = (
{
closed = 1;
nodes = (
(307,0,l),
(307,166,l),
(433,166,l),
(433,0,l),
(595,0,l),
(595,166,l),
(726,166,l),
(726,302,l),
(595,302,l),
(595,430,l),
(726,430,l),
(726,566,l),
(595,566,l),
(595,729,l),
(433,729,l),
(433,566,l),
(307,566,l),
(307,729,l),
(145,729,l),
(145,566,l),
(14,566,l),
(14,430,l),
(145,430,l),
(145,302,l),
(14,302,l),
(14,166,l),
(145,166,l),
(145,0,l)
);
},
{
closed = 1;
nodes = (
(307,430,l),
(433,430,l),
(433,302,l),
(307,302,l)
);
}
);
width = 740;
},
{
layerId = "23BA42C1-D468-4A44-9BE5-E18AE60B7926";
shapes = (
{
closed = 1;
nodes = (
(99,0,l),
(153,265,l),
(274,265,l),
(220,0,l),
(248,0,l),
(302,265,l),
(414,265,l),
(420,291,l),
(308,291,l),
(343,462,l),
(455,462,l),
(461,488,l),
(349,488,l),
(398,729,l),
(370,729,l),
(321,488,l),
(200,488,l),
(249,729,l),
(221,729,l),
(172,488,l),
(54,488,l),
(48,462,l),
(166,462,l),
(131,291,l),
(13,291,l),
(7,265,l),
(125,265,l),
(71,0,l)
);
},
{
closed = 1;
nodes = (
(194,462,l),
(315,462,l),
(280,291,l),
(159,291,l)
);
}
);
width = 419;
},
{
layerId = "2D4E69BA-A319-45D0-84B7-5297BCF4B7A0";
shapes = (
{
closed = 1;
nodes = (
(186,0,l),
(225,192,l),
(306,192,l),
(267,0,l),
(404,0,l),
(443,192,l),
(533,192,l),
(559,315,l),
(469,315,l),
(490,417,l),
(580,417,l),
(605,540,l),
(515,540,l),
(554,729,l),
(417,729,l),
(378,540,l),
(297,540,l),
(336,729,l),
(198,729,l),
(159,540,l),
(69,540,l),
(44,417,l),
(134,417,l),
(113,315,l),
(23,315,l),
(-3,192,l),
(87,192,l),
(48,0,l)
);
},
{
closed = 1;
nodes = (
(272,417,l),
(353,417,l),
(332,315,l),
(251,315,l)
);
}
);
width = 563;
},
{
layerId = "095FE76F-1953-440B-9108-AA0678D151F9";
shapes = (
{
closed = 1;
nodes = (
(174,0,l),
(224,245,l),
(409,245,l),
(359,0,l),
(391,0,l),
(441,245,l),
(598,245,l),
(604,273,l),
(447,273,l),
(490,480,l),
(647,480,l),
(653,507,l),
(496,507,l),
(541,729,l),
(509,729,l),
(464,507,l),
(279,507,l),
(324,729,l),
(292,729,l),
(247,507,l),
(84,507,l),
(78,480,l),
(241,480,l),
(198,273,l),
(35,273,l),
(29,245,l),
(192,245,l),
(142,0,l)
);
},
{
closed = 1;
nodes = (
(273,480,l),
(458,480,l),
(415,273,l),
(230,273,l)
);
}
);
width = 633;
},
{
layerId = "63AAE8D6-1DFF-4DD4-BD9A-49272FE52904";
shapes = (
{
closed = 1;
nodes = (
(236,0,l),
(273,182,l),
(387,182,l),
(350,0,l),
(490,0,l),
(527,182,l),
(650,182,l),
(677,309,l),
(554,309,l),
(577,423,l),
(700,423,l),
(727,551,l),
(604,551,l),
(640,729,l),
(500,729,l),
(464,551,l),
(350,551,l),
(386,729,l),
(244,729,l),
(208,551,l),
(84,551,l),
(57,423,l),
(181,423,l),
(158,309,l),
(34,309,l),
(7,182,l),
(131,182,l),
(94,0,l)
);
},
{
closed = 1;
nodes = (
(323,423,l),
(437,423,l),
(414,309,l),
(300,309,l)
);
}
);
width = 695;
},
{
layerId = "C17B1F32-8075-45B4-AA59-7DAFF0D7E404";
shapes = (
{
closed = 1;
nodes = (
(176,0,l),
(226,245,l),
(436,245,l),
(386,0,l),
(418,0,l),
(468,245,l),
(641,245,l),
(647,273,l),
(474,273,l),
(517,480,l),
(690,480,l),
(696,507,l),
(523,507,l),
(568,729,l),
(536,729,l),
(491,507,l),
(281,507,l),
(326,729,l),
(294,729,l),
(249,507,l),
(70,507,l),
(64,480,l),
(243,480,l),
(200,273,l),
(21,273,l),
(15,245,l),
(194,245,l),
(144,0,l)
);
},
{
closed = 1;
nodes = (
(275,480,l),
(485,480,l),
(442,273,l),
(232,273,l)
);
}
);
width = 663;
},
{
layerId = "377EF8AC-8B0D-46C2-96BB-3B5B69A8F571";
shapes = (
{
closed = 1;
nodes = (
(251,0,l),
(285,166,l),
(411,166,l),
(377,0,l),
(539,0,l),
(573,166,l),
(704,166,l),
(732,302,l),
(601,302,l),
(628,430,l),
(759,430,l),
(787,566,l),
(656,566,l),
(689,729,l),
(527,729,l),
(494,566,l),
(368,566,l),
(401,729,l),
(239,729,l),
(206,566,l),
(75,566,l),
(47,430,l),
(178,430,l),
(151,302,l),
(20,302,l),
(-8,166,l),
(123,166,l),
(89,0,l)
);
},
{
closed = 1;
nodes = (
(340,430,l),
(466,430,l),
(439,302,l),
(313,302,l)
);
}
);
width = 740;
},
{
layerId = "71D8B5AD-B400-4239-9672-E7BA455EF2D0";
shapes = (
{
closed = 1;
nodes = (
(144,0,l),
(144,265,l),
(265,265,l),
(265,0,l),
(293,0,l),
(293,265,l),
(405,265,l),
(405,291,l),
(293,291,l),
(293,462,l),
(405,462,l),
(405,488,l),
(293,488,l),
(293,729,l),
(265,729,l),
(265,488,l),
(144,488,l),
(144,729,l),
(116,729,l),
(116,488,l),
(-2,488,l),
(-2,462,l),
(116,462,l),
(116,291,l),
(-2,291,l),
(-2,265,l),
(116,265,l),
(116,0,l)
);
},
{
closed = 1;
nodes = (
(144,462,l),
(265,462,l),
(265,291,l),
(144,291,l)
);
}
);
width = 403;
},
{
layerId = "FFCA1F59-E305-4E0F-BBF9-E0C4511C19C1";
shapes = (
{
closed = 1;
nodes = (
(232,0,l),
(232,192,l),
(313,192,l),
(313,0,l),
(450,0,l),
(450,192,l),
(540,192,l),
(540,315,l),
(450,315,l),
(450,417,l),
(540,417,l),
(540,540,l),
(450,540,l),
(450,729,l),
(313,729,l),
(313,540,l),
(232,540,l),
(232,729,l),
(94,729,l),
(94,540,l),
(4,540,l),
(4,417,l),
(94,417,l),
(94,315,l),
(4,315,l),
(4,192,l),
(94,192,l),
(94,0,l)
);
},
{
closed = 1;
nodes = (
(232,417,l),
(313,417,l),
(313,315,l),
(232,315,l)
);
}
);
width = 544;
},
{
layerId = "5A048DDA-4734-4F8A-A53C-0BED34B57D1C";
shapes = (
{
closed = 1;
nodes = (
(202,0,l),
(202,245,l),
(387,245,l),
(387,0,l),
(419,0,l),
(419,245,l),
(576,245,l),
(576,273,l),
(419,273,l),
(419,480,l),
(576,480,l),
(576,507,l),
(419,507,l),
(419,729,l),
(387,729,l),
(387,507,l),
(202,507,l),
(202,729,l),
(170,729,l),
(170,507,l),
(7,507,l),
(7,480,l),
(170,480,l),
(170,273,l),
(7,273,l),
(7,245,l),
(170,245,l),
(170,0,l)
);
},
{
closed = 1;
nodes = (
(202,480,l),
(387,480,l),
(387,273,l),
(202,273,l)
);
}
);
userData = {
com.schriftgestaltung.hints = (
{
horizontal = 1;
options = 0;
origin = (
0,
27
);
stem = -2;
target = (
u,
p
);
type = BottomGhost;
},
{
horizontal = 1;
options = 0;
origin = (
0,
24
);
stem = -2;
target = (
0,
25
);
type = Stem;
},
{
horizontal = 1;
options = 0;
origin = (
0,
20
);
stem = -2;
target = (
0,
21
);
type = Stem;
},
{
horizontal = 1;
options = 0;
origin = (
0,
18
);
stem = -2;
target = (
d,
o,
w,
n
);
type = TopGhost;
},
{
horizontal = 0;
options = 0;
origin = (
0,
27
);
stem = -2;
target = (
0,
0
);
type = Stem;
},
{
horizontal = 0;
options = 0;
origin = (
0,
3
);
stem = -2;
target = (
0,
4
);
type = Stem;
}
);
};
width = 583;
},
{
layerId = "DED42A87-C949-4722-A202-2B551272A3FB";
shapes = (
{
closed = 1;
nodes = (
(271,0,l),
(271,182,l),
(385,182,l),
(385,0,l),
(525,0,l),
(525,182,l),
(648,182,l),
(648,309,l),
(525,309,l),
(525,423,l),
(648,423,l),
(648,551,l),
(525,551,l),
(525,729,l),
(385,729,l),
(385,551,l),
(271,551,l),
(271,729,l),
(129,729,l),
(129,551,l),
(5,551,l),
(5,423,l),
(129,423,l),
(129,309,l),
(5,309,l),
(5,182,l),
(129,182,l),
(129,0,l)
);
},
{
closed = 1;
nodes = (
(271,423,l),
(385,423,l),
(385,309,l),
(271,309,l)
);
}
);
width = 653;
},
{
layerId = "106FCE83-F343-403B-A314-646E4D059B3F";
shapes = (
{
closed = 1;
nodes = (
(220,0,l),
(220,245,l),
(430,245,l),
(430,0,l),
(462,0,l),
(462,245,l),
(635,245,l),
(635,273,l),
(462,273,l),
(462,480,l),
(635,480,l),
(635,507,l),
(462,507,l),
(462,729,l),
(430,729,l),
(430,507,l),
(220,507,l),
(220,729,l),
(188,729,l),
(188,507,l),
(9,507,l),
(9,480,l),
(188,480,l),
(188,273,l),
(9,273,l),
(9,245,l),
(188,245,l),
(188,0,l)
);
},
{
closed = 1;
nodes = (
(220,480,l),
(430,480,l),
(430,273,l),
(220,273,l)
);
}
);
width = 643;
},
{
layerId = "2D1A1AFE-39FB-4EBD-856C-88C6B057247F";
shapes = (
{
closed = 1;
nodes = (
(297,0,l),
(297,166,l),
(423,166,l),
(423,0,l),
(585,0,l),
(585,166,l),
(716,166,l),
(716,302,l),
(585,302,l),
(585,430,l),
(716,430,l),
(716,566,l),
(585,566,l),
(585,729,l),
(423,729,l),
(423,566,l),
(297,566,l),
(297,729,l),
(135,729,l),
(135,566,l),
(4,566,l),
(4,430,l),
(135,430,l),
(135,302,l),
(4,302,l),
(4,166,l),
(135,166,l),
(135,0,l)
);
},
{
closed = 1;
nodes = (
(297,430,l),
(423,430,l),
(423,302,l),
(297,302,l)
);
}
);
width = 720;
}
);
unicode = 35;
}
{
color = 9;
glyphname = dollar;
layers = (
{
layerId = "E787E54A-EE3E-475A-BF02-8501A6DA5144";
shapes = (
{
closed = 1;
nodes = (
(363,8,o),
(433,74,o),
(433,212,cs),
(433,327,o),
(362,389,o),
(278,438,cs),
(212,476,o),
(193,494,o),
(193,540,cs),
(193,571,o),
(203,590,o),
(229,590,cs),
(258,590,o),
(270,568,o),
(269,504,c),
(427,504,l),
(427,659,o),
(349,722,o),
(226,722,cs),
(102,722,o),
(17,664,o),
(17,527,cs),
(17,410,o),
(82,352,o),
(158,308,cs),
(227,268,o),
(254,246,o),
(254,196,cs),
(254,163,o),
(245,143,o),
(216,143,cs),
(185,143,o),
(168,166,o),
(168,239,c),
(13,239,l),
(13,100,o),
(72,8,o),
(222,8,cs)
);
},
{
closed = 1;
nodes = (
(276,-85,l),
(276,67,l),
(171,67,l),
(171,-85,l)
);
},
{
closed = 1;
nodes = (
(276,643,l),
(276,815,l),
(171,815,l),
(171,643,l)
);
}
);
width = 446;
},
{
layerId = "5713303B-ED49-44A7-8230-B5CAE56DEB7E";
shapes = (
{
closed = 1;
nodes = (
(288,10,o),
(348,66,o),
(348,180,cs),
(348,305,o),
(283,342,o),
(211,379,cs),
(142,414,o),
(81,450,o),
(81,556,cs),
(81,635,o),
(110,688,o),
(186,688,cs),
(255,688,o),
(305,656,o),
(306,522,c),
(339,522,l),
(338,639,o),
(303,719,o),
(189,719,cs),
(105,719,o),
(49,666,o),
(49,557,cs),
(49,425,o),
(120,388,o),
(188,354,cs),
(259,318,o),
(315,283,o),
(315,182,cs),
(315,98,o),
(282,40,o),
(197,40,cs),
(119,40,o),
(67,88,o),
(67,232,c),
(33,232,l),
(36,99,o),
(77,10,o),
(199,10,cs)
);
},
{
closed = 1;
nodes = (
(205,-85,l),
(205,20,l),
(177,20,l),
(177,-85,l)
);
},
{
closed = 1;
nodes = (
(205,706,l),
(205,814,l),
(177,814,l),
(177,706,l)
);
}
);
width = 376;
},
{
layerId = master01;
shapes = (
{
closed = 1;
nodes = (
(477,10,o),
(569,84,o),
(569,194,cs),
(569,339,o),
(466,372,o),
(331,396,cs),
(174,425,o),
(113,447,o),
(113,545,cs),
(113,629,o),
(182,685,o),
(303,685,cs),
(430,685,o),
(501,625,o),
(505,521,c),
(545,521,l),
(542,640,o),
(461,719,o),
(307,719,cs),
(159,719,o),
(72,647,o),
(72,540,cs),
(72,421,o),
(158,388,o),
(316,359,cs),
(471,331,o),
(529,293,o),
(529,192,cs),
(529,92,o),
(442,44,o),
(314,44,cs),
(167,44,o),
(100,116,o),
(96,232,c),
(55,232,l),
(58,100,o),
(140,10,o),
(316,10,cs)
);
},
{
closed = 1;
nodes = (
(329,-85,l),
(329,23,l),
(296,23,l),
(296,-85,l)
);
},
{
closed = 1;
nodes = (
(329,699,l),
(329,814,l),
(296,814,l),
(296,699,l)
);
}
);
userData = {
com.schriftgestaltung.Glyphs.glyph.leftMetricsKey = S;
com.schriftgestaltung.Glyphs.glyph.rightMetricsKey = S;
com.schriftgestaltung.hints = (
{
horizontal = 1;
options = 0;
place = (
0,
0
);
stem = -2;
type = Stem;
},
{
horizontal = 1;
options = 0;
place = (
0,
0
);
stem = -2;
type = Stem;
},
{
horizontal = 0;
options = 0;
place = (
0,
0
);
stem = -2;
type = Stem;
},
{
horizontal = 0;
options = 0;
place = (
246,
48
);
stem = -2;
type = Stem;
},
{
horizontal = 0;
options = 0;
place = (
0,
0
);
stem = -2;
type = Stem;
},
{
horizontal = 0;
options = 0;
place = (
0,
0
);
stem = -2;
type = Stem;
}
);
};
width = 624;
},
{
layerId = "1EDCBF6C-9964-4A28-BC87-E86B534B8BE7";
shapes = (
{
closed = 1;
nodes = (
(532,8,o),
(632,101,o),
(632,232,cs),
(632,409,o),
(504,440,o),
(392,456,cs),
(285,472,o),
(247,474,o),
(247,521,cs),
(247,553,o),
(278,573,o),
(326,573,cs),
(364,573,o),
(407,561,o),
(410,511,c),
(612,511,l),
(612,638,o),
(498,722,o),
(330,722,cs),
(151,722,o),
(39,637,o),
(39,495,cs),
(39,362,o),
(137,304,o),
(286,282,cs),
(391,267,o),
(423,263,o),
(423,212,cs),
(423,177,o),
(388,160,o),
(337,160,cs),
(259,160,o),
(229,192,o),
(229,239,c),
(25,239,l),
(25,100,o),
(133,8,o),
(327,8,cs)
);
},
{
closed = 1;
nodes = (
(395,-85,l),
(395,82,l),
(263,82,l),
(263,-85,l)
);
},
{
closed = 1;
nodes = (
(395,632,l),
(395,814,l),
(263,814,l),
(263,632,l)
);
}
);
userData = {
com.schriftgestaltung.Glyphs.glyph.leftMetricsKey = S;
com.schriftgestaltung.Glyphs.glyph.rightMetricsKey = S;
};
width = 662;
},
{
layerId = "28A8A76A-23B4-40F5-83B9-DC51E48BF161";
shapes = (
{
closed = 1;
nodes = (
(498,10,o),
(614,74,o),
(614,198,cs),
(614,357,o),
(477,377,o),
(334,397,cs),
(188,417,o),
(94,432,o),
(94,543,cs),
(94,627,o),
(166,685,o),
(317,685,cs),
(456,685,o),
(541,631,o),
(546,521,c),
(587,521,l),
(582,645,o),
(485,719,o),
(318,719,cs),
(162,719,o),
(54,654,o),
(54,540,cs),
(54,400,o),
(177,380,o),
(323,360,cs),
(469,340,o),
(573,323,o),
(573,198,cs),
(573,104,o),
(498,44,o),
(326,44,cs),
(178,44,o),
(83,94,o),
(76,232,c),
(36,232,l),
(42,100,o),
(125,10,o),
(326,10,cs)
);
},
{
closed = 1;
nodes = (
(342,-85,l),
(342,22,l),
(308,22,l),
(308,-85,l)
);
},
{
closed = 1;
nodes = (
(342,700,l),
(342,814,l),
(308,814,l),
(308,700,l)
);
}
);
width = 650;
},
{
layerId = "D2144554-01B8-4B9B-B16A-E0E5B5794DFC";
shapes = (
{
closed = 1;
nodes = (
(580,9,o),
(703,93,o),
(703,234,cs),
(703,385,o),
(624,435,o),
(399,461,cs),
(285,474,o),
(267,479,o),
(267,518,cs),
(267,550,o),
(298,571,o),
(353,571,cs),
(409,571,o),
(442,552,o),
(450,508,c),
(679,508,l),
(665,648,o),
(541,721,o),
(363,721,cs),
(159,721,o),
(34,641,o),
(34,493,cs),
(34,359,o),
(120,302,o),
(342,276,cs),
(447,264,o),
(468,258,o),
(468,215,cs),
(468,181,o),
(433,162,o),
(372,162,cs),
(294,162,o),
(254,195,o),
(252,243,c),
(17,243,l),
(17,106,o),
(127,9,o),
(362,9,cs)
);
},
{
closed = 1;
nodes = (
(435,-85,l),
(435,79,l),
(285,79,l),
(285,-85,l)
);
},
{
closed = 1;
nodes = (
(435,627,l),
(435,815,l),
(285,815,l),
(285,627,l)
);
}
);
width = 720;
},
{
background = {
shapes = (
{
closed = 1;
nodes = (
(263,-8,o),
(327,74,o),
(332,200,cs),
(334,265,o),
(302,323,o),
(238,375,cs),
(196,409,o),
(138,450,o),
(141,533,cs),
(144,639,o),
(194,705,o),
(268,705,cs),
(350,705,o),
(383,654,o),
(361,530,c),
(394,530,l),
(416,654,o),
(379,736,o),
(271,736,cs),
(172,736,o),
(117,664,o),
(109,538,cs),
(103,442,o),
(155,399,o),
(207,357,cs),
(250,322,o),
(302,279,o),
(299,202,cs),
(295,89,o),
(244,22,o),
(160,22,cs),
(53,22,o),
(39,111,o),
(61,225,c),
(28,225,l),
(3,86,o),
(33,-8,o),
(160,-8,cs)
);
},
{
closed = 1;
nodes = (
(129,-85,l),
(317,814,l),
(289,814,l),
(100,-85,l)
);
}
);
};
layerId = "23BA42C1-D468-4A44-9BE5-E18AE60B7926";
shapes = (
{
closed = 1;
nodes = (
(271,11,o),
(333,94,o),
(336,212,cs),
(337,269,o),
(304,327,o),
(239,376,cs),
(186,416,o),
(137,450,o),
(138,526,cs),
(140,627,o),
(189,688,o),
(264,688,cs),
(346,688,o),
(382,640,o),
(361,523,c),
(394,523,l),
(414,636,o),
(380,719,o),
(267,719,cs),
(164,719,o),
(112,645,o),
(106,532,cs),
(101,438,o),
(152,399,o),
(209,356,cs),
(251,324,o),
(305,283,o),
(303,212,cs),
(300,105,o),
(250,42,o),
(164,42,cs),
(56,42,o),
(40,126,o),
(61,233,c),
(28,233,l),
(2,87,o),
(46,11,o),
(164,11,cs)
);
},
{
closed = 1;
nodes = (
(129,-85,l),
(153,31,l),
(124,31,l),
(100,-85,l)
);
},
{
closed = 1;
nodes = (
(293,697,l),
(317,814,l),
(289,814,l),
(264,697,l)
);
}
);
width = 379;
},
{
layerId = "2D4E69BA-A319-45D0-84B7-5297BCF4B7A0";
shapes = (
{
closed = 1;
nodes = (
(321,9,o),
(393,72,o),
(418,202,cs),
(441,319,o),
(381,380,o),
(313,433,cs),
(257,476,o),
(242,495,o),
(248,537,cs),
(253,573,o),
(268,590,o),
(294,589,cs),
(319,588,o),
(333,570,o),
(321,505,c),
(475,505,l),
(500,646,o),
(437,722,o),
(295,722,cs),
(166,722,o),
(95,653,o),
(73,537,cs),
(53,431,o),
(96,367,o),
(168,312,cs),
(229,265,o),
(248,247,o),
(240,197,cs),
(234,160,o),
(225,144,o),
(189,146,cs),
(158,148,o),
(147,168,o),
(161,239,c),
(6,239,l),
(-19,96,o),
(35,9,o),
(195,9,cs)
);
},
{
closed = 1;
nodes = (
(200,-85,l),
(235,87,l),
(130,87,l),
(95,-85,l)
);
},
{
closed = 1;
nodes = (
(353,657,l),
(386,815,l),
(281,815,l),
(248,657,l)
);
}
);
width = 445;
},
{
background = {
shapes = (
{
closed = 1;
nodes = (
(450,-10,o),
(562,72,o),
(567,202,cs),
(570,307,o),
(509,360,o),
(369,392,cs),
(232,423,o),
(176,468,o),
(179,547,cs),
(182,642,o),
(268,702,o),
(379,702,cs),
(498,702,o),
(576,634,o),
(573,529,c),
(612,529,l),
(616,660,o),
(523,739,o),
(384,739,cs),
(245,739,o),
(141,663,o),
(137,544,cs),
(133,445,o),
(195,396,o),
(363,355,cs),
(475,328,o),
(529,287,o),
(526,198,cs),
(522,94,o),
(433,26,o),
(302,26,cs),
(169,26,o),
(88,97,o),
(92,224,c),
(53,224,l),
(44,83,o),
(133,-10,o),
(307,-10,cs)
);
},
{
closed = 1;
nodes = (
(256,-85,l),
(442,814,l),
(409,814,l),
(223,-85,l)
);
}
);
};
layerId = "095FE76F-1953-440B-9108-AA0678D151F9";
shapes = (
{
closed = 1;
nodes = (
(429,9,o),
(541,87,o),
(545,203,cs),
(548,311,o),
(496,360,o),
(353,392,cs),
(222,421,o),
(169,464,o),
(171,537,cs),
(174,627,o),
(255,684,o),
(362,684,cs),
(476,684,o),
(551,620,o),
(549,521,c),
(588,521,l),
(592,645,o),
(501,721,o),
(367,721,cs),
(232,721,o),
(133,648,o),
(129,535,cs),
(126,440,o),
(184,394,o),
(346,355,cs),
(459,328,o),
(507,290,o),
(504,202,cs),
(501,111,o),
(416,44,o),
(290,44,cs),
(165,44,o),
(85,109,o),
(88,231,c),
(49,231,l),
(41,97,o),
(127,9,o),
(295,9,cs)
);
},
{
closed = 1;
nodes = (
(242,-85,l),
(266,33,l),
(233,33,l),
(209,-85,l)
);
},
{
closed = 1;
nodes = (
(406,705,l),
(428,814,l),
(395,814,l),
(373,705,l)
);
}
);
width = 614;
},
{
layerId = "63AAE8D6-1DFF-4DD4-BD9A-49272FE52904";
shapes = (
{
closed = 1;
nodes = (
(497,9,o),
(616,100,o),
(621,256,cs),
(625,370,o),
(571,423,o),
(396,462,cs),
(334,476,o),
(304,489,o),
(304,518,cs),
(304,549,o),
(330,567,o),
(375,567,cs),
(425,567,o),
(453,544,o),
(450,503,c),
(655,503,l),
(659,629,o),
(556,721,o),
(391,721,cs),
(226,721,o),
(91,645,o),
(86,489,cs),
(83,383,o),
(148,324,o),
(311,282,cs),
(388,262,o),
(404,255,o),
(404,222,cs),
(404,185,o),
(373,165,o),
(314,165,cs),
(254,165,o),
(216,197,o),
(217,243,c),
(19,243,l),
(11,97,o),
(119,9,o),
(304,9,cs)
);
},
{
closed = 1;
nodes = (
(310,-85,l),
(351,112,l),
(219,112,l),
(178,-85,l)
);
},
{
closed = 1;
nodes = (
(456,622,l),
(496,815,l),
(364,815,l),
(324,622,l)
);
}
);
width = 659;
},
{
layerId = "C17B1F32-8075-45B4-AA59-7DAFF0D7E404";
shapes = (
{
closed = 1;
nodes = (
(511,9,o),
(614,84,o),
(618,212,cs),
(622,336,o),
(510,369,o),
(372,394,cs),
(231,419,o),
(151,448,o),
(154,535,cs),
(157,631,o),
(244,687,o),
(385,687,cs),
(530,687,o),
(618,626,o),
(615,527,c),
(654,527,l),
(657,647,o),
(558,721,o),
(389,721,cs),
(220,721,o),
(118,651,o),
(114,533,cs),
(111,429,o),
(188,385,o),
(369,356,cs),
(529,330,o),
(579,289,o),
(576,204,cs),
(573,101,o),
(489,44,o),
(336,44,cs),
(174,44,o),
(66,110,o),
(71,228,c),
(30,228,l),
(27,95,o),
(134,9,o),
(336,9,cs)
);
},
{
closed = 1;
nodes = (
(275,-85,l),
(299,31,l),
(267,31,l),
(243,-85,l)
);
},
{
closed = 1;
nodes = (
(438,705,l),
(461,814,l),
(429,814,l),
(406,705,l)
);
}
);
width = 667;
},
{
layerId = "377EF8AC-8B0D-46C2-96BB-3B5B69A8F571";
shapes = (
{
closed = 1;
nodes = (
(583,7,o),
(706,91,o),
(710,242,cs),
(714,390,o),
(612,434,o),
(443,461,cs),
(346,476,o),
(317,485,o),
(318,520,cs),
(319,551,o),
(348,569,o),
(404,569,cs),
(462,569,o),
(506,547,o),
(509,507,c),
(737,507,l),
(737,633,o),
(609,723,o),
(408,723,cs),
(229,723,o),
(82,649,o),
(77,491,cs),
(73,375,o),
(155,308,o),
(336,277,cs),
(444,259,o),
(472,250,o),
(471,217,cs),
(470,184,o),
(444,163,o),
(373,163,cs),
(283,163,o),
(244,198,o),
(246,242,c),
(11,242,l),
(5,100,o),
(133,7,o),
(359,7,cs)
);
},
{
closed = 1;
nodes = (
(356,-85,l),
(390,82,l),
(240,82,l),
(206,-85,l)
);
},
{
closed = 1;
nodes = (
(507,646,l),
(542,815,l),
(392,815,l),
(357,646,l)
);
}
);
width = 737;
}
);
metricLeft = S;
metricRight = S;
unicode = 36;
userData = {
KernOnName = dollar;
KernOnSpecialSpacing = {
L = symbols;
R = symbols;
};
};
}
{
glyphname = percent;
kernLeft = percent;
kernRight = percent;
layers = (
{
background = {
shapes = (
{
closed = 1;
nodes = (
(550,90,o),
(549,120,o),
(549,183,cs),
(549,247,o),
(550,276,o),
(570,276,cs),
(589,276,o),
(590,254,o),
(590,183,cs),
(590,115,o),
(589,90,o),
(570,90,cs)
);
}
);
};
layerId = "E787E54A-EE3E-475A-BF02-8501A6DA5144";
shapes = (
{
closed = 1;
nodes = (
(259,0,l),
(572,729,l),
(462,729,l),
(149,0,l)
);
},
{
closed = 1;
nodes = (
(232,352,o),
(291,388,o),
(291,540,cs),
(291,692,o),
(232,729,o),
(151,729,cs),
(71,729,o),
(12,694,o),
(12,540,cs),
(12,387,o),
(71,352,o),
(151,352,cs)
);
},
{
closed = 1;
nodes = (
(131,447,o),
(130,477,o),
(130,540,cs),
(130,604,o),
(131,633,o),
(151,633,cs),
(170,633,o),
(171,611,o),
(171,540,cs),
(171,472,o),
(170,447,o),
(151,447,cs)
);
},
{
closed = 1;
nodes = (
(651,-5,o),
(710,32,o),
(710,184,cs),
(710,336,o),
(651,372,o),
(570,372,cs),
(490,372,o),
(431,337,o),
(431,184,cs),
(431,30,o),
(490,-5,o),
(570,-5,cs)
);
},
{
closed = 1;
nodes = (
(550,90,o),
(549,120,o),
(549,183,cs),
(549,247,o),
(550,276,o),
(570,276,cs),
(589,276,o),
(590,254,o),
(590,183,cs),
(590,115,o),
(589,90,o),
(570,90,cs)
);
}
);
width = 722;
},
{
layerId = "5713303B-ED49-44A7-8230-B5CAE56DEB7E";
shapes = (
{
closed = 1;
nodes = (
(177,0,l),
(459,729,l),
(425,729,l),
(144,0,l)
);
},
{
closed = 1;
nodes = (
(222,324,o),
(249,399,o),
(249,527,cs),
(249,655,o),
(222,729,o),
(155,729,cs),
(87,729,o),
(60,655,o),
(60,527,cs),
(60,399,o),
(87,324,o),
(155,324,cs)
);
},
{
closed = 1;
nodes = (
(116,353,o),
(93,390,o),
(93,527,cs),
(93,663,o),
(116,701,o),
(155,701,cs),
(193,701,o),
(216,663,o),
(216,527,cs),
(216,390,o),
(193,353,o),
(155,353,cs)
);
},
{
closed = 1;
nodes = (
(516,-6,o),
(543,70,o),
(543,197,cs),
(543,324,o),
(516,399,o),
(449,399,cs),
(380,399,o),
(354,324,o),
(354,197,cs),
(354,71,o),
(380,-6,o),
(449,-6,cs)
);
},
{
closed = 1;
nodes = (
(410,23,o),
(386,59,o),
(386,197,cs),
(386,335,o),
(410,372,o),
(449,372,cs),
(486,372,o),
(510,335,o),
(510,197,cs),
(510,59,o),
(486,23,o),
(449,23,cs)
);
}
);
width = 603;
},
{
background = {
shapes = (
{
closed = 1;
nodes = (
(208,0,l),
(670,729,l),
(628,729,l),
(167,0,l)
);
},
{
closed = 1;
nodes = (
(265,320,o),
(321,391,o),
(321,523,cs),
(321,654,o),
(266,725,o),
(184,725,cs),
(101,725,o),
(45,655,o),
(45,523,cs),
(45,392,o),
(100,320,o),
(184,320,cs)
);
},
{
closed = 1;
nodes = (
(119,352,o),
(82,411,o),
(82,523,cs),
(82,634,o),
(119,693,o),
(184,693,cs),
(247,693,o),
(284,635,o),
(284,523,cs),
(284,411,o),
(247,352,o),
(184,352,cs)
);
},
{
closed = 1;
nodes = (
(736,-5,o),
(792,66,o),
(792,197,cs),
(792,329,o),
(737,400,o),
(655,400,cs),
(571,400,o),
(516,329,o),
(516,198,cs),
(516,66,o),
(571,-5,o),
(655,-5,cs)
);
},
{
closed = 1;
nodes = (
(590,27,o),
(553,85,o),
(553,197,cs),
(553,310,o),
(590,368,o),
(655,368,cs),
(717,368,o),
(754,310,o),
(754,197,cs),
(754,84,o),
(717,27,o),
(655,27,cs)
);
}
);
};
layerId = master01;
shapes = (
{
closed = 1;
nodes = (
(208,0,l),
(670,729,l),
(628,729,l),
(167,0,l)
);
},
{
closed = 1;
nodes = (
(285,324,o),
(341,395,o),
(341,527,cs),
(341,658,o),
(286,729,o),
(204,729,cs),
(121,729,o),
(65,659,o),
(65,527,cs),
(65,396,o),
(120,324,o),
(204,324,cs)
);
},
{
closed = 1;
nodes = (
(139,356,o),
(102,415,o),
(102,527,cs),
(102,638,o),
(139,697,o),
(204,697,cs),
(267,697,o),
(304,639,o),
(304,527,cs),
(304,415,o),
(267,356,o),
(204,356,cs)
);
},
{
closed = 1;
nodes = (
(716,-5,o),
(772,66,o),
(772,197,cs),
(772,329,o),
(717,400,o),
(635,400,cs),
(551,400,o),
(496,329,o),
(496,198,cs),
(496,66,o),
(551,-5,o),
(635,-5,cs)
);
},
{
closed = 1;
nodes = (
(570,27,o),
(533,85,o),
(533,197,cs),
(533,310,o),
(570,368,o),
(635,368,cs),
(697,368,o),
(734,310,o),
(734,197,cs),
(734,84,o),
(697,27,o),
(635,27,cs)
);
}
);
userData = {
com.schriftgestaltung.hints = (
{
horizontal = 1;
options = 0;
origin = (
4,
11
);
stem = -2;
target = (
3,
11
);
type = Stem;
},
{
horizontal = 1;
options = 0;
origin = (
3,
5
);
stem = -2;
target = (
4,
5
);
type = Stem;
},
{
horizontal = 1;
options = 0;
origin = (
1,
5
);
stem = -2;
target = (
2,
5
);
type = Stem;
},
{
horizontal = 1;
options = 0;
origin = (
2,
11
);
stem = -2;
target = (
1,
11
);
type = Stem;
},
{
horizontal = 1;
options = 0;
origin = (
0,
3
);
stem = -2;
target = (
u,
p
);
type = BottomGhost;
},
{
horizontal = 1;
options = 0;
origin = (
0,
2
);
stem = -2;
target = (
d,
o,
w,
n
);
type = TopGhost;
},
{
horizontal = 0;
options = 0;
origin = (
1,
8
);
stem = -2;
target = (
2,
2
);
type = Stem;
},
{
horizontal = 0;
options = 0;
origin = (
2,
8
);
stem = -2;
target = (
1,
2
);
type = Stem;
},
{
horizontal = 0;
options = 0;
origin = (
3,
8
);
stem = -2;
target = (
4,
2
);
type = Stem;
},
{
horizontal = 0;
options = 0;
origin = (
4,
8
);
stem = -2;
target = (
3,
2
);
type = Stem;
}
);
};
width = 837;
},
{
background = {
shapes = (
{
closed = 1;
nodes = (
(264,0,l),
(729,729,l),
(605,729,l),
(140,0,l)
);
},
{
closed = 1;
nodes = (
(288,348,o),
(353,416,o),
(353,536,cs),
(353,646,o),
(297,726,o),
(196,726,cs),
(98,726,o),
(34,655,o),
(34,539,cs),
(34,427,o),
(90,348,o),
(192,348,cs)
);
},
{
closed = 1;
nodes = (
(176,450,o),
(156,449,o),
(156,537,cs),
(156,626,o),
(177,623,o),
(193,623,cs),
(211,623,o),
(231,625,o),
(231,537,cs),
(231,448,o),
(211,450,o),
(193,450,cs)
);
},
{
closed = 1;
nodes = (
(771,-3,o),
(835,66,o),
(835,186,cs),
(835,296,o),
(779,376,o),
(678,376,cs),
(581,376,o),
(516,306,o),
(516,188,cs),
(516,78,o),
(572,-3,o),
(674,-3,cs)
);
},
{
closed = 1;
nodes = (
(659,100,o),
(638,98,o),
(638,187,cs),
(638,276,o),
(659,273,o),
(676,273,cs),
(693,273,o),
(713,275,o),
(713,187,cs),
(713,98,o),
(693,100,o),
(676,100,cs)
);
}
);
};
layerId = "1EDCBF6C-9964-4A28-BC87-E86B534B8BE7";
shapes = (
{
closed = 1;
nodes = (
(264,0,l),
(729,729,l),
(605,729,l),
(140,0,l)
);
},
{
closed = 1;
nodes = (
(300,336,o),
(365,398,o),
(365,533,cs),
(365,667,o),
(300,729,o),
(205,729,cs),
(110,729,o),
(45,667,o),
(45,533,cs),
(45,398,o),
(110,336,o),
(205,336,cs)
);
},
{
closed = 1;
nodes = (
(175,440,o),
(166,476,o),
(166,533,cs),
(166,589,o),
(175,625,o),
(205,625,cs),
(235,625,o),
(244,589,o),
(244,533,cs),
(244,476,o),
(235,440,o),
(205,440,cs)
);
},
{
closed = 1;
nodes = (
(759,-10,o),
(824,52,o),
(824,187,cs),
(824,321,o),
(759,383,o),
(664,383,cs),
(569,383,o),
(504,321,o),
(504,187,cs),
(504,52,o),
(569,-10,o),
(664,-10,cs)
);
},
{
closed = 1;
nodes = (
(634,94,o),
(625,130,o),
(625,187,cs),
(625,243,o),
(634,279,o),
(664,279,cs),
(694,279,o),
(703,243,o),
(703,187,cs),
(703,130,o),
(694,94,o),
(664,94,cs)
);
}
);
width = 869;
},
{
layerId = "28A8A76A-23B4-40F5-83B9-DC51E48BF161";
shapes = (
{
closed = 1;
nodes = (
(205,0,l),
(735,729,l),
(694,729,l),
(165,0,l)
);
},
{
closed = 1;
nodes = (
(304,323,o),
(375,393,o),
(375,526,cs),
(375,659,o),
(303,729,o),
(199,729,cs),
(94,729,o),
(22,659,o),
(22,526,cs),
(22,392,o),
(95,323,o),
(200,323,cs)
);
},
{
closed = 1;
nodes = (
(109,353,o),
(58,415,o),
(58,526,cs),
(58,637,o),
(110,699,o),
(199,699,cs),
(289,699,o),
(340,637,o),
(340,526,cs),
(340,415,o),
(288,353,o),
(199,353,cs)
);
},
{
closed = 1;
nodes = (
(806,-10,o),
(877,60,o),
(877,193,cs),
(877,326,o),
(805,396,o),
(701,396,cs),
(596,396,o),
(524,326,o),
(524,193,cs),
(524,59,o),
(597,-10,o),
(702,-10,cs)
);
},
{
closed = 1;
nodes = (
(611,20,o),
(560,82,o),
(560,193,cs),
(560,304,o),
(612,366,o),
(701,366,cs),
(791,366,o),
(842,304,o),
(842,193,cs),
(842,82,o),
(790,20,o),
(701,20,cs)
);
}
);
width = 899;
},
{
layerId = "D2144554-01B8-4B9B-B16A-E0E5B5794DFC";
shapes = (
{
closed = 1;
nodes = (
(304,0,l),
(834,729,l),
(674,729,l),
(144,0,l)
);
},
{
closed = 1;
nodes = (
(351,351,o),
(432,421,o),
(432,540,cs),
(432,657,o),
(352,729,o),
(228,729,cs),
(104,729,o),
(22,660,o),
(22,540,cs),
(22,424,o),
(101,351,o),
(226,351,cs)
);
},
{
closed = 1;
nodes = (
(198,471,o),
(174,482,o),
(174,540,cs),
(174,599,o),
(198,610,o),
(228,610,cs),
(255,610,o),
(281,599,o),
(281,540,cs),
(281,482,o),
(257,471,o),
(227,471,cs)
);
},
{
closed = 1;
nodes = (
(875,-5,o),
(956,65,o),
(956,184,cs),
(956,302,o),
(876,373,o),
(753,373,cs),
(630,373,o),
(547,305,o),
(547,184,cs),
(547,68,o),
(626,-5,o),
(751,-5,cs)
);
},
{
closed = 1;
nodes = (
(723,116,o),
(698,126,o),
(698,184,cs),
(698,244,o),
(723,254,o),
(753,254,cs),
(780,254,o),
(806,243,o),
(806,184,cs),
(806,126,o),
(781,116,o),
(751,116,cs)
);
}
);
width = 978;
},
{
layerId = "23BA42C1-D468-4A44-9BE5-E18AE60B7926";
shapes = (
{
closed = 1;
nodes = (
(86,0,l),
(518,729,l),
(482,729,l),
(52,0,l)
);
},
{
closed = 1;
nodes = (
(195,325,o),
(236,393,o),
(263,517,cs),
(287,634,o),
(286,729,o),
(206,729,cs),
(147,729,o),
(105,664,o),
(79,539,cs),
(48,393,o),
(67,325,o),
(136,325,cs)
);
},
{
closed = 1;
nodes = (
(80,357,o),
(95,455,o),
(111,532,cs),
(137,656,o),
(163,700,o),
(203,700,cs),
(254,700,o),
(255,634,o),
(231,522,cs),
(201,380,o),
(171,350,o),
(131,353,cs)
);
},
{
closed = 1;
nodes = (
(423,-5,o),
(462,67,o),
(488,189,cs),
(515,317,o),
(505,399,o),
(431,399,cs),
(368,399,o),
(328,327,o),
(303,205,cs),
(278,88,o),
(282,-5,o),
(361,-5,cs)
);
},
{
closed = 1;
nodes = (
(305,28,o),
(319,123,o),
(336,204,cs),
(362,331,o),
(390,371,o),
(428,371,cs),
(480,371,o),
(479,302,o),
(455,189,cs),
(426,50,o),
(397,21,o),
(355,24,cs)
);
}
);
width = 523;
},
{
background = {
shapes = (
{
closed = 1;
nodes = (
(245,632,o),
(242,615,o),
(227,541,cs),
(213,472,o),
(207,449,o),
(189,449,cs),
(164,449,o),
(174,485,o),
(185,538,cs),
(200,613,o),
(207,632,o),
(222,632,cs)
);
},
{
closed = 1;
nodes = (
(509,92,o),
(512,109,o),
(527,183,cs),
(542,256,o),
(549,275,o),
(564,275,cs),
(587,275,o),
(584,258,o),
(569,184,cs),
(554,111,o),
(547,92,o),
(532,92,cs)
);
}
);
};
guides = (
{
pos = (176,348);
},
{
pos = (176,629);
},
{
pos = (176,443);
}
);
layerId = "2D4E69BA-A319-45D0-84B7-5297BCF4B7A0";
shapes = (
{
closed = 1;
nodes = (
(204,0,l),
(666,729,l),
(550,729,l),
(88,0,l)
);
},
{
closed = 1;
nodes = (
(258,352,o),
(312,388,o),
(342,533,cs),
(366,651,o),
(335,729,o),
(227,729,cs),
(148,729,o),
(96,680,o),
(70,552,cs),
(45,432,o),
(73,352,o),
(184,352,cs)
);
},
{
closed = 1;
nodes = (
(167,449,o),
(170,466,o),
(185,540,cs),
(200,613,o),
(207,632,o),
(222,632,cs),
(245,632,o),
(242,615,o),
(227,541,cs),
(212,468,o),
(205,449,o),
(190,449,cs)
);
},
{
closed = 1;
nodes = (
(600,-5,o),
(654,31,o),
(684,176,cs),
(708,294,o),
(677,372,o),
(569,372,cs),
(490,372,o),
(438,323,o),
(412,195,cs),
(387,75,o),
(415,-5,o),
(526,-5,cs)
);
},
{
closed = 1;
nodes = (
(509,92,o),
(512,109,o),
(527,183,cs),
(542,256,o),
(549,275,o),
(564,275,cs),
(587,275,o),
(584,258,o),
(569,184,cs),
(554,111,o),
(547,92,o),
(532,92,cs)
);
}
);
width = 716;
},
{
background = {
shapes = (
{
closed = 1;
nodes = (
(108,0,l),
(717,729,l),
(674,729,l),
(64,0,l)
);
},
{
closed = 1;
nodes = (
(305,360,o),
(367,456,o),
(373,602,cs),
(376,687,o),
(337,739,o),
(269,739,cs),
(177,739,o),
(114,642,o),
(108,494,cs),
(104,414,o),
(146,360,o),
(212,360,cs)
);
},
{
closed = 1;
nodes = (
(168,390,o),
(141,430,o),
(144,492,cs),
(150,623,o),
(200,709,o),
(269,709,cs),
(314,709,o),
(340,671,o),
(337,604,cs),
(332,475,o),
(281,390,o),
(212,390,cs)
);
},
{
closed = 1;
nodes = (
(605,-10,o),
(667,86,o),
(673,232,cs),
(676,317,o),
(637,369,o),
(569,369,cs),
(477,369,o),
(414,272,o),
(408,124,cs),
(404,44,o),
(446,-10,o),
(512,-10,cs)
);
},
{
closed = 1;
nodes = (
(468,20,o),
(441,60,o),
(444,122,cs),
(450,253,o),
(500,339,o),
(569,339,cs),
(614,339,o),
(640,301,o),
(637,234,cs),
(632,105,o),
(581,20,o),
(512,20,cs)
);
}
);
};
layerId = "095FE76F-1953-440B-9108-AA0678D151F9";
shapes = (
{
closed = 1;
nodes = (
(109,0,l),
(717,729,l),
(672,729,l),
(64,0,l)
);
},
{
closed = 1;
nodes = (
(304,360,o),
(368,453,o),
(373,593,cs),
(377,673,o),
(333,729,o),
(263,729,cs),
(170,729,o),
(106,636,o),
(101,496,cs),
(97,416,o),
(141,360,o),
(211,360,cs)
);
},
{
closed = 1;
nodes = (
(163,392,o),
(134,432,o),
(137,494,cs),
(142,617,o),
(192,697,o),
(263,697,cs),
(311,697,o),
(340,657,o),
(337,595,cs),
(332,472,o),
(282,392,o),
(211,392,cs)
);
},
{
closed = 1;
nodes = (
(605,-10,o),
(669,83,o),
(674,223,cs),
(678,303,o),
(634,359,o),
(564,359,cs),
(471,359,o),
(407,266,o),
(402,126,cs),
(398,46,o),
(442,-10,o),
(512,-10,cs)
);
},
{
closed = 1;
nodes = (
(464,22,o),
(435,62,o),
(438,124,cs),
(443,247,o),
(493,327,o),
(564,327,cs),
(612,327,o),
(641,287,o),
(638,225,cs),
(633,102,o),
(583,22,o),
(512,22,cs)
);
}
);
width = 733;
},
{
layerId = "63AAE8D6-1DFF-4DD4-BD9A-49272FE52904";
shapes = (
{
closed = 1;
nodes = (
(230,0,l),
(842,729,l),
(708,729,l),
(95,0,l)
);
},
{
closed = 1;
nodes = (
(357,333,o),
(428,434,o),
(428,569,cs),
(428,666,o),
(377,729,o),
(285,729,cs),
(169,729,o),
(98,628,o),
(98,493,cs),
(98,396,o),
(149,333,o),
(241,333,cs)
);
},
{
closed = 1;
nodes = (
(214,437,o),
(214,484,o),
(222,538,cs),
(231,590,o),
(246,625,o),
(276,625,cs),
(312,625,o),
(312,578,o),
(304,524,cs),
(295,472,o),
(280,437,o),
(250,437,cs)
);
},
{
closed = 1;
nodes = (
(765,-9,o),
(836,92,o),
(836,227,cs),
(836,324,o),
(785,387,o),
(693,387,cs),
(577,387,o),
(506,286,o),
(506,151,cs),
(506,54,o),
(557,-9,o),
(649,-9,cs)
);
},
{
closed = 1;
nodes = (
(622,95,o),
(622,142,o),
(630,196,cs),
(639,248,o),
(654,283,o),
(684,283,cs),
(720,283,o),
(720,236,o),
(712,182,cs),
(703,130,o),
(688,95,o),
(658,95,cs)
);
}
);
width = 898;
},
{
background = {
shapes = (
{
closed = 1;
nodes = (
(159,0,l),
(846,729,l),
(802,729,l),
(115,0,l)
);
},
{
closed = 1;
nodes = (
(362,333,o),
(447,434,o),
(447,571,cs),
(447,677,o),
(389,739,o),
(289,739,cs),
(173,739,o),
(88,638,o),
(88,501,cs),
(88,395,o),
(146,333,o),
(246,333,cs)
);
},
{
closed = 1;
nodes = (
(166,363,o),
(122,413,o),
(122,501,cs),
(122,623,o),
(194,709,o),
(289,709,cs),
(369,709,o),
(413,659,o),
(413,571,cs),
(413,449,o),
(341,363,o),
(246,363,cs)
);
},
{
closed = 1;
nodes = (
(788,-9,o),
(873,92,o),
(873,229,cs),
(873,335,o),
(815,397,o),
(715,397,cs),
(599,397,o),
(514,296,o),
(514,159,cs),
(514,53,o),
(572,-9,o),
(672,-9,cs)
);
},
{
closed = 1;
nodes = (
(592,21,o),
(548,71,o),
(548,159,cs),
(548,281,o),
(620,367,o),
(715,367,cs),
(795,367,o),
(839,317,o),
(839,229,cs),
(839,107,o),
(767,21,o),
(672,21,cs)
);
}
);
};
layerId = "C17B1F32-8075-45B4-AA59-7DAFF0D7E404";
shapes = (
{
closed = 1;
nodes = (
(159,0,l),
(846,729,l),
(802,729,l),
(115,0,l)
);
},
{
closed = 1;
nodes = (
(358,323,o),
(437,419,o),
(437,558,cs),
(437,665,o),
(378,729,o),
(275,729,cs),
(157,729,o),
(78,633,o),
(78,494,cs),
(78,387,o),
(137,323,o),
(240,323,cs)
);
},
{
closed = 1;
nodes = (
(157,353,o),
(112,405,o),
(112,494,cs),
(112,618,o),
(178,699,o),
(277,699,cs),
(358,699,o),
(403,647,o),
(403,558,cs),
(403,434,o),
(337,353,o),
(238,353,cs)
);
},
{
closed = 1;
nodes = (
(794,-9,o),
(873,87,o),
(873,226,cs),
(873,333,o),
(814,397,o),
(711,397,cs),
(593,397,o),
(514,301,o),
(514,162,cs),
(514,55,o),
(573,-9,o),
(676,-9,cs)
);
},
{
closed = 1;
nodes = (
(593,21,o),
(548,73,o),
(548,162,cs),
(548,286,o),
(614,367,o),
(713,367,cs),
(794,367,o),
(839,315,o),
(839,226,cs),
(839,102,o),
(773,21,o),
(674,21,cs)
);
}
);
width = 909;
},
{
background = {
shapes = (
{
closed = 1;
nodes = (
(318,0,l),
(987,729,l),
(813,729,l),
(144,0,l)
);
},
{
closed = 1;
nodes = (
(426,347,o),
(517,429,o),
(517,552,cs),
(517,659,o),
(443,733,o),
(313,733,cs),
(177,733,o),
(86,651,o),
(86,528,cs),
(86,421,o),
(160,347,o),
(290,347,cs)
);
},
{
closed = 1;
nodes = (
(266,470,o),
(246,488,o),
(246,526,cs),
(246,578,o),
(263,610,o),
(307,610,cs),
(337,610,o),
(357,592,o),
(357,554,cs),
(357,502,o),
(340,470,o),
(296,470,cs)
);
},
{
closed = 1;
nodes = (
(947,-8,o),
(1038,74,o),
(1038,197,cs),
(1038,304,o),
(964,378,o),
(834,378,cs),
(698,378,o),
(607,296,o),
(607,173,cs),
(607,66,o),
(681,-8,o),
(811,-8,cs)
);
},
{
closed = 1;
nodes = (
(787,115,o),
(767,133,o),
(767,171,cs),
(767,223,o),
(784,255,o),
(828,255,cs),
(858,255,o),
(878,237,o),
(878,199,cs),
(878,147,o),
(861,115,o),
(817,115,cs)
);
}
);
};
layerId = "377EF8AC-8B0D-46C2-96BB-3B5B69A8F571";
shapes = (
{
closed = 1;
nodes = (
(315,0,l),
(970,729,l),
(796,729,l),
(141,0,l)
);
},
{
closed = 1;
nodes = (
(415,343,o),
(503,423,o),
(503,545,cs),
(503,652,o),
(429,729,o),
(298,729,cs),
(168,729,o),
(80,649,o),
(80,527,cs),
(80,420,o),
(154,343,o),
(284,343,cs)
);
},
{
closed = 1;
nodes = (
(259,466,o),
(240,483,o),
(240,518,cs),
(240,576,o),
(258,606,o),
(297,606,cs),
(324,606,o),
(343,589,o),
(343,554,cs),
(343,496,o),
(325,466,o),
(286,466,cs)
);
},
{
closed = 1;
nodes = (
(931,-8,o),
(1019,72,o),
(1019,194,cs),
(1019,301,o),
(945,378,o),
(814,378,cs),
(684,378,o),
(596,298,o),
(596,176,cs),
(596,69,o),
(670,-8,o),
(800,-8,cs)
);
},
{
closed = 1;
nodes = (
(775,115,o),
(756,132,o),
(756,167,cs),
(756,225,o),
(774,255,o),
(813,255,cs),
(840,255,o),
(859,238,o),
(859,203,cs),
(859,145,o),
(841,115,o),
(802,115,cs)
);
}
);
width = 1062;
}
);
metricRight = "=|";
unicode = 37;
userData = {
KernOnName = percent;
KernOnSpecialSpacing = {
L = "spaced-off";
};
};
}
{
color = 6;
glyphname = ampersand;
kernLeft = ampersand;
layers = (
{
background = {
shapes = (
{
closed = 1;
nodes = (
(313,-10,o),
(380,15,o),
(410,53,c),
(417,53,l),
(449,15,o),
(492,-10,o),
(552,-10,cs),
(587,-10,o),
(617,-7,o),
(639,-1,c),
(639,131,l),
(624,127,o),
(609,126,o),
(595,126,cs),
(555,126,o),
(532,152,o),
(517,170,c),
(536,199,o),
(554,235,o),
(563,265,c),
(617,264,l),
(635,393,l),
(456,393,l),
(457,361,l),
(451,332,o),
(445,304,o),
(438,282,c),
(372,376,l),
(456,424,o),
(496,494,o),
(496,566,cs),
(496,670,o),
(421,739,o),
(308,739,cs),
(193,739,o),
(106,670,o),
(106,546,cs),
(106,488,o),
(129,433,o),
(166,385,c),
(86,341,o),
(51,257,o),
(51,184,cs),
(51,68,o),
(127,-10,o),
(243,-10,cs)
);
},
{
closed = 1;
nodes = (
(250,135,o),
(224,160,o),
(224,212,cs),
(224,239,o),
(232,265,o),
(246,279,c),
(336,153,l),
(327,142,o),
(308,135,o),
(288,135,cs)
);
},
{
closed = 1;
nodes = (
(290,489,o),
(279,520,o),
(279,549,cs),
(279,575,o),
(287,597,o),
(310,597,cs),
(325,597,o),
(341,588,o),
(341,552,cs),
(341,522,o),
(328,486,o),
(307,464,c)
);
}
);
};
layerId = "E787E54A-EE3E-475A-BF02-8501A6DA5144";
shapes = (
{
closed = 1;
nodes = (
(600,-7,o),
(633,-2,o),
(649,5,c),
(649,151,l),
(634,147,o),
(619,145,o),
(605,145,cs),
(557,145,o),
(527,160,o),
(484,219,cs),
(330,432,ls),
(302,471,o),
(278,510,o),
(278,550,cs),
(278,575,o),
(286,597,o),
(310,597,cs),
(325,597,o),
(341,588,o),
(341,552,cs),
(341,517,o),
(323,474,o),
(296,454,c),
(354,367,l),
(451,415,o),
(496,489,o),
(496,566,cs),
(496,670,o),
(421,739,o),
(308,739,cs),
(193,739,o),
(106,670,o),
(106,546,cs),
(106,476,o),
(134,412,o),
(182,347,cs),
(356,109,ls),
(422,19,o),
(482,-7,o),
(568,-7,cs)
);
},
{
closed = 1;
nodes = (
(312,-10,o),
(384,19,o),
(415,63,c),
(334,164,l),
(331,147,o),
(307,135,o),
(281,135,cs),
(243,135,o),
(217,160,o),
(217,212,cs),
(217,245,o),
(229,276,o),
(249,286,c),
(175,393,l),
(84,352,o),
(44,262,o),
(44,184,cs),
(44,68,o),
(120,-10,o),
(236,-10,cs)
);
},
{
closed = 1;
nodes = (
(530,188,o),
(551,230,o),
(563,265,c),
(614,264,l),
(632,393,l),
(456,393,l),
(457,361,l),
(450,326,o),
(443,293,o),
(434,270,c),
(508,157,l)
);
}
);
width = 678;
},
{
background = {
shapes = (
{
closed = 1;
nodes = (
(267,-10,o),
(325,23,o),
(354,96,c),
(357,96,l),
(402,15,o),
(436,-7,o),
(474,-7,cs),
(482,-7,o),
(490,-6,o),
(495,-4,c),
(495,23,l),
(492,22,o),
(485,21,o),
(480,21,cs),
(442,21,o),
(417,46,o),
(369,132,c),
(386,193,o),
(399,279,o),
(402,353,c),
(473,350,l),
(478,376,l),
(371,376,l),
(373,360,l),
(372,301,o),
(364,229,o),
(351,165,c),
(221,399,l),
(286,450,o),
(334,535,o),
(334,615,cs),
(334,690,o),
(296,739,o),
(231,739,cs),
(169,739,o),
(123,689,o),
(123,599,cs),
(123,528,o),
(146,476,o),
(184,405,c),
(122,355,o),
(66,270,o),
(66,161,cs),
(66,58,o),
(120,-10,o),
(211,-10,cs)
);
},
{
closed = 1;
nodes = (
(145,19,o),
(99,65,o),
(99,163,cs),
(99,259,o),
(142,339,o),
(197,383,c),
(340,126,l),
(318,60,o),
(275,19,o),
(212,19,cs)
);
},
{
closed = 1;
nodes = (
(173,489,o),
(155,530,o),
(155,599,cs),
(155,666,o),
(179,711,o),
(231,711,cs),
(274,711,o),
(302,679,o),
(302,613,cs),
(302,540,o),
(260,466,o),
(207,422,c)
);
}
);
};
layerId = "5713303B-ED49-44A7-8230-B5CAE56DEB7E";
shapes = (
{
closed = 1;
nodes = (
(482,-7,o),
(490,-6,o),
(495,-4,c),
(495,25,l),
(492,24,o),
(485,23,o),
(480,23,cs),
(440,23,o),
(415,49,o),
(361,147,cs),
(218,405,ls),
(168,496,o),
(155,530,o),
(155,599,cs),
(155,666,o),
(179,711,o),
(231,711,cs),
(274,711,o),
(302,679,o),
(302,613,cs),
(302,538,o),
(257,461,o),
(202,418,c),
(216,395,l),
(284,445,o),
(334,533,o),
(334,615,cs),
(334,690,o),
(296,739,o),
(231,739,cs),
(169,739,o),
(123,689,o),
(123,599,cs),
(123,526,o),
(145,473,o),
(187,398,cs),
(343,119,ls),
(393,30,o),
(424,-7,o),
(474,-7,cs)
);
},
{
closed = 1;
nodes = (
(269,-10,o),
(330,26,o),
(358,106,c),
(343,135,l),
(322,64,o),
(278,19,o),
(212,19,cs),
(145,19,o),
(99,65,o),
(99,163,cs),
(99,261,o),
(144,343,o),
(201,386,c),
(188,408,l),
(125,359,o),
(66,272,o),
(66,161,cs),
(66,58,o),
(120,-10,o),
(211,-10,cs)
);
},
{
closed = 1;
nodes = (
(385,186,o),
(399,276,o),
(402,353,c),
(473,350,l),
(478,376,l),
(373,376,l),
(374,358,l),
(373,297,o),
(363,221,o),
(349,156,c),
(367,124,l)
);
}
);
width = 529;
},
{
background = {
shapes = (
{
closed = 1;
nodes = (
(726,-5,o),
(742,-1,o),
(752,3,c),
(752,44,l),
(742,39,o),
(728,35,o),
(711,35,cs),
(663,35,o),
(630,41,o),
(545,134,cs),
(317,382,ls),
(237,470,o),
(210,521,o),
(210,586,cs),
(210,656,o),
(261,705,o),
(338,705,cs),
(407,705,o),
(453,663,o),
(453,590,cs),
(453,517,o),
(404,463,o),
(281,405,c),
(304,383,l),
(428,442,o),
(490,507,o),
(490,592,cs),
(490,680,o),
(430,739,o),
(339,739,cs),
(243,739,o),
(172,677,o),
(172,582,cs),
(172,528,o),
(187,469,o),
(283,364,cs),
(515,110,ls),
(589,28,o),
(635,-5,o),
(706,-5,cs)
);
},
{
closed = 1;
nodes = (
(362,-10,o),
(453,38,o),
(512,139,c),
(482,157,l),
(435,73,o),
(360,23,o),
(252,23,cs),
(163,23,o),
(100,82,o),
(100,173,cs),
(100,261,o),
(160,323,o),
(286,376,c),
(265,402,l),
(138,347,o),
(62,274,o),
(62,172,cs),
(62,65,o),
(139,-10,o),
(250,-10,cs)
);
},
{
closed = 1;
nodes = (
(544,201,o),
(564,259,o),
(571,319,c),
(684,318,l),
(679,355,l),
(532,355,l),
(532,326,l),
(525,270,o),
(511,218,o),
(490,175,c),
(521,155,l)
);
}
);
};
layerId = master01;
shapes = (
{
closed = 1;
nodes = (
(721,-5,o),
(734,-3,o),
(744,0,c),
(744,41,l),
(735,37,o),
(724,35,o),
(711,35,cs),
(642,35,o),
(592,67,o),
(500,170,cs),
(331,359,ls),
(238,464,o),
(210,521,o),
(210,586,cs),
(210,656,o),
(261,705,o),
(338,705,cs),
(407,705,o),
(453,663,o),
(453,590,cs),
(453,517,o),
(404,463,o),
(281,405,c),
(304,383,l),
(428,442,o),
(490,507,o),
(490,592,cs),
(490,680,o),
(429,739,o),
(339,739,cs),
(243,739,o),
(172,677,o),
(172,582,cs),
(172,528,o),
(189,463,o),
(296,343,cs),
(471,146,ls),
(537,72,o),
(608,-5,o),
(706,-5,cs)
);
},
{
closed = 1;
nodes = (
(362,-10,o),
(453,38,o),
(512,139,c),
(482,157,l),
(435,73,o),
(360,23,o),
(252,23,cs),
(163,23,o),
(100,82,o),
(100,173,cs),
(100,261,o),
(160,323,o),
(286,376,c),
(265,402,l),
(138,347,o),
(62,274,o),
(62,172,cs),
(62,65,o),
(139,-10,o),
(250,-10,cs)
);
},
{
closed = 1;
nodes = (
(543,197,o),
(565,267,o),
(571,319,c),
(694,318,l),
(689,355,l),
(532,355,l),
(532,326,l),
(525,267,o),
(509,212,o),
(486,168,c),
(517,147,l)
);
}
);
userData = {
com.schriftgestaltung.hints = (
{
horizontal = 1;
options = 0;
origin = (
0,
4
);
stem = -2;
target = (
0,
4
);
type = Stem;
},
{
horizontal = 1;
options = 0;
place = (
0,
0
);
stem = -2;
type = Stem;
},
{
horizontal = 1;
options = 0;
origin = (
0,
22
);
stem = -2;
target = (
2,
5
);
type = Stem;
},
{
horizontal = 1;
options = 0;
origin = (
0,
4
);
stem = -2;
target = (
u,
p
);
type = BottomGhost;
},
{
horizontal = 0;
options = 0;
place = (
0,
0
);
stem = -2;
type = Stem;
},
{
horizontal = 0;
options = 0;
origin = (
2,
8
);
stem = -2;
target = (
0,
19
);
type = Stem;
},
{
horizontal = 0;
options = 0;
origin = (
0,
11
);
stem = -2;
target = (
0,
9
);
type = Stem;
},
{
horizontal = 0;
options = 0;
origin = (
0,
25
);
stem = -2;
target = (
2,
2
);
type = Stem;
}
);
};
width = 752;
},
{
background = {
shapes = (
{
closed = 1;
nodes = (
(-473,-10,o),
(-391,9,o),
(-332,64,c),
(-323,64,l),
(-263,10,o),
(-206,-8,o),
(-140,-8,cs),
(-118,-8,o),
(-95,-6,o),
(-71,-1,c),
(-65,147,l),
(-77,143,o),
(-89,141,o),
(-103,141,cs),
(-137,141,o),
(-172,157,o),
(-213,192,c),
(-195,216,o),
(-182,236,o),
(-170,256,c),
(-91,253,l),
(-72,396,l),
(-273,396,l),
(-276,365,l),
(-282,344,o),
(-296,318,o),
(-314,291,c),
(-384,368,l),
(-294,410,o),
(-244,478,o),
(-244,557,cs),
(-244,667,o),
(-330,739,o),
(-451,739,cs),
(-587,739,o),
(-685,659,o),
(-685,542,cs),
(-685,486,o),
(-665,431,o),
(-621,384,c),
(-703,351,o),
(-763,275,o),
(-763,187,cs),
(-763,65,o),
(-673,-10,o),
(-552,-10,cs)
);
},
{
closed = 1;
nodes = (
(-544,147,o),
(-572,173,o),
(-572,211,cs),
(-572,244,o),
(-556,267,o),
(-533,280,c),
(-431,170,l),
(-448,154,o),
(-474,147,o),
(-505,147,cs)
);
},
{
closed = 1;
nodes = (
(-488,480,o),
(-505,511,o),
(-505,537,cs),
(-505,568,o),
(-483,587,o),
(-455,587,cs),
(-426,587,o),
(-408,567,o),
(-408,538,cs),
(-408,506,o),
(-428,476,o),
(-460,454,c)
);
},
{
closed = 1;
nodes = (
(335,-10,o),
(423,19,o),
(468,63,c),
(477,63,l),
(537,10,o),
(594,-8,o),
(660,-8,cs),
(682,-8,o),
(705,-6,o),
(729,-1,c),
(736,148,l),
(722,143,o),
(709,141,o),
(696,141,cs),
(666,141,o),
(632,155,o),
(589,190,c),
(605,213,o),
(621,236,o),
(633,256,c),
(709,253,l),
(728,397,l),
(520,398,l),
(518,366,l),
(513,350,o),
(504,327,o),
(483,294,c),
(416,368,l),
(501,407,o),
(557,475,o),
(557,558,cs),
(557,667,o),
(469,739,o),
(349,739,cs),
(213,739,o),
(114,659,o),
(114,541,cs),
(114,482,o),
(137,429,o),
(178,385,c),
(98,351,o),
(37,276,o),
(37,187,cs),
(37,65,o),
(128,-10,o),
(247,-10,cs)
);
},
{
closed = 1;
nodes = (
(254,145,o),
(228,171,o),
(228,211,cs),
(228,239,o),
(244,266,o),
(267,280,c),
(369,170,l),
(353,155,o),
(323,145,o),
(293,145,cs)
);
},
{
closed = 1;
nodes = (
(313,479,o),
(295,510,o),
(295,536,cs),
(295,566,o),
(318,587,o),
(345,587,cs),
(374,587,o),
(392,565,o),
(392,538,cs),
(392,507,o),
(372,476,o),
(341,455,c)
);
}
);
};
layerId = "1EDCBF6C-9964-4A28-BC87-E86B534B8BE7";
shapes = (
{
closed = 1;
nodes = (
(682,-8,o),
(705,-6,o),
(729,-1,c),
(736,152,l),
(722,147,o),
(709,145,o),
(696,145,cs),
(662,145,o),
(617,156,o),
(571,205,cs),
(376,411,ls),
(318,472,o),
(295,496,o),
(295,538,cs),
(295,569,o),
(318,587,o),
(345,587,cs),
(374,587,o),
(392,568,o),
(392,538,cs),
(392,502,o),
(365,466,o),
(326,446,c),
(399,361,l),
(494,398,o),
(557,470,o),
(557,558,cs),
(557,667,o),
(469,739,o),
(349,739,cs),
(213,739,o),
(114,659,o),
(114,536,cs),
(114,480,o),
(133,423,o),
(210,342,cs),
(463,76,ls),
(525,11,o),
(589,-8,o),
(660,-8,cs)
);
},
{
closed = 1;
nodes = (
(358,-10,o),
(453,30,o),
(497,97,c),
(396,193,l),
(377,164,o),
(343,144,o),
(299,144,cs),
(256,144,o),
(228,171,o),
(228,211,cs),
(228,244,o),
(251,276,o),
(281,287,c),
(194,390,l),
(107,361,o),
(37,281,o),
(37,187,cs),
(37,65,o),
(128,-10,o),
(250,-10,cs)
);
},
{
closed = 1;
nodes = (
(602,196,o),
(625,230,o),
(641,256,c),
(713,253,l),
(698,398,l),
(520,398,l),
(518,366,l),
(512,346,o),
(498,315,o),
(464,265,c),
(576,166,l)
);
}
);
width = 721;
},
{
background = {
shapes = (
{
closed = 1;
nodes = (
(-166,-4,o),
(-155,-2,o),
(-148,0,c),
(-148,39,l),
(-158,36,o),
(-167,35,o),
(-179,35,cs),
(-233,35,o),
(-292,60,o),
(-384,159,cs),
(-571,362,ls),
(-693,494,o),
(-717,526,o),
(-717,583,cs),
(-717,656,o),
(-657,706,o),
(-576,706,cs),
(-506,706,o),
(-443,657,o),
(-443,585,cs),
(-443,506,o),
(-498,457,o),
(-629,405,c),
(-604,383,l),
(-465,437,o),
(-406,500,o),
(-406,582,cs),
(-406,673,o),
(-481,739,o),
(-577,739,cs),
(-682,739,o),
(-754,674,o),
(-754,584,cs),
(-754,519,o),
(-719,470,o),
(-619,360,cs),
(-408,130,ls),
(-316,29,o),
(-251,-4,o),
(-182,-4,cs)
);
},
{
closed = 1;
nodes = (
(-557,-10,o),
(-450,29,o),
(-387,124,c),
(-414,149,l),
(-462,74,o),
(-544,24,o),
(-653,24,cs),
(-751,24,o),
(-817,85,o),
(-817,172,cs),
(-817,259,o),
(-757,336,o),
(-620,377,c),
(-643,401,l),
(-776,360,o),
(-857,281,o),
(-857,174,cs),
(-857,65,o),
(-774,-10,o),
(-648,-10,cs)
);
},
{
closed = 1;
nodes = (
(-344,203,o),
(-323,259,o),
(-315,321,c),
(-197,319,l),
(-198,360,l),
(-354,360,l),
(-354,327,l),
(-364,270,o),
(-380,219,o),
(-403,167,c),
(-373,142,l)
);
},
{
closed = 1;
nodes = (
(729,-6,o),
(746,-4,o),
(759,0,c),
(759,43,l),
(751,39,o),
(734,36,o),
(711,36,cs),
(645,36,o),
(588,82,o),
(518,154,cs),
(349,326,ls),
(211,467,o),
(187,519,o),
(187,576,cs),
(187,653,o),
(244,706,o),
(328,706,cs),
(405,706,o),
(455,655,o),
(455,584,cs),
(455,507,o),
(407,452,o),
(266,401,c),
(288,378,l),
(434,430,o),
(493,497,o),
(493,583,cs),
(493,678,o),
(423,739,o),
(328,739,cs),
(219,739,o),
(149,666,o),
(149,577,cs),
(149,516,o),
(178,446,o),
(316,305,cs),
(488,130,ls),
(591,25,o),
(643,-6,o),
(717,-6,cs)
);
},
{
closed = 1;
nodes = (
(344,-10,o),
(452,29,o),
(513,126,c),
(488,151,l),
(439,67,o),
(352,24,o),
(245,24,cs),
(149,24,o),
(83,84,o),
(83,173,cs),
(83,263,o),
(137,330,o),
(280,377,c),
(257,401,l),
(129,360,o),
(43,281,o),
(43,173,cs),
(43,64,o),
(124,-10,o),
(247,-10,cs)
);
},
{
closed = 1;
nodes = (
(551,186,o),
(575,258,o),
(583,317,c),
(701,315,l),
(698,356,l),
(545,356,l),
(545,324,l),
(537,271,o),
(525,222,o),
(497,166,c),
(522,138,l)
);
}
);
};
layerId = "28A8A76A-23B4-40F5-83B9-DC51E48BF161";
shapes = (
{
closed = 1;
nodes = (
(732,-6,o),
(751,-3,o),
(759,1,c),
(759,43,l),
(751,39,o),
(734,36,o),
(711,36,cs),
(641,36,o),
(580,82,o),
(495,170,cs),
(364,305,ls),
(211,462,o),
(189,519,o),
(189,576,cs),
(189,653,o),
(244,706,o),
(328,706,cs),
(405,706,o),
(455,655,o),
(455,584,cs),
(455,507,o),
(407,452,o),
(266,401,c),
(288,378,l),
(434,430,o),
(493,497,o),
(493,583,cs),
(493,678,o),
(423,739,o),
(328,739,cs),
(219,739,o),
(150,666,o),
(150,578,cs),
(150,516,o),
(177,443,o),
(331,285,cs),
(474,138,ls),
(566,44,o),
(627,-6,o),
(712,-6,cs)
);
},
{
closed = 1;
nodes = (
(344,-10,o),
(452,29,o),
(513,126,c),
(488,151,l),
(439,67,o),
(352,24,o),
(245,24,cs),
(149,24,o),
(83,84,o),
(83,173,cs),
(83,263,o),
(137,330,o),
(280,377,c),
(257,401,l),
(129,360,o),
(43,281,o),
(43,173,cs),
(43,64,o),
(124,-10,o),
(247,-10,cs)
);
},
{
closed = 1;
nodes = (
(551,186,o),
(574,258,o),
(583,317,c),
(701,315,l),
(698,356,l),
(545,356,l),
(545,324,l),
(537,271,o),
(526,222,o),
(497,166,c),
(522,138,l)
);
}
);
width = 794;
},
{
background = {
shapes = (
{
closed = 1;
nodes = (
(342,-10,o),
(435,8,o),
(492,66,c),
(499,66,l),
(557,16,o),
(620,-12,o),
(693,-12,cs),
(724,-12,o),
(766,-7,o),
(792,5,c),
(792,158,l),
(778,154,o),
(764,152,o),
(749,152,cs),
(713,152,o),
(674,161,o),
(640,187,c),
(659,207,o),
(676,231,o),
(694,260,c),
(770,258,l),
(780,400,l),
(565,400,l),
(562,368,l),
(550,339,o),
(538,311,o),
(522,291,c),
(444,368,l),
(536,397,o),
(596,457,o),
(596,553,cs),
(596,663,o),
(495,739,o),
(352,739,cs),
(211,739,o),
(108,659,o),
(108,537,cs),
(108,480,o),
(132,438,o),
(182,384,c),
(87,354,o),
(24,275,o),
(24,183,cs),
(24,67,o),
(120,-10,o),
(264,-10,cs)
);
},
{
closed = 1;
nodes = (
(274,155,o),
(244,184,o),
(244,217,cs),
(244,242,o),
(256,266,o),
(274,279,c),
(381,177,l),
(369,164,o),
(349,155,o),
(313,155,cs)
);
},
{
closed = 1;
nodes = (
(329,480,o),
(314,502,o),
(314,529,cs),
(314,560,o),
(332,579,o),
(362,579,cs),
(393,579,o),
(414,561,o),
(414,531,cs),
(414,500,o),
(391,472,o),
(355,452,c)
);
}
);
};
layerId = "D2144554-01B8-4B9B-B16A-E0E5B5794DFC";
shapes = (
{
closed = 1;
nodes = (
(724,-12,o),
(766,-7,o),
(792,5,c),
(792,158,l),
(778,154,o),
(764,152,o),
(749,152,cs),
(708,152,o),
(663,164,o),
(590,232,cs),
(373,433,ls),
(333,470,o),
(314,497,o),
(314,529,cs),
(314,560,o),
(332,579,o),
(362,579,cs),
(393,579,o),
(414,561,o),
(414,531,cs),
(414,495,o),
(383,463,o),
(337,443,c),
(427,363,l),
(528,390,o),
(596,451,o),
(596,553,cs),
(596,663,o),
(495,739,o),
(352,739,cs),
(211,739,o),
(108,659,o),
(108,536,cs),
(108,454,o),
(145,394,o),
(262,286,cs),
(471,93,ls),
(549,21,o),
(615,-12,o),
(693,-12,cs)
);
},
{
closed = 1;
nodes = (
(347,-10,o),
(455,10,o),
(509,77,c),
(388,186,l),
(377,168,o),
(357,155,o),
(313,155,cs),
(274,155,o),
(244,184,o),
(244,217,cs),
(244,248,o),
(262,277,o),
(287,286,c),
(199,389,l),
(95,363,o),
(24,280,o),
(24,183,cs),
(24,67,o),
(120,-10,o),
(264,-10,cs)
);
},
{
closed = 1;
nodes = (
(653,199,o),
(673,226,o),
(694,260,c),
(770,258,l),
(780,400,l),
(565,400,l),
(562,368,l),
(548,334,o),
(534,301,o),
(513,281,c),
(630,177,l)
);
}
);
width = 822;
},
{
background = {
shapes = (
{
closed = 1;
nodes = (
(222,-7,o),
(284,29,o),
(321,103,c),
(308,134,l),
(284,67,o),
(233,23,o),
(172,23,cs),
(111,23,o),
(73,59,o),
(76,132,cs),
(79,226,o),
(137,334,o),
(223,387,c),
(347,0,l),
(379,0,l),
(333,141,l),
(333,119,l),
(363,175,o),
(395,264,o),
(411,342,c),
(481,342,l),
(486,369,l),
(390,369,l),
(377,302,o),
(350,216,o),
(326,162,c),
(247,399,l),
(248,402,l),
(325,449,o),
(399,546,o),
(403,640,cs),
(405,700,o),
(376,739,o),
(318,739,cs),
(236,739,o),
(192,653,o),
(189,555,cs),
(187,502,o),
(200,454,o),
(215,399,c),
(220,415,l),
(123,357,o),
(47,244,o),
(43,133,cs),
(40,49,o),
(88,-6,o),
(168,-7,cs)
);
},
{
closed = 1;
nodes = (
(226,472,o),
(216,511,o),
(218,556,cs),
(220,626,o),
(249,711,o),
(314,711,cs),
(352,711,o),
(376,689,o),
(374,639,cs),
(371,559,o),
(311,472,o),
(241,425,c),
(238,425,l)
);
}
);
};
guides = (
{
pos = (384,376);
},
{
pos = (413,353);
}
);
layerId = "23BA42C1-D468-4A44-9BE5-E18AE60B7926";
shapes = (
{
closed = 1;
nodes = (
(437,-4,o),
(443,-4,o),
(449,-3,c),
(455,26,l),
(447,24,o),
(441,24,o),
(435,24,cs),
(386,24,o),
(358,57,o),
(325,159,cs),
(258,367,ls),
(221,481,o),
(221,514,o),
(221,571,cs),
(221,655,o),
(258,711,o),
(314,711,cs),
(350,711,o),
(374,687,o),
(374,635,cs),
(374,562,o),
(312,476,o),
(237,424,c),
(245,400,l),
(325,453,o),
(403,548,o),
(403,636,cs),
(403,703,o),
(370,739,o),
(318,739,cs),
(231,739,o),
(192,646,o),
(192,563,cs),
(192,497,o),
(199,465,o),
(238,339,cs),
(295,157,ls),
(337,24,o),
(379,-4,o),
(432,-4,cs)
);
},
{
closed = 1;
nodes = (
(233,-7,o),
(294,34,o),
(325,112,c),
(309,137,l),
(286,68,o),
(235,22,o),
(171,22,cs),
(114,22,o),
(76,58,o),
(76,134,cs),
(76,218,o),
(133,319,o),
(229,388,c),
(217,411,l),
(121,342,o),
(45,237,o),
(45,134,cs),
(45,47,o),
(94,-7,o),
(165,-7,cs)
);
},
{
closed = 1;
nodes = (
(361,176,o),
(394,275,o),
(413,352,c),
(485,350,l),
(495,376,l),
(388,376,l),
(387,369,l),
(375,299,o),
(343,209,o),
(316,141,c),
(328,113,l)
);
}
);
width = 537;
},
{
background = {
shapes = (
{
closed = 1;
nodes = (
(-153,0,l),
(-337,382,ls),
(-377,465,o),
(-392,506,o),
(-391,543,cs),
(-390,575,o),
(-376,596,o),
(-351,596,cs),
(-334,596,o),
(-324,581,o),
(-325,559,cs),
(-326,518,o),
(-350,482,o),
(-393,456,c),
(-350,370,l),
(-248,394,o),
(-178,475,o),
(-175,567,cs),
(-172,667,o),
(-234,739,o),
(-341,739,cs),
(-466,739,o),
(-543,648,o),
(-546,539,cs),
(-548,486,o),
(-537,441,o),
(-473,302,cs),
(-334,0,l)
);
},
{
closed = 1;
nodes = (
(-398,144,o),
(-414,132,o),
(-445,132,cs),
(-479,132,o),
(-501,156,o),
(-500,198,cs),
(-499,241,o),
(-472,286,o),
(-445,301,c),
(-493,416,l),
(-599,372,o),
(-674,271,o),
(-677,173,cs),
(-681,63,o),
(-612,-10,o),
(-505,-10,cs),
(-444,-10,o),
(-373,5,o),
(-332,64,c),
(-384,164,l)
);
},
{
closed = 1;
nodes = (
(-205,182,o),
(-180,219,o),
(-161,261,c),
(-109,261,l),
(-81,393,l),
(-241,393,l),
(-249,353,o),
(-266,309,o),
(-294,263,c),
(-237,144,l)
);
},
{
closed = 1;
nodes = (
(514,-7,o),
(543,-2,o),
(562,5,c),
(592,151,l),
(576,147,o),
(561,145,o),
(547,145,cs),
(499,145,o),
(469,160,o),
(430,243,cs),
(333,448,ls),
(314,487,o),
(309,515,o),
(309,540,cs),
(309,573,o),
(323,596,o),
(348,596,cs),
(365,596,o),
(376,583,o),
(375,558,cs),
(374,521,o),
(352,484,o),
(309,458,c),
(350,370,l),
(453,402,o),
(521,485,o),
(521,581,cs),
(521,676,o),
(455,739,o),
(357,739,cs),
(239,739,o),
(159,659,o),
(156,542,cs),
(154,486,o),
(164,442,o),
(227,302,cs),
(289,165,ls),
(355,19,o),
(408,-7,o),
(486,-7,cs)
);
},
{
closed = 1;
nodes = (
(272,-10,o),
(343,17,o),
(378,66,c),
(316,164,l),
(302,144,o),
(286,132,o),
(255,132,cs),
(221,132,o),
(199,156,o),
(200,198,cs),
(201,241,o),
(228,286,o),
(255,301,c),
(207,416,l),
(103,372,o),
(30,271,o),
(27,173,cs),
(23,63,o),
(90,-10,o),
(195,-10,cs)
);
},
{
closed = 1;
nodes = (
(488,180,o),
(520,223,o),
(539,265,c),
(587,263,l),
(619,393,l),
(458,393,l),
(450,357,l),
(440,324,o),
(423,289,o),
(401,253,c),
(456,142,l)
);
}
);
};
guides = (
{
angle = 180;
pos = (552,265);
},
{
pos = (621,393);
}
);
layerId = "2D4E69BA-A319-45D0-84B7-5297BCF4B7A0";
shapes = (
{
closed = 1;
nodes = (
(514,-7,o),
(543,-2,o),
(562,5,c),
(592,151,l),
(576,147,o),
(561,145,o),
(547,145,cs),
(499,145,o),
(469,160,o),
(430,243,cs),
(333,448,ls),
(314,487,o),
(309,515,o),
(309,540,cs),
(309,573,o),
(323,596,o),
(348,596,cs),
(365,596,o),
(376,583,o),
(375,558,cs),
(374,521,o),
(352,484,o),
(309,458,c),
(350,370,l),
(453,402,o),
(521,485,o),
(521,581,cs),
(521,676,o),
(455,739,o),
(357,739,cs),
(239,739,o),
(159,659,o),
(156,542,cs),
(154,483,o),
(168,410,o),
(217,302,cs),
(279,165,ls),
(332,48,o),
(388,-7,o),
(486,-7,cs)
);
},
{
closed = 1;
nodes = (
(272,-10,o),
(343,17,o),
(378,66,c),
(316,164,l),
(302,144,o),
(286,132,o),
(255,132,cs),
(221,132,o),
(199,156,o),
(200,198,cs),
(201,241,o),
(228,286,o),
(255,301,c),
(207,416,l),
(103,372,o),
(30,271,o),
(27,173,cs),
(23,63,o),
(90,-10,o),
(195,-10,cs)
);
},
{
closed = 1;
nodes = (
(488,180,o),
(520,223,o),
(539,265,c),
(587,263,l),
(619,393,l),
(458,393,l),
(450,357,l),
(440,324,o),
(423,289,o),
(401,253,c),
(456,142,l)
);
}
);
width = 646;
},
{
background = {
shapes = (
{
closed = 1;
nodes = (
(675,-6,o),
(688,-4,o),
(699,0,c),
(708,38,l),
(697,33,o),
(683,31,o),
(669,31,cs),
(602,31,o),
(560,65,o),
(490,170,cs),
(360,366,ls),
(280,487,o),
(273,532,o),
(273,571,cs),
(273,655,o),
(326,706,o),
(401,706,cs),
(464,706,o),
(506,664,o),
(506,600,cs),
(506,511,o),
(440,458,o),
(313,407,c),
(330,381,l),
(469,435,o),
(542,505,o),
(542,601,cs),
(542,684,o),
(485,739,o),
(401,739,cs),
(306,739,o),
(237,670,o),
(237,572,cs),
(237,519,o),
(251,464,o),
(341,330,cs),
(464,146,ls),
(537,37,o),
(586,-6,o),
(660,-6,cs)
);
},
{
closed = 1;
nodes = (
(359,-9,o),
(450,27,o),
(510,112,c),
(486,135,l),
(435,63,o),
(361,24,o),
(267,24,cs),
(176,24,o),
(114,72,o),
(114,166,cs),
(114,252,o),
(164,320,o),
(324,382,c),
(308,411,l),
(163,356,o),
(77,280,o),
(77,165,cs),
(77,58,o),
(151,-9,o),
(263,-9,cs)
);
},
{
closed = 1;
nodes = (
(557,175,o),
(593,259,o),
(609,320,c),
(726,318,l),
(729,355,l),
(579,355,l),
(574,326,l),
(556,256,o),
(524,189,o),
(489,138,c),
(514,118,l)
);
}
);
};
layerId = "095FE76F-1953-440B-9108-AA0678D151F9";
shapes = (
{
closed = 1;
nodes = (
(655,-6,o),
(669,-4,o),
(680,0,c),
(689,38,l),
(678,33,o),
(663,31,o),
(649,31,cs),
(582,31,o),
(538,65,o),
(467,170,cs),
(334,366,ls),
(252,487,o),
(244,532,o),
(244,572,cs),
(244,655,o),
(298,706,o),
(374,706,cs),
(438,706,o),
(482,664,o),
(482,599,cs),
(482,511,o),
(415,458,o),
(286,407,c),
(303,381,l),
(444,435,o),
(518,505,o),
(518,600,cs),
(518,684,o),
(459,739,o),
(374,739,cs),
(278,739,o),
(208,670,o),
(208,573,cs),
(208,522,o),
(221,467,o),
(315,330,cs),
(441,146,ls),
(514,40,o),
(563,-6,o),
(640,-6,cs)
);
},
{
closed = 1;
nodes = (
(329,-9,o),
(420,27,o),
(480,112,c),
(456,135,l),
(405,63,o),
(331,24,o),
(237,24,cs),
(146,24,o),
(84,72,o),
(84,166,cs),
(84,252,o),
(134,320,o),
(294,382,c),
(278,411,l),
(133,356,o),
(47,280,o),
(47,165,cs),
(47,58,o),
(121,-9,o),
(233,-9,cs)
);
},
{
closed = 1;
nodes = (
(527,175,o),
(563,259,o),
(579,320,c),
(696,318,l),
(699,355,l),
(549,355,l),
(544,326,l),
(526,256,o),
(494,189,o),
(459,138,c),
(484,118,l)
);
}
);
width = 743;
},
{
background = {
shapes = (
{
closed = 1;
nodes = (
(600,-8,o),
(623,-6,o),
(648,-1,c),
(687,152,l),
(672,147,o),
(659,145,o),
(646,145,cs),
(612,145,o),
(569,156,o),
(514,232,cs),
(363,440,ls),
(338,474,o),
(323,507,o),
(323,536,cs),
(323,566,o),
(343,587,o),
(376,587,cs),
(402,587,o),
(419,569,o),
(419,543,cs),
(419,506,o),
(387,473,o),
(333,446,c),
(398,355,l),
(513,400,o),
(573,473,o),
(573,562,cs),
(573,664,o),
(504,739,o),
(382,739,cs),
(248,739,o),
(144,652,o),
(144,525,cs),
(144,469,o),
(158,408,o),
(235,302,cs),
(385,96,ls),
(447,11,o),
(507,-8,o),
(578,-8,cs)
);
},
{
closed = 1;
nodes = (
(339,-10,o),
(431,34,o),
(473,111,c),
(372,186,l),
(346,156,o),
(315,143,o),
(275,143,cs),
(237,143,o),
(208,168,o),
(208,212,cs),
(208,256,o),
(241,283,o),
(286,297,c),
(210,399,l),
(101,367,o),
(24,288,o),
(24,178,cs),
(24,60,o),
(108,-10,o),
(232,-10,cs)
);
},
{
closed = 1;
nodes = (
(566,179,o),
(599,220,o),
(622,256,c),
(698,253,l),
(693,398,l),
(525,398,l),
(521,366,l),
(501,325,o),
(476,293,o),
(441,245,c),
(528,143,l)
);
}
);
};
layerId = "63AAE8D6-1DFF-4DD4-BD9A-49272FE52904";
shapes = (
{
closed = 1;
nodes = (
(605,-8,o),
(627,-6,o),
(652,-1,c),
(691,152,l),
(677,148,o),
(658,145,o),
(639,145,cs),
(592,145,o),
(568,162,o),
(517,232,cs),
(364,440,ls),
(338,475,o),
(324,509,o),
(324,537,cs),
(324,567,o),
(344,589,o),
(376,589,cs),
(403,589,o),
(421,570,o),
(421,543,cs),
(421,506,o),
(389,473,o),
(334,446,c),
(399,355,l),
(515,400,o),
(575,471,o),
(575,560,cs),
(575,663,o),
(499,739,o),
(375,739,cs),
(238,739,o),
(145,653,o),
(145,524,cs),
(145,469,o),
(159,408,o),
(237,302,cs),
(374,115,ls),
(440,25,o),
(491,-8,o),
(576,-8,cs)
);
},
{
closed = 1;
nodes = (
(338,-10,o),
(431,34,o),
(474,115,c),
(370,195,l),
(345,157,o),
(314,142,o),
(276,142,cs),
(234,142,o),
(206,167,o),
(206,209,cs),
(206,256,o),
(239,283,o),
(284,297,c),
(208,399,l),
(99,367,o),
(22,288,o),
(22,178,cs),
(22,60,o),
(106,-10,o),
(230,-10,cs)
);
},
{
closed = 1;
nodes = (
(564,179,o),
(597,220,o),
(620,256,c),
(696,253,l),
(691,398,l),
(523,398,l),
(519,366,l),
(499,325,o),
(474,293,o),
(439,245,c),
(526,143,l)
);
}
);
width = 701;
},
{
background = {
shapes = (
{
closed = 1;
nodes = (
(665,-9,o),
(681,-8,o),
(686,-6,c),
(695,36,l),
(689,34,o),
(676,32,o),
(663,32,cs),
(585,32,o),
(538,78,o),
(457,183,cs),
(400,257,ls),
(256,444,o),
(237,514,o),
(237,567,cs),
(237,645,o),
(297,712,o),
(387,712,cs),
(462,712,o),
(507,667,o),
(507,604,cs),
(507,500,o),
(410,452,o),
(286,411,c),
(302,385,l),
(441,428,o),
(545,489,o),
(545,607,cs),
(545,689,o),
(483,745,o),
(389,745,cs),
(283,745,o),
(199,671,o),
(199,567,cs),
(199,507,o),
(224,423,o),
(367,237,cs),
(430,155,ls),
(510,51,o),
(562,-9,o),
(653,-9,cs)
);
},
{
closed = 1;
nodes = (
(306,-9,o),
(400,23,o),
(470,103,c),
(449,131,l),
(393,59,o),
(314,25,o),
(219,25,cs),
(131,25,o),
(68,72,o),
(68,164,cs),
(68,268,o),
(142,338,o),
(275,380,c),
(258,407,l),
(131,366,o),
(29,287,o),
(29,161,cs),
(29,52,o),
(107,-9,o),
(216,-9,cs)
);
},
{
closed = 1;
nodes = (
(527,175,o),
(568,251,o),
(590,318,c),
(706,315,l),
(707,356,l),
(557,356,l),
(553,324,l),
(532,265,o),
(510,214,o),
(465,151,c),
(486,124,l)
);
},
{
closed = 1;
nodes = (
(1472,-7,o),
(1492,-6,o),
(1498,-2,c),
(1505,40,l),
(1499,38,o),
(1484,35,o),
(1467,35,cs),
(1394,35,o),
(1342,77,o),
(1261,175,cs),
(1202,246,ls),
(1063,414,o),
(1027,499,o),
(1027,565,cs),
(1027,649,o),
(1080,706,o),
(1172,706,cs),
(1249,706,o),
(1296,652,o),
(1296,587,cs),
(1296,477,o),
(1203,435,o),
(1084,395,c),
(1101,370,l),
(1234,410,o),
(1334,469,o),
(1334,591,cs),
(1334,674,o),
(1270,739,o),
(1173,739,cs),
(1064,739,o),
(989,668,o),
(989,564,cs),
(989,503,o),
(1016,410,o),
(1170,225,cs),
(1235,147,ls),
(1317,49,o),
(1373,-7,o),
(1458,-7,cs)
);
},
{
closed = 1;
nodes = (
(1109,-10,o),
(1207,21,o),
(1276,104,c),
(1255,132,l),
(1200,58,o),
(1117,24,o),
(1020,26,cs),
(932,27,o),
(868,74,o),
(868,164,cs),
(868,267,o),
(946,332,o),
(1074,369,c),
(1057,396,l),
(930,358,o),
(829,283,o),
(829,162,cs),
(829,55,o),
(908,-7,o),
(1017,-8,cs)
);
},
{
closed = 1;
nodes = (
(1331,175,o),
(1372,251,o),
(1394,318,c),
(1506,315,l),
(1507,356,l),
(1361,356,l),
(1357,324,l),
(1336,265,o),
(1314,214,o),
(1269,151,c),
(1290,124,l)
);
}
);
};
layerId = "C17B1F32-8075-45B4-AA59-7DAFF0D7E404";
shapes = (
{
closed = 1;
nodes = (
(672,-5,o),
(690,-4,o),
(696,0,c),
(703,39,l),
(697,37,o),
(682,34,o),
(665,34,cs),
(593,34,o),
(540,76,o),
(460,174,cs),
(402,245,ls),
(263,415,o),
(229,500,o),
(229,564,cs),
(229,649,o),
(283,707,o),
(376,707,cs),
(449,707,o),
(498,660,o),
(498,589,cs),
(498,483,o),
(402,441,o),
(281,401,c),
(298,375,l),
(432,415,o),
(535,474,o),
(535,589,cs),
(535,680,o),
(470,739,o),
(375,739,cs),
(267,739,o),
(192,668,o),
(192,563,cs),
(192,504,o),
(219,410,o),
(370,225,cs),
(428,154,ls),
(503,63,o),
(564,-5,o),
(656,-5,cs)
);
},
{
closed = 1;
nodes = (
(323,-9,o),
(416,28,o),
(478,105,c),
(455,130,l),
(408,64,o),
(328,25,o),
(224,25,cs),
(134,25,o),
(68,75,o),
(68,169,cs),
(68,271,o),
(144,334,o),
(269,370,c),
(252,397,l),
(127,360,o),
(29,287,o),
(29,168,cs),
(29,55,o),
(112,-9,o),
(226,-9,cs)
);
},
{
closed = 1;
nodes = (
(533,176,o),
(572,248,o),
(594,315,c),
(706,313,l),
(707,354,l),
(560,354,l),
(556,322,l),
(536,264,o),
(513,211,o),
(469,149,c),
(493,123,l)
);
}
);
width = 785;
},
{
layerId = "377EF8AC-8B0D-46C2-96BB-3B5B69A8F571";
shapes = (
{
closed = 1;
nodes = (
(651,-12,o),
(695,-7,o),
(723,5,c),
(755,158,l),
(740,154,o),
(726,152,o),
(711,152,cs),
(670,152,o),
(627,164,o),
(568,232,cs),
(393,433,ls),
(366,464,o),
(352,489,o),
(352,519,cs),
(352,555,o),
(376,579,o),
(412,579,cs),
(438,579,o),
(456,561,o),
(456,534,cs),
(456,495,o),
(415,465,o),
(359,443,c),
(432,353,l),
(562,391,o),
(637,462,o),
(637,561,cs),
(637,662,o),
(560,739,o),
(425,739,cs),
(257,739,o),
(152,644,o),
(152,506,cs),
(152,438,o),
(178,372,o),
(273,263,cs),
(401,116,ls),
(484,21,o),
(543,-12,o),
(621,-12,cs)
);
},
{
closed = 1;
nodes = (
(315,-10,o),
(408,26,o),
(460,79,c),
(361,185,l),
(344,166,o),
(315,154,o),
(283,154,cs),
(249,154,o),
(226,177,o),
(226,211,cs),
(226,247,o),
(250,273,o),
(285,290,c),
(210,391,l),
(88,359,o),
(7,277,o),
(7,170,cs),
(7,59,o),
(89,-10,o),
(210,-10,cs)
);
},
{
closed = 1;
nodes = (
(619,199,o),
(645,228,o),
(671,258,c),
(754,258,l),
(763,400,l),
(578,400,l),
(569,368,l),
(543,328,o),
(519,294,o),
(502,281,c),
(588,175,l)
);
}
);
width = 809;
}
);
unicode = 38;
userData = {
KernOnName = ampersand;
KernOnSpecialSpacing = {
L = symbols;
R = symbols;
};
};
}
{
color = 6;
glyphname = quotesingle;
kernLeft = quotedbl;
kernRight = quotedbl;
layers = (
{
background = {
shapes = (
{
closed = 1;
nodes = (
(184,554,l),
(184,729,l),
(20,729,l),
(20,554,l),
(64,354,l),
(139,354,l)
);
}
);
};
layerId = "E787E54A-EE3E-475A-BF02-8501A6DA5144";
shapes = (
{
closed = 1;
nodes = (
(184,622,l),
(184,729,l),
(20,729,l),
(20,622,l),
(64,410,l),
(139,410,l)
);
}
);
width = 204;
},
{
background = {
shapes = (
{
closed = 1;
nodes = (
(101,605,l),
(101,729,l),
(73,729,l),
(73,605,l),
(77,452,l),
(97,452,l)
);
}
);
};
layerId = "5713303B-ED49-44A7-8230-B5CAE56DEB7E";
shapes = (
{
closed = 1;
nodes = (
(101,624,l),
(101,729,l),
(73,729,l),
(73,624,l),
(77,493,l),
(97,493,l)
);
}
);
width = 173;
},
{
layerId = master01;
shapes = (
{
closed = 1;
nodes = (
(98,623,l),
(98,729,l),
(65,729,l),
(65,623,l),
(72,492,l),
(92,492,l)
);
}
);
userData = {
com.schriftgestaltung.Glyphs.glyph.leftMetricsKey = quotedbl;
com.schriftgestaltung.Glyphs.glyph.rightMetricsKey = quotedbl;
};
width = 163;
},
{
layerId = "1EDCBF6C-9964-4A28-BC87-E86B534B8BE7";
shapes = (
{
closed = 1;
nodes = (
(235,608,l),
(235,729,l),
(65,729,l),
(65,608,l),
(108,410,l),
(191,410,l)
);
}
);
userData = {
com.schriftgestaltung.Glyphs.glyph.leftMetricsKey = quotedbl;
com.schriftgestaltung.Glyphs.glyph.rightMetricsKey = quotedbl;
};
width = 300;
},
{
layerId = "28A8A76A-23B4-40F5-83B9-DC51E48BF161";
shapes = (
{
closed = 1;
nodes = (
(103,623,l),
(103,729,l),
(70,729,l),
(70,623,l),
(77,492,l),
(97,492,l)
);
}
);
width = 173;
},
{
layerId = "D2144554-01B8-4B9B-B16A-E0E5B5794DFC";
shapes = (
{
closed = 1;
nodes = (
(248,600,l),
(248,729,l),
(70,729,l),
(70,600,l),
(115,410,l),
(201,410,l)
);
}
);
width = 318;
},
{
layerId = "23BA42C1-D468-4A44-9BE5-E18AE60B7926";
shapes = (
{
closed = 1;
nodes = (
(178,624,l),
(199,729,l),
(171,729,l),
(150,624,l),
(127,493,l),
(147,493,l)
);
}
);
width = 174;
},
{
layerId = "2D4E69BA-A319-45D0-84B7-5297BCF4B7A0";
shapes = (
{
closed = 1;
nodes = (
(257,622,l),
(279,729,l),
(115,729,l),
(93,622,l),
(93,410,l),
(168,410,l)
);
}
);
width = 204;
},
{
layerId = "095FE76F-1953-440B-9108-AA0678D151F9";
shapes = (
{
closed = 1;
nodes = (
(173,623,l),
(195,729,l),
(162,729,l),
(140,623,l),
(119,492,l),
(139,492,l)
);
}
);
width = 163;
},
{
layerId = "63AAE8D6-1DFF-4DD4-BD9A-49272FE52904";
shapes = (
{
closed = 1;
nodes = (
(305,608,l),
(330,729,l),
(160,729,l),
(135,608,l),
(137,410,l),
(220,410,l)
);
}
);
width = 300;
},
{
layerId = "C17B1F32-8075-45B4-AA59-7DAFF0D7E404";
shapes = (
{
closed = 1;
nodes = (
(178,623,l),
(200,729,l),
(167,729,l),
(145,623,l),
(124,492,l),
(144,492,l)
);
}
);
width = 173;
},
{
layerId = "377EF8AC-8B0D-46C2-96BB-3B5B69A8F571";
shapes = (
{
closed = 1;
nodes = (
(316,600,l),
(343,729,l),
(165,729,l),
(138,600,l),
(144,410,l),
(230,410,l)
);
}
);
width = 318;
}
);
metricLeft = quotedbl;
metricRight = quotedbl;
unicode = 39;
userData = {
KernOnName = quotesingle;
KernOnSpecialSpacing = {
L = quotes;
R = quotes;
};
};
}
{
color = 6;
glyphname = parenleft;
kernRight = parenleft;
layers = (
{
layerId = "E787E54A-EE3E-475A-BF02-8501A6DA5144";
shapes = (
{
closed = 1;
nodes = (
(350,-167,l),
(265,-77,o),
(195,120,o),
(195,313,cs),
(195,512,o),
(267,701,o),
(350,793,c),
(196,793,l),
(100,700,o),
(30,508,o),
(30,313,cs),
(30,117,o),
(100,-75,o),
(196,-167,c)
);
}
);
width = 366;
},
{
layerId = "5713303B-ED49-44A7-8230-B5CAE56DEB7E";
shapes = (
{
closed = 1;
nodes = (
(342,-167,l),
(230,-67,o),
(155,113,o),
(155,313,cs),
(155,501,o),
(222,686,o),
(342,793,c),
(310,793,l),
(192,685,o),
(125,500,o),
(125,313,cs),
(125,126,o),
(192,-59,o),
(310,-167,c)
);
}
);
width = 367;
},
{
layerId = master01;
shapes = (
{
closed = 1;
nodes = (
(278,-167,l),
(168,-67,o),
(93,115,o),
(93,313,cs),
(93,499,o),
(160,686,o),
(278,793,c),
(241,793,l),
(123,685,o),
(56,500,o),
(56,313,cs),
(56,126,o),
(123,-59,o),
(241,-167,c)
);
}
);
userData = {
com.schriftgestaltung.hints = (
{
horizontal = 0;
options = 0;
place = (
0,
0
);
stem = -2;
type = Stem;
}
);
};
width = 308;
},
{
layerId = "1EDCBF6C-9964-4A28-BC87-E86B534B8BE7";
shapes = (
{
closed = 1;
nodes = (
(377,-167,l),
(286,-58,o),
(225,130,o),
(225,313,cs),
(225,496,o),
(286,684,o),
(377,793,c),
(215,793,l),
(108,689,o),
(40,497,o),
(40,313,cs),
(40,129,o),
(108,-63,o),
(215,-167,c)
);
}
);
width = 407;
},
{
layerId = "28A8A76A-23B4-40F5-83B9-DC51E48BF161";
shapes = (
{
closed = 1;
nodes = (
(280,-167,l),
(170,-67,o),
(95,115,o),
(95,313,cs),
(95,499,o),
(162,686,o),
(280,793,c),
(243,793,l),
(125,685,o),
(58,500,o),
(58,313,cs),
(58,126,o),
(125,-59,o),
(243,-167,c)
);
}
);
width = 294;
},
{
layerId = "D2144554-01B8-4B9B-B16A-E0E5B5794DFC";
shapes = (
{
closed = 1;
nodes = (
(392,-167,l),
(301,-58,o),
(240,133,o),
(240,313,cs),
(240,493,o),
(301,684,o),
(392,793,c),
(221,793,l),
(111,695,o),
(38,503,o),
(38,313,cs),
(38,123,o),
(111,-69,o),
(221,-167,c)
);
}
);
width = 392;
},
{
layerId = "23BA42C1-D468-4A44-9BE5-E18AE60B7926";
shapes = (
{
closed = 1;
nodes = (
(251,-167,l),
(182,-91,o),
(144,32,o),
(149,177,cs),
(157,411,o),
(282,664,o),
(452,793,c),
(418,793,l),
(249,662,o),
(127,410,o),
(119,176,cs),
(114,41,o),
(150,-86,o),
(221,-167,c)
);
}
);
width = 366;
},
{
layerId = "2D4E69BA-A319-45D0-84B7-5297BCF4B7A0";
shapes = (
{
closed = 1;
nodes = (
(269,-167,l),
(221,-100,o),
(194,25,o),
(199,162,cs),
(207,390,o),
(325,661,o),
(471,793,c),
(308,793,l),
(159,663,o),
(44,398,o),
(36,174,cs),
(31,30,o),
(65,-102,o),
(127,-167,c)
);
}
);
width = 379;
},
{
layerId = "095FE76F-1953-440B-9108-AA0678D151F9";
shapes = (
{
closed = 1;
nodes = (
(188,-167,l),
(118,-85,o),
(84,45,o),
(89,187,cs),
(97,414,o),
(219,664,o),
(389,793,c),
(348,793,l),
(186,667,o),
(60,422,o),
(52,189,cs),
(47,47,o),
(81,-84,o),
(154,-167,c)
);
}
);
width = 308;
},
{
layerId = "63AAE8D6-1DFF-4DD4-BD9A-49272FE52904";
shapes = (
{
closed = 1;
nodes = (
(288,-167,l),
(242,-90,o),
(215,46,o),
(219,171,cs),
(227,407,o),
(328,643,o),
(490,793,c),
(307,793,l),
(153,663,o),
(43,418,o),
(36,193,cs),
(30,48,o),
(67,-96,o),
(126,-167,c)
);
}
);
width = 412;
},
{
layerId = "C17B1F32-8075-45B4-AA59-7DAFF0D7E404";
shapes = (
{
closed = 1;
nodes = (
(190,-167,l),
(120,-85,o),
(86,45,o),
(91,187,cs),
(99,414,o),
(221,664,o),
(391,793,c),
(350,793,l),
(188,667,o),
(62,422,o),
(54,189,cs),
(49,47,o),
(83,-84,o),
(156,-167,c)
);
}
);
width = 294;
},
{
layerId = "377EF8AC-8B0D-46C2-96BB-3B5B69A8F571";
shapes = (
{
closed = 1;
nodes = (
(299,-167,l),
(253,-90,o),
(225,46,o),
(230,171,cs),
(238,407,o),
(339,643,o),
(501,793,c),
(305,793,l),
(151,663,o),
(41,418,o),
(34,193,cs),
(29,48,o),
(65,-96,o),
(124,-167,c)
);
}
);
width = 393;
}
);
unicode = 40;
userData = {
KernOnName = parenleft;
KernOnSpecialSpacing = {
R = parenthesis;
};
};
}
{
color = 6;
glyphname = asterisk;
kernRight = asterisk;
layers = (
{
layerId = "E787E54A-EE3E-475A-BF02-8501A6DA5144";
shapes = (
{
closed = 1;
nodes = (
(209,471,l),
(209,510,l),
(195,565,l),
(238,525,l),
(272,506,l),
(304,563,l),
(271,582,l),
(215,600,l),
(271,617,l),
(304,636,l),
(272,693,l),
(238,674,l),
(195,634,l),
(209,690,l),
(209,729,l),
(143,729,l),
(143,690,l),
(157,634,l),
(114,674,l),
(80,693,l),
(48,636,l),
(81,617,l),
(137,600,l),
(81,582,l),
(48,563,l),
(80,506,l),
(114,525,l),
(157,565,l),
(143,510,l),
(143,471,l)
);
}
);
width = 351;
},
{
layerId = "5713303B-ED49-44A7-8230-B5CAE56DEB7E";
shapes = (
{
closed = 1;
nodes = (
(202,482,l),
(202,535,l),
(194,596,l),
(244,560,l),
(290,533,l),
(303,556,l),
(257,582,l),
(204,606,l),
(257,631,l),
(302,656,l),
(290,678,l),
(244,653,l),
(194,618,l),
(202,678,l),
(202,729,l),
(176,729,l),
(176,678,l),
(184,618,l),
(134,653,l),
(89,678,l),
(76,656,l),
(121,631,l),
(175,606,l),
(121,582,l),
(75,556,l),
(89,533,l),
(134,560,l),
(184,596,l),
(176,535,l),
(176,482,l)
);
}
);
width = 379;
},
{
layerId = master01;
shapes = (
{
closed = 1;
nodes = (
(176,453,l),
(176,512,l),
(168,580,l),
(224,540,l),
(275,510,l),
(289,535,l),
(238,565,l),
(179,592,l),
(238,619,l),
(288,647,l),
(275,672,l),
(224,644,l),
(168,605,l),
(176,672,l),
(176,729,l),
(147,729,l),
(147,672,l),
(156,605,l),
(101,644,l),
(50,672,l),
(36,647,l),
(86,619,l),
(146,592,l),
(86,565,l),
(35,535,l),
(50,510,l),
(101,540,l),
(156,580,l),
(147,512,l),
(147,453,l)
);
}
);
width = 324;
},
{
layerId = "1EDCBF6C-9964-4A28-BC87-E86B534B8BE7";
shapes = (
{
closed = 1;
nodes = (
(200,444,l),
(200,487,l),
(184,548,l),
(231,504,l),
(269,483,l),
(305,546,l),
(268,567,l),
(206,586,l),
(268,605,l),
(305,626,l),
(269,689,l),
(231,668,l),
(184,624,l),
(200,686,l),
(200,729,l),
(126,729,l),
(126,686,l),
(142,624,l),
(95,668,l),
(57,689,l),
(21,626,l),
(58,605,l),
(120,586,l),
(58,567,l),
(21,546,l),
(57,483,l),
(95,504,l),
(142,548,l),
(126,487,l),
(126,444,l)
);
}
);
width = 326;
},
{
layerId = "28A8A76A-23B4-40F5-83B9-DC51E48BF161";
shapes = (
{
closed = 1;
nodes = (
(191,444,l),
(191,504,l),
(182,575,l),
(241,533,l),
(294,502,l),
(308,528,l),
(255,559,l),
(194,587,l),
(255,616,l),
(307,644,l),
(294,670,l),
(241,641,l),
(182,601,l),
(191,670,l),
(191,729,l),
(161,729,l),
(161,670,l),
(170,601,l),
(114,641,l),
(60,670,l),
(46,644,l),
(98,616,l),
(160,587,l),
(98,559,l),
(45,528,l),
(60,502,l),
(114,533,l),
(170,575,l),
(161,504,l),
(161,444,l)
);
}
);
width = 354;
},
{
layerId = "D2144554-01B8-4B9B-B16A-E0E5B5794DFC";
shapes = (
{
closed = 1;
nodes = (
(215,407,l),
(215,455,l),
(196,523,l),
(249,473,l),
(291,450,l),
(332,524,l),
(292,547,l),
(222,568,l),
(292,589,l),
(332,612,l),
(291,685,l),
(249,662,l),
(196,612,l),
(215,682,l),
(215,729,l),
(128,729,l),
(128,682,l),
(147,612,l),
(95,662,l),
(52,685,l),
(11,612,l),
(51,589,l),
(121,568,l),
(51,547,l),
(11,524,l),
(52,450,l),
(95,473,l),
(147,523,l),
(128,455,l),
(128,407,l)
);
}
);
width = 343;
},
{
layerId = "23BA42C1-D468-4A44-9BE5-E18AE60B7926";
shapes = (
{
closed = 1;
nodes = (
(288,453,l),
(290,512,l),
(285,580,l),
(339,540,l),
(388,510,l),
(403,535,l),
(353,565,l),
(296,592,l),
(355,619,l),
(406,647,l),
(394,672,l),
(342,644,l),
(286,605,l),
(296,672,l),
(298,729,l),
(269,729,l),
(267,672,l),
(274,605,l),
(221,644,l),
(171,672,l),
(156,647,l),
(205,619,l),
(263,592,l),
(203,565,l),
(151,535,l),
(165,510,l),
(217,540,l),
(273,580,l),
(262,512,l),
(259,453,l)
);
}
);
width = 422;
},
{
layerId = "2D4E69BA-A319-45D0-84B7-5297BCF4B7A0";
shapes = (
{
closed = 1;
nodes = (
(293,444,l),
(294,487,l),
(281,548,l),
(326,504,l),
(363,483,l),
(400,546,l),
(365,567,l),
(304,586,l),
(366,605,l),
(403,626,l),
(370,689,l),
(331,668,l),
(283,624,l),
(301,686,l),
(303,729,l),
(230,729,l),
(228,686,l),
(242,624,l),
(197,668,l),
(160,689,l),
(122,626,l),
(158,605,l),
(219,586,l),
(157,567,l),
(119,546,l),
(153,483,l),
(191,504,l),
(239,548,l),
(221,487,l),
(220,444,l)
);
}
);
width = 390;
},
{
layerId = "095FE76F-1953-440B-9108-AA0678D151F9";
shapes = (
{
closed = 1;
nodes = (
(220,453,l),
(230,512,l),
(233,580,l),
(282,540,l),
(328,510,l),
(345,535,l),
(300,565,l),
(246,592,l),
(310,619,l),
(364,647,l),
(355,672,l),
(300,644,l),
(238,605,l),
(257,672,l),
(267,729,l),
(238,729,l),
(228,672,l),
(226,605,l),
(178,644,l),
(132,672,l),
(115,647,l),
(159,619,l),
(214,592,l),
(150,565,l),
(94,535,l),
(105,510,l),
(161,540,l),
(221,580,l),
(201,512,l),
(191,453,l)
);
}
);
width = 323;
},
{
layerId = "63AAE8D6-1DFF-4DD4-BD9A-49272FE52904";
shapes = (
{
closed = 1;
nodes = (
(239,444,l),
(247,487,l),
(242,548,l),
(280,504,l),
(314,483,l),
(361,546,l),
(328,567,l),
(270,586,l),
(335,605,l),
(375,626,l),
(350,689,l),
(309,668,l),
(255,624,l),
(281,686,l),
(289,729,l),
(216,729,l),
(208,686,l),
(213,624,l),
(174,668,l),
(140,689,l),
(94,626,l),
(127,605,l),
(185,586,l),
(120,567,l),
(80,546,l),
(104,483,l),
(145,504,l),
(200,548,l),
(174,487,l),
(166,444,l)
);
}
);
width = 325;
},
{
layerId = "C17B1F32-8075-45B4-AA59-7DAFF0D7E404";
shapes = (
{
closed = 1;
nodes = (
(225,453,l),
(237,512,l),
(242,580,l),
(290,540,l),
(335,510,l),
(353,535,l),
(308,565,l),
(255,592,l),
(320,619,l),
(375,647,l),
(367,672,l),
(311,644,l),
(247,605,l),
(269,672,l),
(281,729,l),
(252,729,l),
(240,672,l),
(235,605,l),
(189,644,l),
(144,672,l),
(126,647,l),
(169,619,l),
(223,592,l),
(157,565,l),
(102,535,l),
(112,510,l),
(168,540,l),
(230,580,l),
(208,512,l),
(196,453,l)
);
}
);
width = 342;
},
{
layerId = "377EF8AC-8B0D-46C2-96BB-3B5B69A8F571";
shapes = (
{
closed = 1;
nodes = (
(226,443,l),
(235,485,l),
(231,546,l),
(268,501,l),
(301,481,l),
(351,547,l),
(320,567,l),
(262,586,l),
(327,604,l),
(367,625,l),
(343,690,l),
(303,670,l),
(247,625,l),
(277,687,l),
(285,729,l),
(209,729,l),
(200,687,l),
(204,625,l),
(167,670,l),
(134,690,l),
(84,625,l),
(115,604,l),
(173,586,l),
(108,567,l),
(68,547,l),
(91,481,l),
(132,501,l),
(187,546,l),
(160,485,l),
(151,443,l)
);
}
);
width = 305;
}
);
unicode = 42;
userData = {
KernOnSpecialSpacing = {
L = quotes;
R = quotes;
};
};
}
{
color = 6;
glyphname = plus;
kernLeft = plus;
kernRight = plus;
layers = (
{
layerId = "E787E54A-EE3E-475A-BF02-8501A6DA5144";
shapes = (
{
closed = 1;
nodes = (
(328,139,l),
(328,291,l),
(476,291,l),
(476,431,l),
(328,431,l),
(328,583,l),
(180,583,l),
(180,431,l),
(32,431,l),
(32,291,l),
(180,291,l),
(180,139,l)
);
}
);
width = 508;
},
{
layerId = "5713303B-ED49-44A7-8230-B5CAE56DEB7E";
shapes = (
{
closed = 1;
nodes = (
(265,168,l),
(265,347,l),
(443,347,l),
(443,375,l),
(265,375,l),
(265,554,l),
(235,554,l),
(235,375,l),
(57,375,l),
(57,347,l),
(235,347,l),
(235,168,l)
);
}
);
width = 500;
},
{
layerId = master01;
shapes = (
{
closed = 1;
nodes = (
(291,122,l),
(291,345,l),
(513,345,l),
(513,377,l),
(291,377,l),
(291,600,l),
(257,600,l),
(257,377,l),
(35,377,l),
(35,345,l),
(257,345,l),
(257,122,l)
);
}
);
userData = {
com.schriftgestaltung.hints = (
{
horizontal = 1;
options = 0;
place = (
3,
3
);
stem = -2;
type = Stem;
},
{
horizontal = 0;
options = 0;
place = (
3,
3
);
stem = -2;
type = Stem;
}
);
};
width = 548;
},
{
layerId = "1EDCBF6C-9964-4A28-BC87-E86B534B8BE7";
shapes = (
{
closed = 1;
nodes = (
(348,124,l),
(348,286,l),
(508,286,l),
(508,435,l),
(348,435,l),
(348,597,l),
(195,597,l),
(195,435,l),
(35,435,l),
(35,286,l),
(195,286,l),
(195,124,l)
);
}
);
width = 543;
},
{
layerId = "28A8A76A-23B4-40F5-83B9-DC51E48BF161";
shapes = (
{
closed = 1;
nodes = (
(336,114,l),
(336,345,l),
(567,345,l),
(567,377,l),
(336,377,l),
(336,609,l),
(302,609,l),
(302,377,l),
(72,377,l),
(72,345,l),
(302,345,l),
(302,114,l)
);
}
);
width = 638;
},
{
layerId = "D2144554-01B8-4B9B-B16A-E0E5B5794DFC";
shapes = (
{
closed = 1;
nodes = (
(427,98,l),
(427,274,l),
(597,274,l),
(597,448,l),
(427,448,l),
(427,624,l),
(241,624,l),
(241,448,l),
(71,448,l),
(71,274,l),
(241,274,l),
(241,98,l)
);
}
);
width = 668;
},
{
layerId = "23BA42C1-D468-4A44-9BE5-E18AE60B7926";
shapes = (
{
closed = 1;
nodes = (
(243,168,l),
(281,347,l),
(457,347,l),
(463,375,l),
(285,375,l),
(323,554,l),
(294,554,l),
(256,375,l),
(81,375,l),
(75,347,l),
(251,347,l),
(213,168,l)
);
}
);
width = 496;
},
{
layerId = "2D4E69BA-A319-45D0-84B7-5297BCF4B7A0";
shapes = (
{
closed = 1;
nodes = (
(297,139,l),
(329,291,l),
(476,291,l),
(505,431,l),
(358,431,l),
(390,583,l),
(243,583,l),
(211,431,l),
(66,431,l),
(36,291,l),
(183,291,l),
(150,139,l)
);
}
);
width = 504;
},
{
layerId = "095FE76F-1953-440B-9108-AA0678D151F9";
shapes = (
{
closed = 1;
nodes = (
(260,122,l),
(306,345,l),
(526,345,l),
(533,377,l),
(313,377,l),
(360,600,l),
(326,600,l),
(280,377,l),
(60,377,l),
(53,345,l),
(273,345,l),
(226,122,l)
);
}
);
width = 543;
},
{
layerId = "63AAE8D6-1DFF-4DD4-BD9A-49272FE52904";
shapes = (
{
closed = 1;
nodes = (
(313,124,l),
(348,286,l),
(506,286,l),
(537,435,l),
(379,435,l),
(413,597,l),
(261,597,l),
(227,435,l),
(69,435,l),
(38,286,l),
(196,286,l),
(162,124,l)
);
}
);
width = 538;
},
{
layerId = "C17B1F32-8075-45B4-AA59-7DAFF0D7E404";
shapes = (
{
closed = 1;
nodes = (
(303,114,l),
(352,345,l),
(580,345,l),
(587,377,l),
(359,377,l),
(407,609,l),
(374,609,l),
(325,377,l),
(97,377,l),
(90,345,l),
(318,345,l),
(269,114,l)
);
}
);
width = 633;
},
{
layerId = "377EF8AC-8B0D-46C2-96BB-3B5B69A8F571";
shapes = (
{
closed = 1;
nodes = (
(387,98,l),
(423,274,l),
(592,274,l),
(629,448,l),
(460,448,l),
(497,624,l),
(313,624,l),
(276,448,l),
(108,448,l),
(71,274,l),
(239,274,l),
(202,98,l)
);
}
);
width = 664;
}
);
unicode = 43;
userData = {
KernOnSpecialSpacing = {
L = math;
R = math;
};
};
}
{
color = 6;
glyphname = comma;
kernLeft = comma;
kernRight = comma;
layers = (
{
background = {
shapes = (
{
closed = 1;
nodes = (
(180,-10,o),
(221,22,o),
(221,77,cs),
(221,132,o),
(180,164,o),
(125,164,cs),
(70,164,o),
(29,132,o),
(29,77,cs),
(29,22,o),
(70,-10,o),
(125,-10,cs)
);
}
);
};
layerId = "E787E54A-EE3E-475A-BF02-8501A6DA5144";
shapes = (
{
closed = 1;
nodes = (
(113,-167,l),
(167,-123,o),
(221,-26,o),
(221,56,cs),
(221,126,o),
(179,164,o),
(124,164,cs),
(69,164,o),
(29,129,o),
(29,77,cs),
(29,27,o),
(64,-5,o),
(112,-5,cs),
(126,-5,o),
(139,-2,o),
(147,3,c),
(133,14,l),
(124,-37,o),
(83,-103,o),
(13,-167,c)
);
}
);
width = 245;
},
{
background = {
shapes = (
{
closed = 1;
nodes = (
(55,-130,l),
(80,-100,o),
(112,-35,o),
(112,11,cs),
(112,30,o),
(103,42,o),
(86,42,cs),
(73,42,o),
(63,33,o),
(63,19,cs),
(63,5,o),
(73,-4,o),
(86,-4,cs),
(93,-4,o),
(99,-2,o),
(102,1,c),
(99,3,l),
(94,-40,o),
(69,-91,o),
(38,-130,c)
);
}
);
};
layerId = "5713303B-ED49-44A7-8230-B5CAE56DEB7E";
shapes = (
{
closed = 1;
nodes = (
(57,-125,l),
(81,-102,o),
(113,-37,o),
(113,8,cs),
(113,31,o),
(102,42,o),
(85,42,cs),
(70,42,o),
(59,32,o),
(59,17,cs),
(59,2,o),
(69,-7,o),
(84,-7,cs),
(91,-7,o),
(95,-6,o),
(100,-2,c),
(93,0,l),
(91,-37,o),
(67,-87,o),
(34,-125,c)
);
}
);
width = 163;
},
{
background = {
shapes = (
{
closed = 1;
nodes = (
(112,-7,o),
(125,5,o),
(125,22,cs),
(125,39,o),
(112,51,o),
(95,51,cs),
(78,51,o),
(65,39,o),
(65,22,cs),
(65,5,o),
(78,-7,o),
(95,-7,cs)
);
}
);
};
layerId = master01;
shapes = (
{
closed = 1;
nodes = (
(69,-124,l),
(93,-99,o),
(127,-36,o),
(127,11,cs),
(127,39,o),
(113,51,o),
(95,51,cs),
(77,51,o),
(65,40,o),
(65,23,cs),
(65,8,o),
(75,-4,o),
(93,-4,cs),
(104,-4,o),
(112,2,o),
(114,8,c),
(109,9,l),
(107,-27,o),
(86,-77,o),
(46,-124,c)
);
}
);
userData = {
com.schriftgestaltung.Glyphs.glyph.rightMetricsKey = period;
};
width = 190;
},
{
background = {
shapes = (
{
closed = 1;
nodes = (
(129,-167,l),
(188,-112,o),
(234,-20,o),
(234,50,cs),
(234,122,o),
(192,162,o),
(133,162,cs),
(77,162,o),
(35,127,o),
(35,73,cs),
(35,24,o),
(67,-10,o),
(126,-10,cs),
(147,-10,o),
(170,-4,o),
(184,8,c),
(136,8,l),
(126,-39,o),
(79,-108,o),
(22,-167,c)
);
}
);
};
layerId = "1EDCBF6C-9964-4A28-BC87-E86B534B8BE7";
shapes = (
{
closed = 1;
nodes = (
(119,-167,l),
(172,-119,o),
(229,-18,o),
(229,62,cs),
(229,128,o),
(187,168,o),
(131,168,cs),
(74,168,o),
(36,132,o),
(36,79,cs),
(36,31,o),
(68,-3,o),
(122,-3,cs),
(131,-3,o),
(139,-2,o),
(147,-1,c),
(133,11,l),
(121,-38,o),
(72,-109,o),
(16,-167,c)
);
}
);
userData = {
com.schriftgestaltung.Glyphs.glyph.rightMetricsKey = period;
};
width = 274;
},
{
layerId = "28A8A76A-23B4-40F5-83B9-DC51E48BF161";
shapes = (
{
closed = 1;
nodes = (
(61,-124,l),
(85,-99,o),
(119,-36,o),
(119,11,cs),
(119,39,o),
(105,51,o),
(87,51,cs),
(69,51,o),
(57,40,o),
(57,23,cs),
(57,8,o),
(67,-4,o),
(85,-4,cs),
(96,-4,o),
(104,2,o),
(106,8,c),
(101,9,l),
(99,-27,o),
(78,-77,o),
(38,-124,c)
);
}
);
width = 168;
},
{
background = {
shapes = (
{
closed = 1;
nodes = (
(238,-10,o),
(272,29,o),
(272,83,cs),
(272,136,o),
(238,175,o),
(154,175,cs),
(70,175,o),
(36,136,o),
(36,83,cs),
(36,29,o),
(70,-10,o),
(154,-10,cs)
);
}
);
};
layerId = "D2144554-01B8-4B9B-B16A-E0E5B5794DFC";
shapes = (
{
closed = 1;
nodes = (
(153,-167,l),
(211,-117,o),
(271,-18,o),
(271,62,cs),
(271,139,o),
(223,175,o),
(150,175,cs),
(85,175,o),
(36,142,o),
(36,83,cs),
(36,31,o),
(69,-3,o),
(140,-3,cs),
(149,-3,o),
(158,-2,o),
(167,0,c),
(153,12,l),
(139,-38,o),
(84,-109,o),
(22,-167,c)
);
}
);
width = 303;
},
{
layerId = "23BA42C1-D468-4A44-9BE5-E18AE60B7926";
shapes = (
{
closed = 1;
nodes = (
(-22,-123,l),
(6,-100,o),
(61,-26,o),
(61,14,cs),
(61,30,o),
(51,41,o),
(35,41,cs),
(21,41,o),
(10,32,o),
(10,16,cs),
(10,2,o),
(20,-7,o),
(34,-7,cs),
(39,-7,o),
(43,-6,o),
(46,-4,c),
(41,1,l),
(31,-36,o),
(-6,-86,o),
(-45,-123,c)
);
}
);
width = 163;
},
{
layerId = "2D4E69BA-A319-45D0-84B7-5297BCF4B7A0";
shapes = (
{
closed = 1;
nodes = (
(33,-167,l),
(100,-122,o),
(191,-16,o),
(191,73,cs),
(191,128,o),
(153,164,o),
(97,164,cs),
(36,164,o),
(-5,127,o),
(-5,75,cs),
(-5,30,o),
(30,-1,o),
(77,-1,cs),
(89,-1,o),
(99,1,o),
(106,4,c),
(90,17,l),
(65,-38,o),
(4,-108,o),
(-78,-167,c)
);
}
);
width = 259;
},
{
guides = (
{
pos = (39,-124);
}
);
layerId = "095FE76F-1953-440B-9108-AA0678D151F9";
shapes = (
{
closed = 1;
nodes = (
(-9,-124,l),
(27,-88,o),
(72,-20,o),
(72,18,cs),
(72,38,o),
(60,51,o),
(40,51,cs),
(22,51,o),
(9,40,o),
(9,20,cs),
(9,3,o),
(21,-8,o),
(39,-8,cs),
(45,-8,o),
(50,-6,o),
(54,-4,c),
(51,2,l),
(40,-35,o),
(6,-83,o),
(-33,-124,c)
);
}
);
width = 186;
},
{
layerId = "63AAE8D6-1DFF-4DD4-BD9A-49272FE52904";
shapes = (
{
closed = 1;
nodes = (
(37,-167,l),
(105,-122,o),
(196,-15,o),
(196,75,cs),
(196,131,o),
(158,167,o),
(102,167,cs),
(40,167,o),
(-1,130,o),
(-1,77,cs),
(-1,32,o),
(34,1,o),
(81,1,cs),
(94,1,o),
(104,3,o),
(111,6,c),
(95,19,l),
(69,-37,o),
(8,-107,o),
(-75,-167,c)
);
}
);
width = 285;
},
{
layerId = "C17B1F32-8075-45B4-AA59-7DAFF0D7E404";
shapes = (
{
closed = 1;
nodes = (
(-17,-124,l),
(19,-88,o),
(64,-20,o),
(64,18,cs),
(64,38,o),
(52,51,o),
(32,51,cs),
(14,51,o),
(1,40,o),
(1,20,cs),
(1,3,o),
(13,-8,o),
(31,-8,cs),
(37,-8,o),
(42,-6,o),
(46,-4,c),
(43,2,l),
(32,-35,o),
(-2,-83,o),
(-41,-124,c)
);
}
);
width = 164;
},
{
layerId = "377EF8AC-8B0D-46C2-96BB-3B5B69A8F571";
shapes = (
{
closed = 1;
nodes = (
(73,-167,l),
(159,-106,o),
(221,-11,o),
(221,64,cs),
(221,131,o),
(179,175,o),
(102,175,cs),
(27,175,o),
(-16,137,o),
(-16,79,cs),
(-16,29,o),
(21,-4,o),
(87,-4,cs),
(104,-4,o),
(117,-2,o),
(126,1,c),
(113,22,l),
(86,-33,o),
(18,-104,o),
(-69,-167,c)
);
}
);
width = 299;
}
);
metricRight = period;
unicode = 44;
userData = {
KernOnName = comma;
KernOnSpecialSpacing = {
L = period;
R = period;
};
};
}
{
color = 6;
glyphname = hyphen;
kernLeft = hyphen;
kernRight = hyphen;
layers = (
{
layerId = "E787E54A-EE3E-475A-BF02-8501A6DA5144";
shapes = (
{
closed = 1;
nodes = (
(343,191,l),
(343,351,l),
(29,351,l),
(29,191,l)
);
}
);
width = 372;
},
{
layerId = "5713303B-ED49-44A7-8230-B5CAE56DEB7E";
shapes = (
{
closed = 1;
nodes = (
(250,246,l),
(250,271,l),
(70,271,l),
(70,246,l)
);
}
);
width = 320;
},
{
layerId = master01;
shapes = (
{
closed = 1;
nodes = (
(290,242,l),
(290,275,l),
(30,275,l),
(30,242,l)
);
}
);
userData = {
com.schriftgestaltung.hints = (
{
horizontal = 1;
options = 0;
origin = (
0,
2
);
stem = -2;
target = (
0,
3
);
type = Stem;
}
);
};
width = 320;
},
{
layerId = "1EDCBF6C-9964-4A28-BC87-E86B534B8BE7";
shapes = (
{
closed = 1;
nodes = (
(384,192,l),
(384,352,l),
(30,352,l),
(30,192,l)
);
}
);
width = 414;
},
{
layerId = "28A8A76A-23B4-40F5-83B9-DC51E48BF161";
shapes = (
{
closed = 1;
nodes = (
(339,243,l),
(339,275,l),
(53,275,l),
(53,243,l)
);
}
);
width = 392;
},
{
layerId = "D2144554-01B8-4B9B-B16A-E0E5B5794DFC";
shapes = (
{
closed = 1;
nodes = (
(385,187,l),
(385,355,l),
(27,355,l),
(27,187,l)
);
}
);
width = 412;
},
{
layerId = "23BA42C1-D468-4A44-9BE5-E18AE60B7926";
shapes = (
{
closed = 1;
nodes = (
(246,246,l),
(251,271,l),
(73,271,l),
(68,246,l)
);
}
);
width = 318;
},
{
layerId = "2D4E69BA-A319-45D0-84B7-5297BCF4B7A0";
shapes = (
{
closed = 1;
nodes = (
(323,191,l),
(357,351,l),
(46,351,l),
(13,191,l)
);
}
);
width = 369;
},
{
layerId = "095FE76F-1953-440B-9108-AA0678D151F9";
shapes = (
{
closed = 1;
nodes = (
(285,242,l),
(292,275,l),
(34,275,l),
(27,242,l)
);
}
);
width = 319;
},
{
layerId = "63AAE8D6-1DFF-4DD4-BD9A-49272FE52904";
shapes = (
{
closed = 1;
nodes = (
(364,192,l),
(398,352,l),
(47,352,l),
(14,192,l)
);
}
);
width = 411;
},
{
layerId = "C17B1F32-8075-45B4-AA59-7DAFF0D7E404";
shapes = (
{
closed = 1;
nodes = (
(333,243,l),
(340,275,l),
(57,275,l),
(50,243,l)
);
}
);
width = 390;
},
{
layerId = "377EF8AC-8B0D-46C2-96BB-3B5B69A8F571";
shapes = (
{
closed = 1;
nodes = (
(363,187,l),
(399,355,l),
(44,355,l),
(9,187,l)
);
}
);
width = 409;
}
);
unicode = 45;
userData = {
KernOnName = hyphen;
KernOnSpecialSpacing = {
L = hyphen;
R = hyphen;
};
};
}
{
color = 6;
glyphname = period;
kernLeft = period;
kernRight = period;
layers = (
{
background = {
shapes = (
{
closed = 1;
nodes = (
(170,-10,o),
(211,22,o),
(211,77,cs),
(211,132,o),
(170,164,o),
(115,164,cs),
(60,164,o),
(19,132,o),
(19,77,cs),
(19,22,o),
(60,-10,o),
(115,-10,cs)
);
}
);
};
layerId = "E787E54A-EE3E-475A-BF02-8501A6DA5144";
shapes = (
{
closed = 1;
nodes = (
(166,-10,o),
(206,23,o),
(206,77,cs),
(206,131,o),
(166,164,o),
(115,164,cs),
(64,164,o),
(24,131,o),
(24,77,cs),
(24,23,o),
(64,-10,o),
(115,-10,cs)
);
}
);
width = 230;
},
{
layerId = "5713303B-ED49-44A7-8230-B5CAE56DEB7E";
shapes = (
{
closed = 1;
nodes = (
(89,-6,o),
(100,4,o),
(100,18,cs),
(100,32,o),
(89,42,o),
(75,42,cs),
(61,42,o),
(50,32,o),
(50,18,cs),
(50,4,o),
(61,-6,o),
(75,-6,cs)
);
}
);
width = 150;
},
{
layerId = master01;
shapes = (
{
closed = 1;
nodes = (
(110,-7,o),
(123,5,o),
(123,22,cs),
(123,39,o),
(110,51,o),
(93,51,cs),
(76,51,o),
(63,39,o),
(63,22,cs),
(63,5,o),
(76,-7,o),
(93,-7,cs)
);
}
);
width = 186;
},
{
layerId = "1EDCBF6C-9964-4A28-BC87-E86B534B8BE7";
shapes = (
{
closed = 1;
nodes = (
(195,-8,o),
(233,27,o),
(233,80,cs),
(233,133,o),
(195,168,o),
(139,168,cs),
(83,168,o),
(45,133,o),
(45,80,cs),
(45,27,o),
(83,-8,o),
(139,-8,cs)
);
}
);
width = 278;
},
{
layerId = "28A8A76A-23B4-40F5-83B9-DC51E48BF161";
shapes = (
{
closed = 1;
nodes = (
(97,-7,o),
(110,5,o),
(110,22,cs),
(110,39,o),
(97,51,o),
(80,51,cs),
(63,51,o),
(50,39,o),
(50,22,cs),
(50,5,o),
(63,-7,o),
(80,-7,cs)
);
}
);
width = 159;
},
{
layerId = "D2144554-01B8-4B9B-B16A-E0E5B5794DFC";
shapes = (
{
closed = 1;
nodes = (
(234,-10,o),
(268,29,o),
(268,83,cs),
(268,136,o),
(234,175,o),
(150,175,cs),
(66,175,o),
(32,136,o),
(32,83,cs),
(32,29,o),
(66,-10,o),
(150,-10,cs)
);
}
);
width = 300;
},
{
layerId = "23BA42C1-D468-4A44-9BE5-E18AE60B7926";
shapes = (
{
closed = 1;
nodes = (
(39,-6,o),
(49,3,o),
(49,18,cs),
(49,33,o),
(39,42,o),
(25,42,cs),
(12,42,o),
(1,33,o),
(1,18,cs),
(1,3,o),
(12,-6,o),
(25,-6,cs)
);
}
);
width = 149;
},
{
layerId = "2D4E69BA-A319-45D0-84B7-5297BCF4B7A0";
shapes = (
{
closed = 1;
nodes = (
(138,-10,o),
(180,27,o),
(180,82,cs),
(180,131,o),
(147,164,o),
(90,164,cs),
(27,164,o),
(-15,127,o),
(-15,72,cs),
(-15,23,o),
(18,-10,o),
(75,-10,cs)
);
}
);
width = 245;
},
{
layerId = "095FE76F-1953-440B-9108-AA0678D151F9";
shapes = (
{
closed = 1;
nodes = (
(62,-7,o),
(75,4,o),
(75,23,cs),
(75,40,o),
(63,51,o),
(46,51,cs),
(28,51,o),
(15,40,o),
(15,21,cs),
(15,4,o),
(27,-7,o),
(44,-7,cs)
);
}
);
width = 188;
},
{
layerId = "63AAE8D6-1DFF-4DD4-BD9A-49272FE52904";
shapes = (
{
closed = 1;
nodes = (
(160,-8,o),
(204,29,o),
(204,87,cs),
(204,135,o),
(168,167,o),
(114,167,cs),
(50,167,o),
(6,130,o),
(6,72,cs),
(6,24,o),
(42,-8,o),
(96,-8,cs)
);
}
);
width = 290;
},
{
layerId = "C17B1F32-8075-45B4-AA59-7DAFF0D7E404";
shapes = (
{
closed = 1;
nodes = (
(49,-7,o),
(62,4,o),
(62,23,cs),
(62,40,o),
(50,51,o),
(33,51,cs),
(15,51,o),
(2,40,o),
(2,21,cs),
(2,4,o),
(14,-7,o),
(31,-7,cs)
);
}
);
width = 161;
},
{
layerId = "377EF8AC-8B0D-46C2-96BB-3B5B69A8F571";
shapes = (
{
closed = 1;
nodes = (
(188,-10,o),
(234,26,o),
(234,90,cs),
(234,141,o),
(193,175,o),
(121,175,cs),
(40,175,o),
(-6,139,o),
(-6,75,cs),
(-6,24,o),
(35,-10,o),
(107,-10,cs)
);
}
);
width = 306;
}
);
unicode = 46;
userData = {
KernOnName = period;
KernOnSpecialSpacing = {
L = period;
R = period;
};
};
}
{
glyphname = slash;
kernLeft = slash;
kernRight = slash;
layers = (
{
layerId = "E787E54A-EE3E-475A-BF02-8501A6DA5144";
shapes = (
{
closed = 1;
nodes = (
(159,-82,l),
(368,729,l),
(205,729,l),
(-2,-82,l)
);
}
);
width = 366;
},
{
layerId = "5713303B-ED49-44A7-8230-B5CAE56DEB7E";
shapes = (
{
closed = 1;
nodes = (
(-3,-82,l),
(202,729,l),
(173,729,l),
(-32,-82,l)
);
}
);
width = 190;
},
{
layerId = master01;
shapes = (
{
closed = 1;
nodes = (
(24,-81,l),
(348,729,l),
(312,729,l),
(-15,-81,l)
);
}
);
userData = {
com.schriftgestaltung.hints = (
{
horizontal = 1;
options = 0;
place = (
0,
21
);
stem = -2;
target = (
u,
p
);
type = BottomGhost;
},
{
horizontal = 1;
options = 0;
place = (
0,
-20
);
stem = -2;
target = (
d,
o,
w,
n
);
type = TopGhost;
}
);
};
width = 358;
},
{
layerId = "1EDCBF6C-9964-4A28-BC87-E86B534B8BE7";
shapes = (
{
closed = 1;
nodes = (
(173,-82,l),
(462,729,l),
(279,729,l),
(-8,-82,l)
);
}
);
width = 478;
},
{
layerId = "28A8A76A-23B4-40F5-83B9-DC51E48BF161";
shapes = (
{
closed = 1;
nodes = (
(28,-81,l),
(437,729,l),
(401,729,l),
(-11,-81,l)
);
}
);
width = 444;
},
{
layerId = "D2144554-01B8-4B9B-B16A-E0E5B5794DFC";
shapes = (
{
closed = 1;
nodes = (
(185,-82,l),
(531,729,l),
(320,729,l),
(-24,-82,l)
);
}
);
width = 535;
},
{
layerId = "23BA42C1-D468-4A44-9BE5-E18AE60B7926";
shapes = (
{
closed = 1;
nodes = (
(-65,-82,l),
(309,729,l),
(279,729,l),
(-94,-82,l)
);
}
);
width = 200;
},
{
layerId = "2D4E69BA-A319-45D0-84B7-5297BCF4B7A0";
shapes = (
{
closed = 1;
nodes = (
(93,-82,l),
(471,729,l),
(301,729,l),
(-75,-82,l)
);
}
);
width = 374;
},
{
layerId = "095FE76F-1953-440B-9108-AA0678D151F9";
shapes = (
{
closed = 1;
nodes = (
(-34,-81,l),
(456,729,l),
(418,729,l),
(-74,-81,l)
);
}
);
width = 372;
},
{
layerId = "63AAE8D6-1DFF-4DD4-BD9A-49272FE52904";
shapes = (
{
closed = 1;
nodes = (
(115,-82,l),
(572,729,l),
(379,729,l),
(-76,-82,l)
);
}
);
width = 495;
},
{
layerId = "C17B1F32-8075-45B4-AA59-7DAFF0D7E404";
shapes = (
{
closed = 1;
nodes = (
(-43,-81,l),
(533,729,l),
(496,729,l),
(-81,-81,l)
);
}
);
width = 445;
},
{
layerId = "377EF8AC-8B0D-46C2-96BB-3B5B69A8F571";
shapes = (
{
closed = 1;
nodes = (
(126,-82,l),
(639,729,l),
(414,729,l),
(-97,-82,l)
);
}
);
width = 520;
},
{
layerId = "71D8B5AD-B400-4239-9672-E7BA455EF2D0";
shapes = (
{
closed = 1;
nodes = (
(-1,-82,l),
(204,729,l),
(175,729,l),
(-30,-82,l)
);
}
);
width = 189;
},
{
layerId = "FFCA1F59-E305-4E0F-BBF9-E0C4511C19C1";
shapes = (
{
closed = 1;
nodes = (
(154,-82,l),
(363,729,l),
(200,729,l),
(-7,-82,l)
);
}
);
width = 356;
},
{
layerId = "5A048DDA-4734-4F8A-A53C-0BED34B57D1C";
shapes = (
{
closed = 1;
nodes = (
(7,-81,l),
(331,729,l),
(295,729,l),
(-32,-81,l)
);
}
);
userData = {
com.schriftgestaltung.hints = (
{
horizontal = 1;
options = 0;
place = (
0,
21
);
stem = -2;
target = (
u,
p
);
type = BottomGhost;
},
{
horizontal = 1;
options = 0;
place = (
0,
-20
);
stem = -2;
target = (
d,
o,
w,
n
);
type = TopGhost;
}
);
};
width = 324;
},
{
layerId = "DED42A87-C949-4722-A202-2B551272A3FB";
shapes = (
{
closed = 1;
nodes = (
(161,-82,l),
(450,729,l),
(267,729,l),
(-20,-82,l)
);
}
);
width = 449;
},
{
layerId = "106FCE83-F343-403B-A314-646E4D059B3F";
shapes = (
{
closed = 1;
nodes = (
(23,-81,l),
(432,729,l),
(396,729,l),
(-16,-81,l)
);
}
);
width = 434;
},
{
layerId = "2D1A1AFE-39FB-4EBD-856C-88C6B057247F";
shapes = (
{
closed = 1;
nodes = (
(180,-82,l),
(526,729,l),
(315,729,l),
(-29,-82,l)
);
}
);
width = 525;
}
);
unicode = 47;
userData = {
KernOnName = slash;
KernOnSpecialSpacing = {
L = slash;
R = slash;
};
};
}
{
color = 3;
glyphname = zero;
kernLeft = zero;
kernRight = zero;
layers = (
{
layerId = "E787E54A-EE3E-475A-BF02-8501A6DA5144";
shapes = (
{
closed = 1;
nodes = (
(393,-10,o),
(485,79,o),
(485,360,cs),
(485,640,o),
(393,729,o),
(255,729,cs),
(117,729,o),
(25,640,o),
(25,360,cs),
(25,79,o),
(117,-10,o),
(255,-10,cs)
);
},
{
closed = 1;
nodes = (
(214,139,o),
(205,194,o),
(205,360,cs),
(205,525,o),
(214,580,o),
(255,580,cs),
(296,580,o),
(305,525,o),
(305,360,cs),
(305,194,o),
(296,139,o),
(255,139,cs)
);
}
);
width = 510;
},
{
layerId = "5713303B-ED49-44A7-8230-B5CAE56DEB7E";
shapes = (
{
closed = 1;
nodes = (
(319,-10,o),
(358,137,o),
(358,360,cs),
(358,583,o),
(319,730,o),
(199,730,cs),
(79,730,o),
(40,583,o),
(40,360,cs),
(40,137,o),
(79,-10,o),
(199,-10,cs)
);
},
{
closed = 1;
nodes = (
(123,19,o),
(72,87,o),
(72,360,cs),
(72,633,o),
(123,701,o),
(199,701,cs),
(276,701,o),
(326,631,o),
(326,360,cs),
(326,89,o),
(276,19,o),
(199,19,cs)
);
}
);
width = 398;
},
{
layerId = master01;
shapes = (
{
closed = 1;
nodes = (
(431,-9,o),
(529,109,o),
(529,360,cs),
(529,611,o),
(431,729,o),
(285,729,cs),
(139,729,o),
(41,611,o),
(41,360,cs),
(41,109,o),
(139,-9,o),
(285,-9,cs)
);
},
{
closed = 1;
nodes = (
(138,25,o),
(81,159,o),
(81,360,cs),
(81,561,o),
(138,695,o),
(285,695,cs),
(432,695,o),
(489,561,o),
(489,360,cs),
(489,159,o),
(432,25,o),
(285,25,cs)
);
}
);
userData = {
com.schriftgestaltung.hints = (
{
horizontal = 1;
options = 0;
origin = (
1,
11
);
stem = -2;
target = (
0,
11
);
type = Stem;
},
{
horizontal = 1;
options = 0;
origin = (
0,
5
);
stem = -2;
target = (
1,
5
);
type = Stem;
},
{
horizontal = 0;
options = 0;
origin = (
0,
8
);
stem = -2;
target = (
1,
2
);
type = Stem;
},
{
horizontal = 0;
options = 0;
origin = (
1,
8
);
stem = -2;
target = (
0,
2
);
type = Stem;
}
);
};
width = 571;
},
{
background = {
shapes = (
{
closed = 1;
nodes = (
(481,-6,o),
(596,126,o),
(596,362,cs),
(596,583,o),
(494,730,o),
(313,730,cs),
(140,730,o),
(24,598,o),
(24,364,cs),
(24,142,o),
(127,-6,o),
(309,-6,cs)
);
},
{
closed = 1;
nodes = (
(258,154,o),
(214,181,o),
(214,363,cs),
(214,544,o),
(258,571,o),
(310,571,cs),
(362,571,o),
(406,544,o),
(406,363,cs),
(406,181,o),
(362,154,o),
(310,154,cs)
);
}
);
};
layerId = "1EDCBF6C-9964-4A28-BC87-E86B534B8BE7";
shapes = (
{
closed = 1;
nodes = (
(474,-10,o),
(586,108,o),
(586,359,cs),
(586,581,o),
(497,729,o),
(307,729,cs),
(140,729,o),
(28,611,o),
(28,359,cs),
(28,138,o),
(117,-10,o),
(307,-10,cs)
);
},
{
closed = 1;
nodes = (
(262,149,o),
(220,177,o),
(220,359,cs),
(220,542,o),
(262,570,o),
(307,570,cs),
(352,570,o),
(394,542,o),
(394,359,cs),
(394,177,o),
(352,149,o),
(307,149,cs)
);
}
);
width = 613;
},
{
layerId = "28A8A76A-23B4-40F5-83B9-DC51E48BF161";
shapes = (
{
closed = 1;
nodes = (
(581,-10,o),
(714,117,o),
(714,360,cs),
(714,604,o),
(578,729,o),
(387,729,cs),
(189,729,o),
(58,603,o),
(58,360,cs),
(58,115,o),
(194,-10,o),
(388,-10,cs)
);
},
{
closed = 1;
nodes = (
(197,24,o),
(96,149,o),
(96,360,cs),
(96,572,o),
(200,695,o),
(387,695,cs),
(574,695,o),
(676,571,o),
(676,360,cs),
(676,149,o),
(571,24,o),
(387,24,cs)
);
}
);
width = 772;
},
{
layerId = "D2144554-01B8-4B9B-B16A-E0E5B5794DFC";
shapes = (
{
closed = 1;
nodes = (
(649,-9,o),
(803,124,o),
(803,360,cs),
(803,594,o),
(651,729,o),
(418,729,cs),
(186,729,o),
(32,596,o),
(32,361,cs),
(32,127,o),
(184,-9,o),
(417,-9,cs)
);
},
{
closed = 1;
nodes = (
(321,169,o),
(256,218,o),
(256,360,cs),
(256,502,o),
(321,551,o),
(417,551,cs),
(514,551,o),
(579,502,o),
(579,360,cs),
(579,218,o),
(514,169,o),
(417,169,cs)
);
}
);
width = 835;
},
{
layerId = "23BA42C1-D468-4A44-9BE5-E18AE60B7926";
shapes = (
{
closed = 1;
nodes = (
(263,-9,o),
(328,133,o),
(374,347,cs),
(414,539,o),
(426,729,o),
(284,729,cs),
(174,729,o),
(109,589,o),
(64,375,cs),
(22,177,o),
(13,-9,o),
(153,-9,cs)
);
},
{
closed = 1;
nodes = (
(36,29,o),
(61,208,o),
(94,369,cs),
(149,635,o),
(210,700,o),
(280,700,cs),
(400,700,o),
(380,527,o),
(343,351,cs),
(286,76,o),
(222,14,o),
(147,20,cs)
);
}
);
width = 396;
},
{
layerId = "2D4E69BA-A319-45D0-84B7-5297BCF4B7A0";
shapes = (
{
closed = 1;
nodes = (
(344,-10,o),
(442,78,o),
(497,342,cs),
(543,563,o),
(520,729,o),
(324,729,cs),
(193,729,o),
(99,628,o),
(48,381,cs),
(2,159,o),
(22,-10,o),
(221,-10,cs)
);
},
{
closed = 1;
nodes = (
(175,140,o),
(199,246,o),
(224,365,cs),
(257,525,o),
(277,579,o),
(314,579,cs),
(369,579,o),
(345,472,o),
(321,357,cs),
(288,197,o),
(268,140,o),
(231,140,cs)
);
}
);
width = 507;
},
{
layerId = "095FE76F-1953-440B-9108-AA0678D151F9";
shapes = (
{
closed = 1;
nodes = (
(379,-10,o),
(488,102,o),
(531,348,cs),
(569,567,o),
(523,729,o),
(351,729,cs),
(218,729,o),
(108,618,o),
(65,371,cs),
(27,149,o),
(75,-10,o),
(245,-10,cs)
);
},
{
closed = 1;
nodes = (
(98,24,o),
(73,168,o),
(101,351,cs),
(135,571,o),
(223,695,o),
(351,695,cs),
(498,695,o),
(523,551,o),
(495,368,cs),
(464,163,o),
(380,24,o),
(245,24,cs)
);
}
);
width = 555;
},
{
background = {
shapes = (
{
closed = 1;
nodes = (
(466,-6,o),
(603,176,o),
(613,450,cs),
(619,619,o),
(537,730,o),
(384,730,cs),
(185,730,o),
(48,549,o),
(38,276,cs),
(32,106,o),
(116,-6,o),
(269,-6,cs)
);
},
{
closed = 1;
nodes = (
(247,161,o),
(220,194,o),
(223,276,cs),
(228,441,o),
(288,565,o),
(364,565,cs),
(406,565,o),
(432,532,o),
(430,453,cs),
(424,288,o),
(364,161,o),
(291,161,cs)
);
}
);
};
layerId = "63AAE8D6-1DFF-4DD4-BD9A-49272FE52904";
shapes = (
{
closed = 1;
nodes = (
(430,-10,o),
(553,93,o),
(599,311,cs),
(652,562,o),
(576,729,o),
(378,729,cs),
(225,729,o),
(102,626,o),
(56,408,cs),
(3,157,o),
(84,-10,o),
(277,-10,cs)
);
},
{
closed = 1;
nodes = (
(219,150,o),
(214,238,o),
(241,374,cs),
(271,528,o),
(310,569,o),
(364,569,cs),
(436,569,o),
(441,481,o),
(414,345,cs),
(384,191,o),
(345,150,o),
(291,150,cs)
);
}
);
width = 618;
},
{
background = {
shapes = (
{
closed = 1;
nodes = (
(600,-10,o),
(749,161,o),
(749,417,cs),
(749,604,o),
(642,729,o),
(453,729,cs),
(229,729,o),
(80,558,o),
(80,302,cs),
(80,114,o),
(187,-10,o),
(376,-10,cs)
);
},
{
closed = 1;
nodes = (
(224,24,o),
(120,118,o),
(120,304,cs),
(120,536,o),
(254,695,o),
(448,695,cs),
(605,695,o),
(709,601,o),
(709,415,cs),
(709,183,o),
(575,24,o),
(381,24,cs)
);
}
);
};
layerId = "C17B1F32-8075-45B4-AA59-7DAFF0D7E404";
shapes = (
{
closed = 1;
nodes = (
(603,-9,o),
(748,158,o),
(748,412,cs),
(748,601,o),
(639,729,o),
(446,729,cs),
(226,729,o),
(81,562,o),
(81,308,cs),
(81,118,o),
(190,-9,o),
(383,-9,cs)
);
},
{
closed = 1;
nodes = (
(227,25,o),
(120,121,o),
(120,309,cs),
(120,539,o),
(251,695,o),
(442,695,cs),
(602,695,o),
(709,599,o),
(709,411,cs),
(709,181,o),
(578,25,o),
(387,25,cs)
);
}
);
width = 787;
},
{
layerId = "377EF8AC-8B0D-46C2-96BB-3B5B69A8F571";
shapes = (
{
closed = 1;
nodes = (
(646,-7,o),
(819,139,o),
(828,394,cs),
(835,594,o),
(705,727,o),
(474,727,cs),
(231,727,o),
(60,581,o),
(51,327,cs),
(44,127,o),
(173,-7,o),
(405,-7,cs)
);
},
{
closed = 1;
nodes = (
(328,173,o),
(269,229,o),
(273,333,cs),
(278,461,o),
(340,548,o),
(461,548,cs),
(551,548,o),
(609,492,o),
(606,388,cs),
(601,261,o),
(539,173,o),
(419,173,cs)
);
}
);
width = 843;
}
);
unicode = 48;
userData = {
KernOnName = zero;
};
}
{
color = 3;
glyphname = one;
kernLeft = one;
kernRight = one;
layers = (
{
layerId = "E787E54A-EE3E-475A-BF02-8501A6DA5144";
shapes = (
{
closed = 1;
nodes = (
(343,0,l),
(343,721,l),
(177,721,l),
(170,643,o),
(121,591,o),
(58,591,cs),
(26,591,l),
(26,446,l),
(163,446,l),
(163,0,l)
);
}
);
width = 386;
},
{
layerId = "5713303B-ED49-44A7-8230-B5CAE56DEB7E";
shapes = (
{
closed = 1;
nodes = (
(168,0,l),
(168,721,l),
(139,721,l),
(137,665,o),
(118,627,o),
(63,627,cs),
(45,627,l),
(45,597,l),
(137,597,l),
(137,0,l)
);
}
);
width = 228;
},
{
layerId = master01;
shapes = (
{
closed = 1;
nodes = (
(241,0,l),
(241,721,l),
(202,721,l),
(196,653,o),
(165,608,o),
(66,608,cs),
(41,608,l),
(41,579,l),
(204,579,l),
(204,0,l)
);
}
);
userData = {
com.schriftgestaltung.hints = (
{
horizontal = 1;
options = 0;
origin = (
0,
9
);
stem = -2;
target = (
u,
p
);
type = BottomGhost;
},
{
horizontal = 1;
options = 0;
origin = (
0,
6
);
stem = -2;
target = (
0,
7
);
type = Stem;
},
{
horizontal = 0;
options = 0;
origin = (
0,
9
);
stem = -2;
target = (
0,
0
);
type = Stem;
}
);
};
width = 359;
},
{
layerId = "1EDCBF6C-9964-4A28-BC87-E86B534B8BE7";
shapes = (
{
closed = 1;
nodes = (
(395,0,l),
(395,721,l),
(216,721,l),
(208,643,o),
(140,591,o),
(47,591,cs),
(15,591,l),
(15,446,l),
(204,446,l),
(204,0,l)
);
}
);
width = 472;
},
{
layerId = "28A8A76A-23B4-40F5-83B9-DC51E48BF161";
shapes = (
{
closed = 1;
nodes = (
(234,0,l),
(234,721,l),
(195,721,l),
(189,653,o),
(158,608,o),
(59,608,cs),
(25,608,l),
(25,579,l),
(197,579,l),
(197,0,l)
);
}
);
width = 312;
},
{
layerId = "D2144554-01B8-4B9B-B16A-E0E5B5794DFC";
shapes = (
{
closed = 1;
nodes = (
(428,0,l),
(428,721,l),
(217,721,l),
(209,643,o),
(141,591,o),
(48,591,cs),
(16,591,l),
(16,429,l),
(205,429,l),
(205,0,l)
);
}
);
width = 482;
},
{
layerId = "23BA42C1-D468-4A44-9BE5-E18AE60B7926";
shapes = (
{
closed = 1;
nodes = (
(111,0,l),
(263,721,l),
(234,721,l),
(220,665,o),
(194,627,o),
(139,627,cs),
(121,627,l),
(115,597,l),
(206,597,l),
(80,0,l)
);
}
);
width = 227;
},
{
layerId = "2D4E69BA-A319-45D0-84B7-5297BCF4B7A0";
shapes = (
{
closed = 1;
nodes = (
(282,0,l),
(434,721,l),
(270,721,l),
(246,643,o),
(187,591,o),
(125,591,cs),
(93,591,l),
(62,446,l),
(198,446,l),
(104,0,l)
);
}
);
width = 384;
},
{
layerId = "095FE76F-1953-440B-9108-AA0678D151F9";
shapes = (
{
closed = 1;
nodes = (
(175,0,l),
(324,721,l),
(287,721,l),
(266,649,o),
(223,608,o),
(137,608,cs),
(113,608,l),
(107,579,l),
(257,579,l),
(137,0,l)
);
}
);
width = 347;
},
{
guides = (
{
pos = (298,721);
}
);
layerId = "63AAE8D6-1DFF-4DD4-BD9A-49272FE52904";
shapes = (
{
closed = 1;
nodes = (
(329,0,l),
(479,721,l),
(298,721,l),
(273,643,o),
(197,591,o),
(111,591,cs),
(81,591,l),
(50,443,l),
(227,443,l),
(136,0,l)
);
}
);
width = 463;
},
{
layerId = "C17B1F32-8075-45B4-AA59-7DAFF0D7E404";
shapes = (
{
closed = 1;
nodes = (
(174,0,l),
(325,721,l),
(287,721,l),
(266,652,o),
(226,608,o),
(130,608,cs),
(97,608,l),
(91,579,l),
(256,579,l),
(135,0,l)
);
}
);
width = 307;
},
{
layerId = "377EF8AC-8B0D-46C2-96BB-3B5B69A8F571";
shapes = (
{
closed = 1;
nodes = (
(366,0,l),
(516,721,l),
(308,721,l),
(283,643,o),
(206,591,o),
(114,591,cs),
(83,591,l),
(49,429,l),
(235,429,l),
(145,0,l)
);
}
);
width = 477;
}
);
unicode = 49;
userData = {
KernOnName = one;
};
}
{
glyphname = two;
kernLeft = two;
kernRight = two;
layers = (
{
layerId = "E787E54A-EE3E-475A-BF02-8501A6DA5144";
shapes = (
{
closed = 1;
nodes = (
(444,0,l),
(444,148,l),
(247,148,l),
(252,203,o),
(440,354,o),
(440,520,cs),
(440,670,o),
(355,730,o),
(224,730,cs),
(81,730,o),
(4,629,o),
(13,474,c),
(189,474,l),
(185,526,o),
(186,580,o),
(224,580,cs),
(250,580,o),
(260,560,o),
(260,518,cs),
(260,390,o),
(23,220,o),
(23,48,cs),
(23,0,l)
);
}
);
width = 459;
},
{
layerId = "5713303B-ED49-44A7-8230-B5CAE56DEB7E";
shapes = (
{
closed = 1;
nodes = (
(318,0,l),
(318,29,l),
(67,29,l),
(67,181,o),
(303,347,o),
(303,561,cs),
(303,654,o),
(260,730,o),
(169,730,cs),
(78,730,o),
(27,654,o),
(31,514,c),
(63,514,l),
(60,629,o),
(90,701,o),
(169,701,cs),
(230,701,o),
(271,656,o),
(271,558,cs),
(271,349,o),
(33,206,o),
(33,14,cs),
(33,0,l)
);
}
);
width = 336;
},
{
background = {
shapes = (
{
closed = 1;
nodes = (
(494,0,l),
(494,34,l),
(90,34,l),
(99,242,o),
(483,300,o),
(483,532,cs),
(483,646,o),
(400,730,o),
(272,730,cs),
(139,730,o),
(47,643,o),
(52,515,c),
(86,515,l),
(82,624,o),
(158,696,o),
(269,696,cs),
(375,696,o),
(445,630,o),
(445,529,cs),
(445,309,o),
(51,269,o),
(51,13,cs),
(51,0,l)
);
}
);
};
layerId = master01;
shapes = (
{
closed = 1;
nodes = (
(487,0,l),
(487,34,l),
(90,34,l),
(103,247,o),
(481,300,o),
(481,532,cs),
(481,652,o),
(400,729,o),
(269,729,cs),
(135,729,o),
(44,639,o),
(49,512,c),
(87,513,l),
(83,621,o),
(157,695,o),
(269,695,cs),
(377,695,o),
(442,634,o),
(442,532,cs),
(442,319,o),
(54,264,o),
(54,20,cs),
(54,0,l)
);
}
);
userData = {
com.schriftgestaltung.hints = (
{
horizontal = 1;
options = 0;
origin = (
0,
2
);
stem = -2;
target = (
0,
25
);
type = Stem;
},
{
horizontal = 1;
options = 0;
origin = (
0,
11
);
stem = -2;
target = (
0,
18
);
type = Stem;
},
{
horizontal = 0;
options = 0;
origin = (
0,
14
);
stem = -2;
target = (
0,
15
);
type = Stem;
},
{
horizontal = 0;
options = 0;
origin = (
0,
21
);
stem = -2;
target = (
0,
8
);
type = Stem;
}
);
};
width = 534;
},
{
background = {
shapes = (
{
closed = 1;
nodes = (
(563,0,l),
(563,165,l),
(180,165,l),
(262,133,l),
(258,227,o),
(558,285,o),
(558,511,cs),
(558,639,o),
(460,729,o),
(307,729,cs),
(143,729,o),
(36,639,o),
(26,487,c),
(215,487,l),
(216,532,o),
(242,568,o),
(297,568,cs),
(337,568,o),
(367,544,o),
(367,503,cs),
(367,367,o),
(25,322,o),
(25,35,cs),
(25,0,l)
);
}
);
};
layerId = "1EDCBF6C-9964-4A28-BC87-E86B534B8BE7";
shapes = (
{
closed = 1;
nodes = (
(555,0,l),
(555,165,l),
(242,165,l),
(301,243,o),
(558,312,o),
(558,511,cs),
(558,639,o),
(460,729,o),
(307,729,cs),
(143,729,o),
(36,639,o),
(26,487,c),
(215,487,l),
(216,532,o),
(242,568,o),
(297,568,cs),
(337,568,o),
(367,544,o),
(367,503,cs),
(367,367,o),
(27,322,o),
(27,35,cs),
(27,0,l)
);
}
);
width = 591;
},
{
layerId = "28A8A76A-23B4-40F5-83B9-DC51E48BF161";
shapes = (
{
closed = 1;
nodes = (
(577,0,l),
(577,34,l),
(69,34,l),
(69,239,o),
(563,251,o),
(563,524,cs),
(563,647,o),
(468,730,o),
(303,730,cs),
(141,730,o),
(32,648,o),
(33,507,c),
(68,507,l),
(68,620,o),
(154,696,o),
(301,696,cs),
(435,696,o),
(524,636,o),
(524,521,cs),
(524,267,o),
(32,283,o),
(32,17,cs),
(32,0,l)
);
}
);
width = 605;
},
{
layerId = "D2144554-01B8-4B9B-B16A-E0E5B5794DFC";
shapes = (
{
closed = 1;
nodes = (
(627,0,l),
(627,167,l),
(305,167,l),
(371,221,o),
(624,289,o),
(624,493,cs),
(624,635,o),
(518,729,o),
(333,729,cs),
(143,729,o),
(32,647,o),
(12,468,c),
(226,468,l),
(233,524,o),
(263,559,o),
(326,559,cs),
(356,559,o),
(401,539,o),
(401,488,cs),
(401,347,o),
(9,311,o),
(9,33,cs),
(9,0,l)
);
}
);
width = 647;
},
{
layerId = "23BA42C1-D468-4A44-9BE5-E18AE60B7926";
shapes = (
{
closed = 1;
nodes = (
(262,0,l),
(267,29,l),
(19,29,l),
(40,186,o),
(314,323,o),
(362,550,cs),
(382,649,o),
(350,730,o),
(252,730,cs),
(171,730,o),
(112,662,o),
(88,532,c),
(120,532,l),
(139,637,o),
(180,700,o),
(249,700,cs),
(322,700,o),
(348,638,o),
(330,552,cs),
(285,335,o),
(21,219,o),
(-16,27,cs),
(-21,0,l)
);
}
);
width = 334;
},
{
layerId = "2D4E69BA-A319-45D0-84B7-5297BCF4B7A0";
shapes = (
{
closed = 1;
nodes = (
(386,0,l),
(417,148,l),
(222,148,l),
(242,204,o),
(452,331,o),
(487,500,cs),
(518,650,o),
(444,730,o),
(296,730,cs),
(166,730,o),
(81,636,o),
(58,485,c),
(234,485,l),
(242,550,o),
(260,580,o),
(285,580,cs),
(317,580,o),
(318,550,o),
(310,513,cs),
(285,393,o),
(15,238,o),
(-21,57,cs),
(-32,0,l)
);
}
);
width = 458;
},
{
background = {
shapes = (
{
closed = 1;
nodes = (
(436,0,l),
(443,34,l),
(43,34,l),
(89,269,o),
(536,280,o),
(535,549,cs),
(535,658,o),
(456,729,o),
(344,729,cs),
(219,729,o),
(126,661,o),
(108,516,c),
(144,516,l),
(159,623,o),
(225,695,o),
(342,695,cs),
(436,695,o),
(496,637,o),
(496,551,cs),
(496,297,o),
(62,311,o),
(6,30,cs),
(0,0,l)
);
}
);
};
layerId = "095FE76F-1953-440B-9108-AA0678D151F9";
shapes = (
{
closed = 1;
nodes = (
(449,0,l),
(457,34,l),
(71,34,l),
(109,239,o),
(532,287,o),
(532,540,cs),
(532,652,o),
(453,729,o),
(337,729,cs),
(205,729,o),
(119,652,o),
(98,519,c),
(139,519,l),
(157,630,o),
(225,695,o),
(337,695,cs),
(431,695,o),
(493,633,o),
(493,540,cs),
(493,313,o),
(80,263,o),
(34,43,cs),
(25,0,l)
);
}
);
width = 543;
},
{
background = {
shapes = (
{
closed = 1;
nodes = (
(508,0,l),
(543,165,l),
(245,165,l),
(327,255,o),
(593,314,o),
(593,524,cs),
(593,647,o),
(498,729,o),
(357,729,cs),
(206,729,o),
(94,631,o),
(76,486,c),
(258,486,l),
(259,540,o),
(293,572,o),
(341,572,cs),
(381,572,o),
(408,547,o),
(408,508,cs),
(408,366,o),
(19,328,o),
(-18,17,cs),
(-20,0,l)
);
}
);
};
guides = (
{
pos = (228,487);
}
);
layerId = "63AAE8D6-1DFF-4DD4-BD9A-49272FE52904";
shapes = (
{
closed = 1;
nodes = (
(508,0,l),
(543,165,l),
(245,165,l),
(320,250,o),
(594,311,o),
(594,521,cs),
(594,646,o),
(506,729,o),
(354,729,cs),
(199,729,o),
(84,631,o),
(74,486,c),
(258,486,l),
(259,538,o),
(293,569,o),
(341,569,cs),
(380,569,o),
(405,547,o),
(405,509,cs),
(405,379,o),
(39,337,o),
(-15,36,cs),
(-21,0,l)
);
}
);
width = 592;
},
{
background = {
shapes = (
{
closed = 1;
nodes = (
(550,0,l),
(557,34,l),
(51,34,l),
(89,256,o),
(629,238,o),
(629,527,cs),
(629,648,o),
(532,729,o),
(388,729,cs),
(221,729,o),
(107,648,o),
(79,508,c),
(118,508,l),
(145,628,o),
(241,695,o),
(388,695,cs),
(510,695,o),
(590,628,o),
(590,526,cs),
(590,263,o),
(64,286,o),
(14,44,cs),
(5,0,l)
);
}
);
};
layerId = "C17B1F32-8075-45B4-AA59-7DAFF0D7E404";
shapes = (
{
closed = 1;
nodes = (
(550,0,l),
(557,34,l),
(50,34,l),
(97,256,o),
(629,238,o),
(629,527,cs),
(629,648,o),
(532,729,o),
(388,729,cs),
(221,729,o),
(107,648,o),
(79,508,c),
(118,508,l),
(145,628,o),
(241,695,o),
(388,695,cs),
(510,695,o),
(590,628,o),
(590,526,cs),
(590,263,o),
(64,286,o),
(12,35,cs),
(5,0,l)
);
}
);
width = 627;
},
{
background = {
shapes = (
{
closed = 1;
nodes = (
(599,0,l),
(630,170,l),
(319,170,l),
(447,254,o),
(680,306,o),
(680,510,cs),
(680,652,o),
(555,730,o),
(387,730,cs),
(209,730,o),
(74,639,o),
(53,476,c),
(271,476,l),
(280,529,o),
(316,564,o),
(379,564,cs),
(425,564,o),
(456,536,o),
(456,495,cs),
(456,355,o),
(10,317,o),
(-25,17,cs),
(-27,0,l)
);
}
);
};
layerId = "377EF8AC-8B0D-46C2-96BB-3B5B69A8F571";
shapes = (
{
closed = 1;
nodes = (
(599,0,l),
(630,170,l),
(298,170,l),
(415,243,o),
(680,293,o),
(680,507,cs),
(680,650,o),
(563,730,o),
(389,730,cs),
(207,730,o),
(74,639,o),
(53,476,c),
(271,476,l),
(280,529,o),
(316,564,o),
(379,564,cs),
(428,564,o),
(456,540,o),
(456,497,cs),
(456,363,o),
(34,363,o),
(-22,38,cs),
(-28,0,l)
);
}
);
width = 667;
},
{
layerId = "71D8B5AD-B400-4239-9672-E7BA455EF2D0";
shapes = (
{
closed = 1;
nodes = (
(298,0,l),
(298,29,l),
(47,29,l),
(47,181,o),
(283,347,o),
(283,561,cs),
(283,654,o),
(240,730,o),
(149,730,cs),
(58,730,o),
(7,654,o),
(11,514,c),
(43,514,l),
(40,629,o),
(70,701,o),
(149,701,cs),
(210,701,o),
(251,656,o),
(251,558,cs),
(251,349,o),
(13,206,o),
(13,14,cs),
(13,0,l)
);
}
);
width = 306;
},
{
layerId = "FFCA1F59-E305-4E0F-BBF9-E0C4511C19C1";
shapes = (
{
closed = 1;
nodes = (
(435,0,l),
(435,148,l),
(238,148,l),
(243,203,o),
(431,354,o),
(431,520,cs),
(431,670,o),
(346,730,o),
(215,730,cs),
(72,730,o),
(-5,629,o),
(4,474,c),
(180,474,l),
(176,526,o),
(177,580,o),
(215,580,cs),
(241,580,o),
(251,560,o),
(251,518,cs),
(251,390,o),
(14,220,o),
(14,48,cs),
(14,0,l)
);
}
);
width = 441;
},
{
background = {
shapes = (
{
closed = 1;
nodes = (
(494,0,l),
(494,34,l),
(90,34,l),
(99,242,o),
(483,300,o),
(483,532,cs),
(483,646,o),
(400,730,o),
(272,730,cs),
(139,730,o),
(47,643,o),
(52,515,c),
(86,515,l),
(82,624,o),
(158,696,o),
(269,696,cs),
(375,696,o),
(445,630,o),
(445,529,cs),
(445,309,o),
(51,269,o),
(51,13,cs),
(51,0,l)
);
}
);
};
layerId = "5A048DDA-4734-4F8A-A53C-0BED34B57D1C";
shapes = (
{
closed = 1;
nodes = (
(467,0,l),
(467,34,l),
(70,34,l),
(83,247,o),
(461,300,o),
(461,532,cs),
(461,652,o),
(380,729,o),
(249,729,cs),
(115,729,o),
(24,639,o),
(29,512,c),
(67,513,l),
(63,621,o),
(137,695,o),
(249,695,cs),
(357,695,o),
(422,634,o),
(422,532,cs),
(422,319,o),
(34,264,o),
(34,20,cs),
(34,0,l)
);
}
);
userData = {
com.schriftgestaltung.hints = (
{
horizontal = 1;
options = 0;
origin = (
0,
2
);
stem = -2;
target = (
0,
25
);
type = Stem;
},
{
horizontal = 1;
options = 0;
origin = (
0,
11
);
stem = -2;
target = (
0,
18
);
type = Stem;
},
{
horizontal = 0;
options = 0;
origin = (
0,
14
);
stem = -2;
target = (
0,
15
);
type = Stem;
},
{
horizontal = 0;
options = 0;
origin = (
0,
21
);
stem = -2;
target = (
0,
8
);
type = Stem;
}
);
};
width = 494;
},
{
background = {
shapes = (
{
closed = 1;
nodes = (
(563,0,l),
(563,165,l),
(180,165,l),
(262,133,l),
(258,227,o),
(558,285,o),
(558,511,cs),
(558,639,o),
(460,729,o),
(307,729,cs),
(143,729,o),
(36,639,o),
(26,487,c),
(215,487,l),
(216,532,o),
(242,568,o),
(297,568,cs),
(337,568,o),
(367,544,o),
(367,503,cs),
(367,367,o),
(25,322,o),
(25,35,cs),
(25,0,l)
);
}
);
};
layerId = "DED42A87-C949-4722-A202-2B551272A3FB";
shapes = (
{
closed = 1;
nodes = (
(534,0,l),
(534,165,l),
(221,165,l),
(280,243,o),
(537,312,o),
(537,511,cs),
(537,639,o),
(439,729,o),
(286,729,cs),
(122,729,o),
(15,639,o),
(5,487,c),
(194,487,l),
(195,532,o),
(221,568,o),
(276,568,cs),
(316,568,o),
(346,544,o),
(346,503,cs),
(346,367,o),
(6,322,o),
(6,35,cs),
(6,0,l)
);
}
);
width = 549;
},
{
layerId = "106FCE83-F343-403B-A314-646E4D059B3F";
shapes = (
{
closed = 1;
nodes = (
(567,0,l),
(567,34,l),
(59,34,l),
(59,239,o),
(553,251,o),
(553,524,cs),
(553,647,o),
(458,730,o),
(293,730,cs),
(131,730,o),
(22,648,o),
(23,507,c),
(58,507,l),
(58,620,o),
(144,696,o),
(291,696,cs),
(425,696,o),
(514,636,o),
(514,521,cs),
(514,267,o),
(22,283,o),
(22,17,cs),
(22,0,l)
);
}
);
width = 585;
},
{
layerId = "2D1A1AFE-39FB-4EBD-856C-88C6B057247F";
shapes = (
{
closed = 1;
nodes = (
(622,0,l),
(622,167,l),
(300,167,l),
(366,221,o),
(619,289,o),
(619,493,cs),
(619,635,o),
(513,729,o),
(328,729,cs),
(138,729,o),
(27,647,o),
(7,468,c),
(221,468,l),
(228,524,o),
(258,559,o),
(321,559,cs),
(351,559,o),
(396,539,o),
(396,488,cs),
(396,347,o),
(4,311,o),
(4,33,cs),
(4,0,l)
);
}
);
width = 632;
}
);
unicode = 50;
userData = {
KernOnName = two;
};
}
{
glyphname = three;
kernLeft = three;
kernRight = three;
layers = (
{
background = {
shapes = (
{
closed = 1;
nodes = (
(368,-10,o),
(460,69,o),
(460,210,cs),
(460,288,o),
(427,352,o),
(367,369,c),
(367,376,l),
(421,397,o),
(449,460,o),
(449,531,cs),
(449,650,o),
(373,730,o),
(239,730,cs),
(103,730,o),
(15,647,o),
(18,499,c),
(197,499,l),
(194,554,o),
(208,580,o),
(232,580,cs),
(263,580,o),
(272,560,o),
(272,507,cs),
(272,467,o),
(255,431,o),
(213,431,cs),
(157,431,l),
(157,300,l),
(219,300,ls),
(256,300,o),
(280,276,o),
(280,219,cs),
(280,162,o),
(265,140,o),
(232,140,cs),
(208,140,o),
(192,161,o),
(192,225,c),
(12,225,l),
(8,84,o),
(69,-10,o),
(230,-10,cs)
);
}
);
};
layerId = "E787E54A-EE3E-475A-BF02-8501A6DA5144";
shapes = (
{
closed = 1;
nodes = (
(372,-10,o),
(465,70,o),
(465,212,cs),
(465,291,o),
(432,356,o),
(361,373,c),
(361,380,l),
(426,402,o),
(454,465,o),
(454,537,cs),
(454,657,o),
(377,738,o),
(242,738,cs),
(104,738,o),
(15,654,o),
(18,505,c),
(199,505,l),
(196,560,o),
(210,587,o),
(235,587,cs),
(266,587,o),
(275,566,o),
(275,513,cs),
(275,472,o),
(258,436,o),
(215,436,cs),
(159,436,l),
(159,303,l),
(222,303,ls),
(259,303,o),
(283,279,o),
(283,222,cs),
(283,164,o),
(268,142,o),
(235,142,cs),
(210,142,o),
(194,163,o),
(194,228,c),
(12,228,l),
(8,85,o),
(70,-10,o),
(233,-10,cs)
);
}
);
width = 478;
},
{
layerId = "5713303B-ED49-44A7-8230-B5CAE56DEB7E";
shapes = (
{
closed = 1;
nodes = (
(274,-8,o),
(327,66,o),
(327,197,cs),
(327,290,o),
(295,357,o),
(231,377,c),
(231,381,l),
(286,404,o),
(318,472,o),
(318,553,cs),
(318,668,o),
(259,737,o),
(171,737,cs),
(85,737,o),
(28,669,o),
(32,521,c),
(64,521,l),
(61,634,o),
(91,709,o),
(171,709,cs),
(241,709,o),
(285,650,o),
(285,551,cs),
(285,465,o),
(252,394,o),
(179,394,cs),
(144,394,l),
(144,363,l),
(179,363,ls),
(253,363,o),
(294,299,o),
(294,198,cs),
(294,83,o),
(258,19,o),
(181,19,cs),
(109,19,o),
(61,76,o),
(63,223,c),
(30,223,l),
(29,84,o),
(72,-8,o),
(181,-8,cs)
);
}
);
width = 366;
},
{
background = {
shapes = (
{
closed = 1;
nodes = (
(413,-8,o),
(506,73,o),
(506,195,cs),
(506,289,o),
(454,356,o),
(365,374,c),
(365,378,l),
(442,400,o),
(493,461,o),
(493,547,cs),
(493,657,o),
(411,730,o),
(277,730,cs),
(142,730,o),
(50,641,o),
(55,514,c),
(93,515,l),
(89,624,o),
(164,697,o),
(277,697,cs),
(383,697,o),
(454,642,o),
(454,546,cs),
(454,459,o),
(397,391,o),
(289,391,cs),
(221,391,l),
(221,358,l),
(287,358,ls),
(394,358,o),
(466,306,o),
(466,196,cs),
(466,92,o),
(389,26,o),
(272,26,cs),
(156,26,o),
(81,104,o),
(85,220,c),
(50,220,l),
(46,83,o),
(135,-8,o),
(273,-8,cs)
);
}
);
};
layerId = master01;
shapes = (
{
closed = 1;
nodes = (
(413,-8,o),
(507,74,o),
(507,197,cs),
(507,292,o),
(456,360,o),
(369,378,c),
(369,382,l),
(447,405,o),
(504,466,o),
(504,553,cs),
(504,665,o),
(421,738,o),
(285,738,cs),
(157,738,o),
(67,658,o),
(62,541,c),
(100,541,l),
(106,638,o),
(178,705,o),
(285,705,cs),
(392,705,o),
(464,649,o),
(464,552,cs),
(464,458,o),
(397,395,o),
(275,395,cs),
(224,395,l),
(224,362,l),
(290,362,ls),
(395,362,o),
(466,310,o),
(466,198,cs),
(466,93,o),
(388,26,o),
(269,26,cs),
(161,26,o),
(89,92,o),
(83,189,c),
(45,189,l),
(50,72,o),
(140,-8,o),
(269,-8,cs)
);
}
);
userData = {
com.schriftgestaltung.hints = (
{
horizontal = 1;
options = 0;
origin = (
0,
34
);
stem = -2;
target = (
0,
41
);
type = Stem;
},
{
horizontal = 1;
options = 0;
origin = (
0,
26
);
stem = -2;
target = (
0,
27
);
type = Stem;
},
{
horizontal = 1;
options = 0;
origin = (
0,
12
);
stem = -2;
target = (
0,
19
);
type = Stem;
},
{
horizontal = 0;
options = 0;
origin = (
0,
38
);
stem = -2;
target = (
0,
37
);
type = Stem;
},
{
horizontal = 0;
options = 0;
origin = (
0,
27
);
stem = -2;
target = (
0,
5
);
type = Stem;
},
{
horizontal = 0;
options = 0;
origin = (
0,
31
);
stem = -2;
target = (
0,
2
);
type = Stem;
},
{
horizontal = 0;
options = 0;
origin = (
0,
15
);
stem = -2;
target = (
0,
16
);
type = Stem;
},
{
horizontal = 0;
options = 0;
origin = (
0,
22
);
stem = -2;
target = (
0,
9
);
type = Stem;
}
);
};
width = 569;
},
{
background = {
shapes = (
{
closed = 1;
nodes = (
(1266,-10,o),
(1384,69,o),
(1384,210,cs),
(1384,288,o),
(1336,355,o),
(1265,371,c),
(1265,378,l),
(1324,397,o),
(1368,457,o),
(1368,528,cs),
(1368,655,o),
(1264,730,o),
(1109,730,cs),
(940,730,o),
(834,640,o),
(829,499,c),
(1018,499,l),
(1021,542,o),
(1053,568,o),
(1102,568,cs),
(1149,568,o),
(1177,546,o),
(1177,505,cs),
(1177,464,o),
(1149,436,o),
(1097,436,cs),
(1019,436,l),
(1019,295,l),
(1105,295,ls),
(1159,295,o),
(1187,270,o),
(1187,227,cs),
(1187,182,o),
(1156,152,o),
(1101,152,cs),
(1049,152,o),
(1013,178,o),
(1012,225,c),
(822,225,l),
(828,84,o),
(928,-10,o),
(1102,-10,cs)
);
},
{
closed = 1;
nodes = (
(462,-10,o),
(579,69,o),
(579,210,cs),
(579,287,o),
(532,355,o),
(462,371,c),
(462,378,l),
(520,397,o),
(563,458,o),
(563,528,cs),
(563,655,o),
(460,730,o),
(307,730,cs),
(139,730,o),
(34,640,o),
(29,499,c),
(218,499,l),
(221,541,o),
(251,568,o),
(300,568,cs),
(345,568,o),
(372,546,o),
(372,505,cs),
(372,464,o),
(344,436,o),
(294,436,cs),
(217,436,l),
(217,295,l),
(302,295,ls),
(355,295,o),
(382,270,o),
(382,227,cs),
(382,182,o),
(352,152,o),
(299,152,cs),
(249,152,o),
(213,178,o),
(212,225,c),
(22,225,l),
(28,84,o),
(128,-10,o),
(300,-10,cs)
);
}
);
};
layerId = "1EDCBF6C-9964-4A28-BC87-E86B534B8BE7";
shapes = (
{
closed = 1;
nodes = (
(464,-10,o),
(583,70,o),
(583,212,cs),
(583,290,o),
(538,354,o),
(463,375,c),
(463,382,l),
(523,406,o),
(566,464,o),
(566,535,cs),
(566,663,o),
(462,738,o),
(309,738,cs),
(140,738,o),
(34,647,o),
(29,505,c),
(216,505,l),
(219,552,o),
(253,579,o),
(301,579,cs),
(349,579,o),
(377,555,o),
(377,512,cs),
(377,469,o),
(348,440,o),
(296,440,cs),
(218,440,l),
(218,300,l),
(304,300,ls),
(359,300,o),
(387,274,o),
(387,229,cs),
(387,182,o),
(356,150,o),
(300,150,cs),
(249,150,o),
(210,178,o),
(210,228,c),
(22,228,l),
(28,85,o),
(128,-10,o),
(301,-10,cs)
);
}
);
width = 610;
},
{
layerId = "28A8A76A-23B4-40F5-83B9-DC51E48BF161";
shapes = (
{
closed = 1;
nodes = (
(504,-8,o),
(620,68,o),
(620,197,cs),
(620,303,o),
(550,367,o),
(437,377,c),
(437,381,l),
(533,395,o),
(604,457,o),
(604,553,cs),
(604,684,o),
(485,737,o),
(326,737,cs),
(163,737,o),
(38,647,o),
(47,510,c),
(82,510,l),
(81,630,o),
(183,703,o),
(326,703,cs),
(466,703,o),
(565,659,o),
(565,552,cs),
(565,459,o),
(502,395,o),
(342,395,cs),
(255,395,l),
(255,362,l),
(354,362,ls),
(490,362,o),
(580,320,o),
(580,198,cs),
(580,95,o),
(494,26,o),
(320,26,cs),
(169,26,o),
(68,92,o),
(68,223,c),
(30,223,l),
(30,86,o),
(135,-8,o),
(320,-8,cs)
);
}
);
width = 657;
},
{
layerId = "D2144554-01B8-4B9B-B16A-E0E5B5794DFC";
shapes = (
{
closed = 1;
nodes = (
(566,-10,o),
(687,79,o),
(687,209,cs),
(687,299,o),
(627,363,o),
(541,373,c),
(541,380,l),
(625,401,o),
(673,461,o),
(673,537,cs),
(673,665,o),
(556,738,o),
(354,738,cs),
(156,738,o),
(29,665,o),
(17,500,c),
(236,500,l),
(245,553,o),
(281,575,o),
(345,575,cs),
(409,575,o),
(445,551,o),
(445,509,cs),
(445,468,o),
(414,441,o),
(348,441,cs),
(248,441,l),
(248,298,l),
(350,298,ls),
(425,298,o),
(459,274,o),
(459,232,cs),
(459,182,o),
(421,154,o),
(344,154,cs),
(277,154,o),
(235,177,o),
(230,231,c),
(6,231,l),
(14,78,o),
(118,-10,o),
(342,-10,cs)
);
}
);
width = 700;
},
{
background = {
shapes = (
{
closed = 1;
nodes = (
(214,-15,o),
(279,55,o),
(305,184,cs),
(321,259,o),
(316,339,o),
(249,369,c),
(250,373,l),
(309,390,o),
(354,457,o),
(369,531,cs),
(392,643,o),
(355,729,o),
(252,729,cs),
(176,729,o),
(114,667,o),
(89,532,c),
(119,532,l),
(139,634,o),
(179,700,o),
(249,700,cs),
(332,700,o),
(356,625,o),
(337,534,cs),
(318,445,o),
(271,384,o),
(203,390,cs),
(170,393,l),
(162,362,l),
(197,359,ls),
(275,352,o),
(293,278,o),
(274,187,cs),
(251,79,o),
(209,19,o),
(139,19,cs),
(39,19,o),
(30,115,o),
(56,230,c),
(23,230,l),
(-4,102,o),
(13,3,o),
(124,-7,cs)
);
}
);
};
layerId = "23BA42C1-D468-4A44-9BE5-E18AE60B7926";
shapes = (
{
closed = 1;
nodes = (
(224,-8,o),
(283,63,o),
(309,186,cs),
(326,265,o),
(314,342,o),
(252,373,c),
(253,377,l),
(313,394,o),
(358,462,o),
(373,537,cs),
(397,650,o),
(360,737,o),
(255,737,cs),
(178,737,o),
(115,675,o),
(90,538,c),
(120,538,l),
(141,641,o),
(181,708,o),
(252,708,cs),
(335,708,o),
(360,632,o),
(341,540,cs),
(322,450,o),
(276,394,o),
(213,394,cs),
(171,394,l),
(163,363,l),
(199,363,ls),
(278,363,o),
(296,281,o),
(277,189,cs),
(254,80,o),
(211,19,o),
(141,19,cs),
(40,19,o),
(30,115,o),
(57,233,c),
(23,233,l),
(-6,95,o),
(18,-8,o),
(140,-8,cs)
);
}
);
width = 364;
},
{
layerId = "2D4E69BA-A319-45D0-84B7-5297BCF4B7A0";
shapes = (
{
closed = 1;
nodes = (
(325,-9,o),
(420,63,o),
(446,191,cs),
(461,262,o),
(451,336,o),
(378,362,c),
(379,369,l),
(461,389,o),
(506,477,o),
(508,560,cs),
(512,667,o),
(443,737,o),
(311,737,cs),
(186,737,o),
(94,661,o),
(72,516,c),
(248,516,l),
(258,563,o),
(276,587,o),
(295,587,cs),
(332,587,o),
(334,557,o),
(323,507,cs),
(315,465,o),
(294,438,o),
(239,438,cs),
(192,438,l),
(165,305,l),
(217,305,ls),
(273,305,o),
(280,265,o),
(271,216,cs),
(260,164,o),
(243,143,o),
(213,143,cs),
(173,143,o),
(176,189,o),
(186,240,c),
(5,240,l),
(-29,78,o),
(40,-9,o),
(203,-9,cs)
);
}
);
width = 476;
},
{
background = {
shapes = (
{
closed = 1;
nodes = (
(375,-6,o),
(476,82,o),
(476,213,cs),
(476,285,o),
(428,351,o),
(376,367,c),
(377,371,l),
(472,388,o),
(536,464,o),
(536,558,cs),
(536,661,o),
(459,729,o),
(344,729,cs),
(215,729,o),
(122,661,o),
(104,516,c),
(140,516,l),
(155,623,o),
(221,695,o),
(344,695,cs),
(437,695,o),
(497,639,o),
(497,554,cs),
(497,451,o),
(417,391,o),
(306,391,cs),
(229,391,l),
(223,358,l),
(292,358,ls),
(382,358,o),
(437,298,o),
(437,214,cs),
(437,103,o),
(363,28,o),
(234,28,cs),
(118,28,o),
(50,101,o),
(74,221,c),
(38,221,l),
(15,91,o),
(93,-6,o),
(231,-6,cs)
);
}
);
};
guides = (
{
pos = (298,391);
},
{
pos = (296,358);
}
);
layerId = "095FE76F-1953-440B-9108-AA0678D151F9";
shapes = (
{
closed = 1;
nodes = (
(379,-10,o),
(481,80,o),
(481,212,cs),
(481,285,o),
(433,353,o),
(380,369,c),
(381,373,l),
(476,393,o),
(542,468,o),
(542,563,cs),
(542,669,o),
(464,737,o),
(348,737,cs),
(227,737,o),
(134,677,o),
(108,541,c),
(145,541,l),
(165,636,o),
(230,703,o),
(348,703,cs),
(442,703,o),
(503,646,o),
(503,559,cs),
(503,455,o),
(422,393,o),
(310,393,cs),
(232,393,l),
(226,360,l),
(295,360,ls),
(385,360,o),
(442,299,o),
(442,213,cs),
(442,101,o),
(367,24,o),
(237,24,cs),
(129,24,o),
(63,86,o),
(71,190,c),
(34,190,l),
(28,73,o),
(105,-10,o),
(234,-10,cs)
);
}
);
width = 555;
},
{
background = {
shapes = (
{
closed = 1;
nodes = (
(438,-10,o),
(563,80,o),
(563,214,cs),
(563,293,o),
(515,349,o),
(469,365,c),
(471,372,l),
(547,396,o),
(605,459,o),
(605,547,cs),
(605,657,o),
(511,729,o),
(379,729,cs),
(213,729,o),
(91,648,o),
(74,505,c),
(262,505,l),
(268,544,o),
(301,567,o),
(345,567,cs),
(380,567,o),
(406,545,o),
(406,511,cs),
(406,466,o),
(370,436,o),
(315,436,cs),
(243,436,l),
(212,295,l),
(293,295,ls),
(333,295,o),
(367,277,o),
(367,229,cs),
(367,180,o),
(333,152,o),
(280,152,cs),
(237,152,o),
(201,171,o),
(199,219,c),
(12,219,l),
(12,82,o),
(104,-10,o),
(269,-10,cs)
);
}
);
};
guides = (
{
pos = (36,225);
},
{
pos = (234,436);
}
);
layerId = "63AAE8D6-1DFF-4DD4-BD9A-49272FE52904";
shapes = (
{
closed = 1;
nodes = (
(443,-10,o),
(569,81,o),
(569,216,cs),
(569,296,o),
(521,353,o),
(474,369,c),
(476,376,l),
(567,412,o),
(610,477,o),
(610,551,cs),
(610,663,o),
(518,737,o),
(379,737,cs),
(215,737,o),
(92,655,o),
(75,511,c),
(265,511,l),
(271,548,o),
(298,574,o),
(347,574,cs),
(388,574,o),
(411,551,o),
(411,517,cs),
(411,471,o),
(374,441,o),
(319,441,cs),
(246,441,l),
(214,298,l),
(296,298,ls),
(337,298,o),
(371,280,o),
(371,232,cs),
(371,182,o),
(337,154,o),
(283,154,cs),
(240,154,o),
(203,173,o),
(201,222,c),
(12,222,l),
(10,84,o),
(105,-10,o),
(272,-10,cs)
);
}
);
width = 608;
},
{
background = {
shapes = (
{
closed = 1;
nodes = (
(469,-10,o),
(598,71,o),
(603,204,cs),
(606,290,o),
(544,356,o),
(457,370,c),
(459,374,l),
(579,392,o),
(656,456,o),
(660,552,cs),
(664,659,o),
(571,729,o),
(403,729,cs),
(246,729,o),
(127,644,o),
(105,517,c),
(139,517,l),
(162,624,o),
(266,696,o),
(399,696,cs),
(536,696,o),
(625,649,o),
(622,548,cs),
(619,452,o),
(528,391,o),
(376,391,cs),
(283,391,l),
(276,358,l),
(334,358,ls),
(491,358,o),
(568,307,o),
(564,203,cs),
(560,99,o),
(466,24,o),
(306,24,cs),
(155,24,o),
(59,94,o),
(67,218,c),
(31,218,l),
(23,81,o),
(120,-10,o),
(303,-10,cs)
);
}
);
};
layerId = "C17B1F32-8075-45B4-AA59-7DAFF0D7E404";
shapes = (
{
closed = 1;
nodes = (
(476,-10,o),
(610,74,o),
(610,212,cs),
(610,296,o),
(548,360,o),
(462,374,c),
(464,378,l),
(589,397,o),
(668,464,o),
(668,565,cs),
(668,670,o),
(574,737,o),
(401,737,cs),
(230,737,o),
(115,658,o),
(84,523,c),
(123,523,l),
(154,638,o),
(250,704,o),
(399,704,cs),
(540,704,o),
(629,658,o),
(629,559,cs),
(629,459,o),
(537,395,o),
(380,395,cs),
(286,395,l),
(279,362,l),
(338,362,ls),
(493,362,o),
(570,313,o),
(570,213,cs),
(570,103,o),
(475,24,o),
(310,24,cs),
(157,24,o),
(60,95,o),
(68,221,c),
(31,221,l),
(23,82,o),
(121,-10,o),
(306,-10,cs)
);
}
);
width = 661;
},
{
background = {
shapes = (
{
closed = 1;
nodes = (
(508,-9,o),
(651,73,o),
(656,216,cs),
(659,294,o),
(615,352,o),
(544,365,c),
(545,372,l),
(640,390,o),
(706,450,o),
(709,536,cs),
(714,683,o),
(555,728,o),
(421,728,cs),
(235,728,o),
(94,660,o),
(62,497,c),
(276,497,l),
(292,543,o),
(327,567,o),
(390,567,cs),
(444,567,o),
(479,552,o),
(478,511,cs),
(476,459,o),
(433,436,o),
(359,436,cs),
(271,436,l),
(242,296,l),
(332,296,ls),
(393,296,o),
(436,283,o),
(435,230,cs),
(433,175,o),
(386,153,o),
(312,153,cs),
(250,153,o),
(216,179,o),
(215,230,c),
(-5,230,l),
(-6,86,o),
(73,-9,o),
(298,-9,cs)
);
}
);
};
layerId = "377EF8AC-8B0D-46C2-96BB-3B5B69A8F571";
shapes = (
{
closed = 1;
nodes = (
(517,-9,o),
(664,76,o),
(664,225,cs),
(664,295,o),
(613,355,o),
(550,369,c),
(551,376,l),
(651,402,o),
(707,472,o),
(707,548,cs),
(707,670,o),
(589,736,o),
(426,736,cs),
(236,736,o),
(92,652,o),
(63,503,c),
(279,503,l),
(294,545,o),
(333,574,o),
(394,574,cs),
(448,574,o),
(483,554,o),
(483,515,cs),
(483,465,o),
(439,441,o),
(363,441,cs),
(274,441,l),
(245,299,l),
(336,299,ls),
(397,299,o),
(440,286,o),
(440,235,cs),
(440,178,o),
(391,155,o),
(320,155,cs),
(258,155,o),
(218,183,o),
(217,233,c),
(-5,233,l),
(-6,88,o),
(104,-9,o),
(304,-9,cs)
);
}
);
width = 688;
}
);
unicode = 51;
userData = {
KernOnName = three;
};
}
{
glyphname = four;
kernLeft = four;
kernRight = four;
layers = (
{
layerId = "E787E54A-EE3E-475A-BF02-8501A6DA5144";
shapes = (
{
closed = 1;
nodes = (
(442,0,l),
(442,729,l),
(224,729,l),
(13,296,l),
(13,154,l),
(509,154,l),
(509,311,l),
(173,311,l),
(280,549,l),
(260,549,l),
(260,0,l)
);
}
);
width = 522;
},
{
layerId = "5713303B-ED49-44A7-8230-B5CAE56DEB7E";
shapes = (
{
closed = 1;
nodes = (
(292,0,l),
(292,729,l),
(246,729,l),
(7,224,l),
(7,197,l),
(365,197,l),
(365,227,l),
(40,227,l),
(261,696,l),
(260,696,l),
(260,0,l)
);
}
);
width = 369;
},
{
layerId = master01;
shapes = (
{
closed = 1;
nodes = (
(435,0,l),
(435,729,l),
(392,729,l),
(33,233,l),
(33,198,l),
(579,198,l),
(579,232,l),
(77,232,l),
(408,693,l),
(398,693,l),
(398,0,l)
);
}
);
userData = {
com.schriftgestaltung.hints = (
{
horizontal = 1;
options = 0;
origin = (
0,
10
);
stem = -2;
target = (
u,
p
);
type = BottomGhost;
},
{
horizontal = 1;
options = 0;
origin = (
1,
2
);
stem = -2;
target = (
0,
8
);
type = Stem;
},
{
horizontal = 1;
options = 0;
place = (
0,
0
);
stem = -2;
type = Stem;
},
{
horizontal = 0;
options = 0;
origin = (
0,
10
);
stem = -2;
target = (
0,
0
);
type = Stem;
}
);
};
width = 610;
},
{
layerId = "1EDCBF6C-9964-4A28-BC87-E86B534B8BE7";
shapes = (
{
closed = 1;
nodes = (
(540,0,l),
(540,729,l),
(306,729,l),
(20,296,l),
(20,154,l),
(649,154,l),
(649,311,l),
(209,311,l),
(399,596,l),
(347,596,l),
(347,0,l)
);
}
);
width = 670;
},
{
layerId = "28A8A76A-23B4-40F5-83B9-DC51E48BF161";
shapes = (
{
closed = 1;
nodes = (
(540,0,l),
(540,729,l),
(499,729,l),
(19,235,l),
(19,199,l),
(700,199,l),
(700,232,l),
(66,232,l),
(505,685,l),
(503,685,l),
(503,0,l)
);
}
);
width = 718;
},
{
layerId = "D2144554-01B8-4B9B-B16A-E0E5B5794DFC";
shapes = (
{
closed = 1;
nodes = (
(612,0,l),
(612,729,l),
(344,729,l),
(5,296,l),
(5,146,l),
(723,146,l),
(723,320,l),
(244,320,l),
(387,513,l),
(386,513,l),
(386,0,l)
);
}
);
width = 729;
},
{
layerId = "23BA42C1-D468-4A44-9BE5-E18AE60B7926";
shapes = (
{
closed = 1;
nodes = (
(219,0,l),
(373,729,l),
(328,729,l),
(0,224,l),
(-5,197,l),
(349,197,l),
(355,227,l),
(36,227,l),
(334,689,l),
(333,689,l),
(188,0,l)
);
}
);
width = 365;
},
{
layerId = "2D4E69BA-A319-45D0-84B7-5297BCF4B7A0";
shapes = (
{
closed = 1;
nodes = (
(380,0,l),
(534,729,l),
(318,729,l),
(18,296,l),
(-11,154,l),
(478,154,l),
(513,311,l),
(180,311,l),
(307,506,l),
(306,506,l),
(200,0,l)
);
}
);
width = 517;
},
{
layerId = "095FE76F-1953-440B-9108-AA0678D151F9";
shapes = (
{
closed = 1;
nodes = (
(381,0,l),
(533,729,l),
(494,729,l),
(27,233,l),
(20,198,l),
(563,198,l),
(570,232,l),
(71,232,l),
(486,670,l),
(483,670,l),
(345,0,l)
);
}
);
width = 608;
},
{
background = {
shapes = (
{
closed = 1;
nodes = (
(471,0,l),
(502,152,l),
(588,152,l),
(621,307,l),
(535,307,l),
(621,721,l),
(395,721,l),
(32,293,l),
(2,152,l),
(313,152,l),
(282,0,l)
);
},
{
closed = 1;
nodes = (
(389,512,l),
(345,307,l),
(219,307,l)
);
}
);
};
layerId = "63AAE8D6-1DFF-4DD4-BD9A-49272FE52904";
shapes = (
{
closed = 1;
nodes = (
(482,0,l),
(634,729,l),
(401,729,l),
(24,296,l),
(-5,154,l),
(623,154,l),
(656,311,l),
(216,311,l),
(398,520,l),
(397,520,l),
(289,0,l)
);
}
);
width = 670;
},
{
layerId = "C17B1F32-8075-45B4-AA59-7DAFF0D7E404";
shapes = (
{
closed = 1;
nodes = (
(450,0,l),
(601,729,l),
(560,729,l),
(14,235,l),
(7,199,l),
(640,199,l),
(647,232,l),
(63,232,l),
(555,679,l),
(553,679,l),
(413,0,l)
);
}
);
width = 672;
},
{
layerId = "377EF8AC-8B0D-46C2-96BB-3B5B69A8F571";
shapes = (
{
closed = 1;
nodes = (
(546,0,l),
(700,729,l),
(435,729,l),
(9,296,l),
(-22,146,l),
(686,146,l),
(723,320,l),
(249,320,l),
(464,546,l),
(438,546,l),
(324,0,l)
);
}
);
width = 720;
}
);
unicode = 52;
userData = {
KernOnName = four;
};
}
{
color = 3;
glyphname = five;
kernLeft = five;
kernRight = five;
layers = (
{
layerId = "E787E54A-EE3E-475A-BF02-8501A6DA5144";
shapes = (
{
closed = 1;
nodes = (
(381,-10,o),
(471,72,o),
(471,246,cs),
(471,392,o),
(414,490,o),
(294,490,cs),
(262,490,o),
(230,480,o),
(215,454,c),
(208,457,l),
(217,569,l),
(433,569,l),
(433,721,l),
(52,721,l),
(34,277,l),
(208,277,l),
(209,314,o),
(223,342,o),
(248,342,cs),
(276,342,o),
(291,314,o),
(291,241,cs),
(291,176,o),
(280,140,o),
(246,140,cs),
(221,140,o),
(205,162,o),
(205,219,c),
(25,219,l),
(31,82,o),
(102,-10,o),
(246,-10,cs)
);
}
);
width = 495;
},
{
background = {
shapes = (
{
closed = 1;
nodes = (
(279,-8,o),
(330,65,o),
(330,235,cs),
(330,375,o),
(291,468,o),
(192,468,cs),
(146,468,o),
(105,440,o),
(82,381,c),
(79,382,l),
(88,694,l),
(329,694,l),
(329,721,l),
(61,721,l),
(49,338,l),
(86,338,l),
(103,400,o),
(133,441,o),
(193,441,cs),
(257,441,o),
(300,383,o),
(300,235,cs),
(300,81,o),
(264,17,o),
(187,17,cs),
(114,17,o),
(67,74,o),
(69,220,c),
(40,220,l),
(39,83,o),
(80,-8,o),
(187,-8,cs)
);
}
);
};
layerId = "5713303B-ED49-44A7-8230-B5CAE56DEB7E";
shapes = (
{
closed = 1;
nodes = (
(281,-8,o),
(332,66,o),
(332,235,cs),
(332,384,o),
(293,468,o),
(191,468,cs),
(142,468,o),
(103,441,o),
(83,396,c),
(80,396,l),
(90,692,l),
(331,692,l),
(331,721,l),
(61,721,l),
(49,317,l),
(81,317,l),
(92,396,o),
(126,440,o),
(190,440,cs),
(257,440,o),
(300,391,o),
(300,235,cs),
(300,82,o),
(264,19,o),
(188,19,cs),
(117,19,o),
(69,75,o),
(71,220,c),
(40,220,l),
(39,83,o),
(81,-8,o),
(188,-8,cs)
);
}
);
width = 372;
},
{
background = {
shapes = (
{
closed = 1;
nodes = (
(421,-8,o),
(517,89,o),
(517,235,cs),
(517,378,o),
(426,474,o),
(289,474,cs),
(207,474,o),
(140,436,o),
(106,379,c),
(103,380,l),
(117,687,l),
(486,687,l),
(486,721,l),
(84,721,l),
(70,338,l),
(104,338,l),
(133,399,o),
(198,441,o),
(283,441,cs),
(399,441,o),
(476,366,o),
(476,233,cs),
(476,109,o),
(405,26,o),
(279,26,cs),
(161,26,o),
(85,104,o),
(89,220,c),
(54,220,l),
(52,83,o),
(142,-8,o),
(278,-8,cs)
);
}
);
};
layerId = master01;
shapes = (
{
closed = 1;
nodes = (
(422,-8,o),
(518,87,o),
(518,229,cs),
(518,367,o),
(427,461,o),
(289,461,cs),
(207,461,o),
(140,424,o),
(106,369,c),
(103,370,l),
(127,687,l),
(500,687,l),
(500,721,l),
(95,721,l),
(66,328,l),
(108,328,l),
(135,386,o),
(199,427,o),
(283,427,cs),
(400,427,o),
(478,354,o),
(478,227,cs),
(478,108,o),
(406,26,o),
(279,26,cs),
(173,26,o),
(102,91,o),
(96,187,c),
(58,187,l),
(63,71,o),
(152,-8,o),
(278,-8,cs)
);
}
);
userData = {
com.schriftgestaltung.hints = (
{
horizontal = 1;
options = 0;
origin = (
0,
24
);
stem = -2;
target = (
0,
31
);
type = Stem;
},
{
horizontal = 1;
options = 0;
origin = (
0,
5
);
stem = -2;
target = (
0,
18
);
type = Stem;
},
{
horizontal = 1;
options = 0;
origin = (
0,
13
);
stem = -2;
target = (
0,
10
);
type = Stem;
},
{
horizontal = 0;
options = 0;
place = (
0,
0
);
stem = -2;
type = Stem;
},
{
horizontal = 0;
options = 0;
origin = (
0,
21
);
stem = -2;
target = (
0,
2
);
type = Stem;
},
{
horizontal = 0;
options = 0;
origin = (
0,
28
);
stem = -2;
target = (
0,
27
);
type = Stem;
}
);
};
width = 575;
},
{
background = {
shapes = (
{
closed = 1;
nodes = (
(490,-10,o),
(604,93,o),
(604,248,cs),
(604,388,o),
(508,482,o),
(372,482,cs),
(320,482,o),
(270,468,o),
(247,448,c),
(239,451,l),
(247,555,l),
(577,555,l),
(577,721,l),
(79,721,l),
(58,277,l),
(240,277,l),
(250,310,o),
(284,332,o),
(323,332,cs),
(381,332,o),
(412,296,o),
(412,241,cs),
(412,193,o),
(378,152,o),
(323,152,cs),
(269,152,o),
(233,178,o),
(232,225,c),
(42,225,l),
(48,84,o),
(148,-10,o),
(317,-10,cs)
);
}
);
};
layerId = "1EDCBF6C-9964-4A28-BC87-E86B534B8BE7";
shapes = (
{
closed = 1;
nodes = (
(485,-10,o),
(598,92,o),
(598,244,cs),
(598,382,o),
(509,472,o),
(372,472,cs),
(322,472,o),
(269,454,o),
(251,433,c),
(243,436,l),
(258,555,l),
(579,555,l),
(579,721,l),
(90,721,l),
(58,271,l),
(240,271,l),
(250,302,o),
(282,322,o),
(320,322,cs),
(371,322,o),
(406,288,o),
(406,237,cs),
(406,192,o),
(373,152,o),
(318,152,cs),
(274,152,o),
(242,174,o),
(234,207,c),
(43,207,l),
(55,77,o),
(153,-10,o),
(314,-10,cs)
);
}
);
width = 640;
},
{
layerId = "28A8A76A-23B4-40F5-83B9-DC51E48BF161";
shapes = (
{
closed = 1;
nodes = (
(524,-8,o),
(646,81,o),
(646,235,cs),
(646,378,o),
(549,473,o),
(353,473,cs),
(252,473,o),
(160,435,o),
(116,379,c),
(112,380,l),
(130,688,l),
(630,688,l),
(630,721,l),
(96,721,l),
(75,338,l),
(113,338,l),
(152,398,o),
(237,439,o),
(350,439,cs),
(513,439,o),
(606,370,o),
(606,233,cs),
(606,109,o),
(520,26,o),
(344,26,cs),
(192,26,o),
(91,104,o),
(93,220,c),
(58,220,l),
(57,83,o),
(173,-8,o),
(344,-8,cs)
);
}
);
width = 689;
},
{
background = {
shapes = (
{
closed = 1;
nodes = (
(557,-10,o),
(697,73,o),
(697,241,cs),
(697,401,o),
(590,482,o),
(426,482,cs),
(367,482,o),
(300,466,o),
(271,443,c),
(262,446,l),
(272,547,l),
(663,547,l),
(663,721,l),
(69,721,l),
(44,272,l),
(247,272,l),
(265,305,o),
(311,327,o),
(366,327,cs),
(430,327,o),
(473,298,o),
(473,243,cs),
(473,191,o),
(435,156,o),
(362,156,cs),
(304,156,o),
(263,173,o),
(255,219,c),
(32,219,l),
(42,84,o),
(141,-10,o),
(359,-10,cs)
);
}
);
};
layerId = "D2144554-01B8-4B9B-B16A-E0E5B5794DFC";
shapes = (
{
closed = 1;
nodes = (
(551,-10,o),
(697,73,o),
(697,244,cs),
(697,401,o),
(580,482,o),
(426,482,cs),
(359,482,o),
(293,460,o),
(271,433,c),
(262,436,l),
(272,547,l),
(663,547,l),
(663,721,l),
(69,721,l),
(44,272,l),
(247,272,l),
(265,305,o),
(311,327,o),
(366,327,cs),
(430,327,o),
(473,298,o),
(473,243,cs),
(473,191,o),
(435,156,o),
(362,156,cs),
(304,156,o),
(263,173,o),
(255,219,c),
(32,219,l),
(42,84,o),
(141,-10,o),
(359,-10,cs)
);
}
);
width = 724;
},
{
layerId = "23BA42C1-D468-4A44-9BE5-E18AE60B7926";
shapes = (
{
closed = 1;
nodes = (
(220,-15,o),
(285,54,o),
(321,221,cs),
(347,347,o),
(341,468,o),
(221,468,cs),
(176,468,o),
(138,444,o),
(111,405,c),
(108,405,l),
(178,692,l),
(408,692,l),
(413,721,l),
(154,721,l),
(61,329,l),
(93,326,l),
(118,399,o),
(157,440,o),
(212,440,cs),
(311,440,o),
(315,346,o),
(289,222,cs),
(259,79,o),
(213,19,o),
(145,19,cs),
(47,19,o),
(38,117,o),
(64,229,c),
(34,229,l),
(8,107,o),
(20,3,o),
(131,-7,cs)
);
}
);
width = 369;
},
{
layerId = "2D4E69BA-A319-45D0-84B7-5297BCF4B7A0";
shapes = (
{
closed = 1;
nodes = (
(331,-9,o),
(422,66,o),
(457,229,cs),
(485,366,o),
(451,485,o),
(325,485,cs),
(293,486,o),
(264,473,o),
(250,457,c),
(243,460,l),
(274,569,l),
(489,569,l),
(521,721,l),
(143,721,l),
(32,281,l),
(206,281,l),
(215,317,o),
(233,342,o),
(256,342,cs),
(293,342,o),
(290,291,o),
(280,239,cs),
(267,174,o),
(249,141,o),
(218,141,cs),
(181,141,o),
(183,181,o),
(190,219,c),
(14,219,l),
(-4,82,o),
(47,-9,o),
(211,-9,cs)
);
}
);
width = 490;
},
{
background = {
shapes = (
{
closed = 1;
nodes = (
(392,-10,o),
(501,91,o),
(506,249,cs),
(510,387,o),
(424,461,o),
(310,461,cs),
(245,461,o),
(179,436,o),
(139,397,c),
(135,397,l),
(210,687,l),
(571,687,l),
(578,721,l),
(184,721,l),
(89,351,l),
(131,351,l),
(171,402,o),
(239,428,o),
(300,428,cs),
(408,428,o),
(471,361,o),
(467,248,cs),
(463,117,o),
(382,24,o),
(244,24,cs),
(137,24,o),
(71,85,o),
(79,187,c),
(43,187,l),
(37,72,o),
(113,-10,o),
(240,-10,cs)
);
}
);
};
layerId = "095FE76F-1953-440B-9108-AA0678D151F9";
shapes = (
{
closed = 1;
nodes = (
(401,-10,o),
(505,98,o),
(505,244,cs),
(505,372,o),
(427,456,o),
(307,456,cs),
(243,456,o),
(176,432,o),
(139,393,c),
(135,393,l),
(210,687,l),
(570,687,l),
(577,721,l),
(183,721,l),
(89,347,l),
(131,347,l),
(168,394,o),
(234,423,o),
(299,423,cs),
(399,423,o),
(465,355,o),
(465,243,cs),
(465,122,o),
(387,24,o),
(253,24,cs),
(147,24,o),
(77,88,o),
(79,185,c),
(43,185,l),
(43,68,o),
(126,-10,o),
(252,-10,cs)
);
}
);
width = 571;
},
{
background = {
shapes = (
{
closed = 1;
nodes = (
(451,-10,o),
(578,108,o),
(584,278,cs),
(588,405,o),
(509,490,o),
(384,490,cs),
(350,490,o),
(313,482,o),
(287,466,c),
(280,469,l),
(301,552,l),
(596,552,l),
(631,721,l),
(165,721,l),
(51,275,l),
(235,275,l),
(247,309,o),
(283,329,o),
(318,329,cs),
(361,329,o),
(387,302,o),
(385,257,cs),
(383,201,o),
(343,159,o),
(292,159,cs),
(254,159,o),
(228,182,o),
(224,217,c),
(29,217,l),
(27,81,o),
(125,-10,o),
(273,-10,cs)
);
}
);
};
guides = (
{
pos = (241,207);
}
);
layerId = "63AAE8D6-1DFF-4DD4-BD9A-49272FE52904";
shapes = (
{
closed = 1;
nodes = (
(460,-10,o),
(585,98,o),
(585,261,cs),
(585,384,o),
(505,470,o),
(384,470,cs),
(350,470,o),
(308,464,o),
(276,443,c),
(269,446,l),
(305,555,l),
(610,555,l),
(644,721,l),
(166,721,l),
(51,271,l),
(235,271,l),
(244,300,o),
(278,321,o),
(317,321,cs),
(363,321,o),
(393,292,o),
(393,247,cs),
(393,194,o),
(360,152,o),
(300,152,cs),
(260,152,o),
(233,171,o),
(224,204,c),
(29,204,l),
(33,73,o),
(133,-10,o),
(284,-10,cs)
);
}
);
width = 636;
},
{
background = {
shapes = (
{
closed = 1;
nodes = (
(502,-10,o),
(634,79,o),
(640,256,cs),
(644,390,o),
(548,470,o),
(378,470,cs),
(286,470,o),
(193,437,o),
(141,386,c),
(138,387,l),
(220,687,l),
(705,687,l),
(711,721,l),
(193,721,l),
(94,345,l),
(131,345,l),
(180,401,o),
(268,437,o),
(372,437,cs),
(521,437,o),
(604,375,o),
(599,249,cs),
(594,119,o),
(507,24,o),
(318,24,cs),
(170,24,o),
(78,103,o),
(87,224,c),
(51,224,l),
(40,83,o),
(145,-10,o),
(315,-10,cs)
);
}
);
};
layerId = "C17B1F32-8075-45B4-AA59-7DAFF0D7E404";
shapes = (
{
closed = 1;
nodes = (
(512,-10,o),
(639,85,o),
(639,249,cs),
(639,384,o),
(541,470,o),
(378,470,cs),
(286,470,o),
(193,437,o),
(141,386,c),
(138,387,l),
(220,687,l),
(705,687,l),
(711,721,l),
(193,721,l),
(94,345,l),
(131,345,l),
(184,400,o),
(279,437,o),
(375,437,cs),
(510,437,o),
(600,369,o),
(600,249,cs),
(600,114,o),
(501,24,o),
(323,24,cs),
(182,24,o),
(88,104,o),
(87,224,c),
(51,224,l),
(53,84,o),
(161,-10,o),
(320,-10,cs)
);
}
);
width = 690;
},
{
background = {
shapes = (
{
closed = 1;
nodes = (
(538,-9,o),
(682,89,o),
(688,258,cs),
(693,399,o),
(598,478,o),
(450,478,cs),
(398,478,o),
(336,465,o),
(306,445,c),
(297,448,l),
(327,546,l),
(695,546,l),
(732,721,l),
(163,721,l),
(44,278,l),
(253,278,l),
(274,307,o),
(314,326,o),
(367,326,cs),
(429,326,o),
(464,299,o),
(462,249,cs),
(460,191,o),
(416,156,o),
(343,156,cs),
(286,156,o),
(248,175,o),
(243,226,c),
(22,226,l),
(24,65,o),
(134,-9,o),
(326,-9,cs)
);
}
);
};
layerId = "377EF8AC-8B0D-46C2-96BB-3B5B69A8F571";
shapes = (
{
closed = 1;
nodes = (
(538,-9,o),
(682,95,o),
(688,252,cs),
(693,388,o),
(593,474,o),
(450,474,cs),
(398,474,o),
(336,464,o),
(306,445,c),
(297,448,l),
(327,546,l),
(695,546,l),
(732,721,l),
(163,721,l),
(44,278,l),
(253,278,l),
(274,307,o),
(314,326,o),
(367,326,cs),
(426,326,o),
(464,295,o),
(462,247,cs),
(460,191,o),
(416,156,o),
(343,156,cs),
(287,156,o),
(247,181,o),
(243,226,c),
(22,226,l),
(24,85,o),
(133,-9,o),
(326,-9,cs)
);
}
);
width = 723;
}
);
unicode = 53;
}
{
color = 3;
glyphname = six;
kernLeft = six;
kernRight = six;
layers = (
{
background = {
shapes = (
{
closed = 1;
nodes = (
(395,-9,o),
(484,71,o),
(484,242,cs),
(484,396,o),
(426,483,o),
(322,483,cs),
(275,483,o),
(234,461,o),
(221,427,c),
(212,427,l),
(210,522,o),
(219,580,o),
(261,580,cs),
(284,580,o),
(303,562,o),
(303,526,c),
(474,526,l),
(470,661,o),
(388,730,o),
(261,730,cs),
(120,730,o),
(25,651,o),
(25,352,cs),
(25,135,o),
(72,-9,o),
(262,-9,cs)
);
},
{
closed = 1;
nodes = (
(237,140,o),
(222,161,o),
(222,245,cs),
(222,307,o),
(230,342,o),
(264,342,cs),
(289,342,o),
(304,322,o),
(304,238,cs),
(304,177,o),
(296,140,o),
(262,140,cs)
);
}
);
};
layerId = "E787E54A-EE3E-475A-BF02-8501A6DA5144";
shapes = (
{
closed = 1;
nodes = (
(404,-9,o),
(484,71,o),
(484,242,cs),
(484,396,o),
(439,483,o),
(322,483,cs),
(275,483,o),
(234,461,o),
(221,427,c),
(212,427,l),
(210,522,o),
(219,580,o),
(261,580,cs),
(284,580,o),
(303,562,o),
(303,526,c),
(474,526,l),
(470,661,o),
(388,730,o),
(261,730,cs),
(120,730,o),
(25,651,o),
(25,352,cs),
(25,135,o),
(72,-9,o),
(262,-9,cs)
);
},
{
closed = 1;
nodes = (
(237,140,o),
(222,161,o),
(222,245,cs),
(222,307,o),
(230,342,o),
(264,342,cs),
(289,342,o),
(304,322,o),
(304,238,cs),
(304,177,o),
(296,140,o),
(262,140,cs)
);
}
);
width = 509;
},
{
background = {
shapes = (
{
closed = 1;
nodes = (
(282,-10,o),
(339,48,o),
(339,231,cs),
(339,371,o),
(304,464,o),
(195,464,cs),
(139,464,o),
(88,427,o),
(71,329,c),
(68,329,l),
(73,545,o),
(93,703,o),
(201,703,cs),
(261,703,o),
(293,664,o),
(304,552,c),
(334,552,l),
(323,664,o),
(288,730,o),
(200,730,cs),
(106,730,o),
(40,650,o),
(40,315,cs),
(40,120,o),
(78,-10,o),
(197,-10,cs)
);
},
{
closed = 1;
nodes = (
(127,17,o),
(80,75,o),
(80,223,cs),
(80,352,o),
(117,438,o),
(195,438,cs),
(263,438,o),
(309,397,o),
(309,231,cs),
(309,103,o),
(287,17,o),
(197,17,cs)
);
}
);
};
layerId = "5713303B-ED49-44A7-8230-B5CAE56DEB7E";
shapes = (
{
closed = 1;
nodes = (
(284,-10,o),
(341,49,o),
(341,231,cs),
(341,370,o),
(306,463,o),
(199,463,cs),
(137,463,o),
(89,421,o),
(72,326,c),
(67,326,l),
(72,580,o),
(94,701,o),
(194,701,cs),
(250,701,o),
(285,668,o),
(296,552,c),
(326,552,l),
(315,670,o),
(277,730,o),
(193,730,cs),
(97,730,o),
(34,647,o),
(40,312,cs),
(44,106,o),
(78,-10,o),
(198,-10,cs)
);
},
{
closed = 1;
nodes = (
(129,18,o),
(82,75,o),
(82,223,cs),
(82,351,o),
(119,437,o),
(196,437,cs),
(263,437,o),
(309,396,o),
(309,231,cs),
(309,103,o),
(287,18,o),
(198,18,cs)
);
}
);
width = 381;
},
{
background = {
shapes = (
{
closed = 1;
nodes = (
(423,-8,o),
(519,83,o),
(519,229,cs),
(519,371,o),
(429,464,o),
(298,464,cs),
(189,464,o),
(111,403,o),
(89,311,c),
(86,311,l),
(90,532,o),
(119,696,o),
(300,696,cs),
(396,696,o),
(465,645,o),
(475,552,c),
(509,552,l),
(500,662,o),
(423,730,o),
(300,730,cs),
(130,730,o),
(51,605,o),
(51,315,cs),
(51,115,o),
(122,-8,o),
(288,-8,cs)
);
},
{
closed = 1;
nodes = (
(176,26,o),
(99,100,o),
(99,223,cs),
(99,339,o),
(171,431,o),
(292,431,cs),
(403,431,o),
(478,355,o),
(478,231,cs),
(478,107,o),
(403,26,o),
(290,26,cs)
);
}
);
};
layerId = master01;
shapes = (
{
closed = 1;
nodes = (
(430,-8,o),
(528,81,o),
(528,224,cs),
(528,360,o),
(436,451,o),
(301,451,cs),
(190,451,o),
(111,392,o),
(89,303,c),
(86,303,l),
(90,537,o),
(119,696,o),
(305,696,cs),
(398,696,o),
(468,652,o),
(483,557,c),
(519,557,l),
(510,661,o),
(423,730,o),
(305,730,cs),
(132,730,o),
(51,608,o),
(51,307,cs),
(51,112,o),
(124,-8,o),
(293,-8,cs)
);
},
{
closed = 1;
nodes = (
(178,26,o),
(99,98,o),
(99,217,cs),
(99,328,o),
(173,417,o),
(297,417,cs),
(410,417,o),
(488,343,o),
(488,224,cs),
(488,105,o),
(410,26,o),
(295,26,cs)
);
}
);
userData = {
com.schriftgestaltung.hints = (
{
horizontal = 1;
options = 0;
origin = (
1,
11
);
stem = -2;
target = (
0,
25
);
type = Stem;
},
{
horizontal = 1;
options = 0;
origin = (
0,
5
);
stem = -2;
target = (
1,
5
);
type = Stem;
},
{
horizontal = 1;
options = 0;
origin = (
0,
19
);
stem = -2;
target = (
0,
12
);
type = Stem;
},
{
horizontal = 0;
options = 0;
origin = (
0,
22
);
stem = -2;
target = (
0,
9
);
type = Stem;
},
{
horizontal = 0;
options = 0;
origin = (
1,
8
);
stem = -2;
target = (
0,
2
);
type = Stem;
}
);
};
width = 575;
},
{
background = {
shapes = (
{
closed = 1;
nodes = (
(499,-9,o),
(611,82,o),
(611,244,cs),
(611,387,o),
(521,483,o),
(385,483,cs),
(321,483,o),
(270,461,o),
(245,427,c),
(237,427,l),
(234,522,o),
(275,566,o),
(339,566,cs),
(378,566,o),
(410,550,o),
(419,526,c),
(606,526,l),
(592,648,o),
(495,730,o),
(340,730,cs),
(152,730,o),
(42,603,o),
(42,356,cs),
(42,100,o),
(158,-9,o),
(333,-9,cs)
);
},
{
closed = 1;
nodes = (
(283,156,o),
(250,192,o),
(250,249,cs),
(250,306,o),
(283,342,o),
(336,342,cs),
(389,342,o),
(422,306,o),
(422,249,cs),
(422,192,o),
(389,156,o),
(336,156,cs)
);
}
);
};
layerId = "1EDCBF6C-9964-4A28-BC87-E86B534B8BE7";
shapes = (
{
closed = 1;
nodes = (
(506,-9,o),
(620,93,o),
(620,245,cs),
(620,380,o),
(529,470,o),
(393,470,cs),
(317,470,o),
(263,443,o),
(237,407,c),
(229,407,l),
(229,514,o),
(274,569,o),
(347,569,cs),
(388,569,o),
(425,552,o),
(434,520,c),
(626,520,l),
(609,647,o),
(508,731,o),
(349,731,cs),
(153,730,o),
(42,599,o),
(42,350,cs),
(42,97,o),
(157,-9,o),
(334,-9,cs)
);
},
{
closed = 1;
nodes = (
(286,156,o),
(250,191,o),
(250,243,cs),
(250,295,o),
(286,329,o),
(340,329,cs),
(393,329,o),
(429,295,o),
(429,243,cs),
(429,191,o),
(393,156,o),
(340,156,cs)
);
}
);
width = 664;
},
{
layerId = "28A8A76A-23B4-40F5-83B9-DC51E48BF161";
shapes = (
{
closed = 1;
nodes = (
(537,-8,o),
(654,80,o),
(654,231,cs),
(654,378,o),
(545,462,o),
(369,462,cs),
(233,462,o),
(127,395,o),
(97,294,c),
(93,294,l),
(95,528,o),
(135,695,o),
(376,695,cs),
(500,695,o),
(590,644,o),
(603,552,c),
(641,552,l),
(630,659,o),
(525,729,o),
(376,729,cs),
(158,729,o),
(58,603,o),
(58,309,cs),
(58,120,o),
(133,-8,o),
(363,-8,cs)
);
},
{
closed = 1;
nodes = (
(213,26,o),
(110,91,o),
(110,223,cs),
(110,338,o),
(208,429,o),
(368,429,cs),
(515,429,o),
(614,364,o),
(614,231,cs),
(614,108,o),
(532,26,o),
(365,26,cs)
);
}
);
width = 706;
},
{
background = {
shapes = (
{
closed = 1;
nodes = (
(596,-9,o),
(730,83,o),
(730,246,cs),
(730,384,o),
(634,477,o),
(447,477,cs),
(368,477,o),
(296,453,o),
(264,417,c),
(254,419,l),
(257,511,o),
(303,562,o),
(396,562,cs),
(446,562,o),
(484,552,o),
(502,518,c),
(720,518,l),
(696,634,o),
(608,730,o),
(403,730,cs),
(197,730,o),
(32,629,o),
(32,351,cs),
(32,68,o),
(199,-9,o),
(388,-9,cs)
);
},
{
closed = 1;
nodes = (
(323,158,o),
(277,185,o),
(277,241,cs),
(277,292,o),
(315,327,o),
(393,327,cs),
(467,327,o),
(508,298,o),
(508,242,cs),
(508,191,o),
(470,158,o),
(392,158,cs)
);
}
);
};
layerId = "D2144554-01B8-4B9B-B16A-E0E5B5794DFC";
shapes = (
{
closed = 1;
nodes = (
(593,-9,o),
(730,84,o),
(730,250,cs),
(730,395,o),
(622,477,o),
(460,477,cs),
(371,477,o),
(297,445,o),
(264,397,c),
(254,399,l),
(257,506,o),
(303,562,o),
(396,562,cs),
(446,562,o),
(484,552,o),
(502,518,c),
(720,518,l),
(699,645,o),
(581,730,o),
(403,730,cs),
(197,730,o),
(32,629,o),
(32,351,cs),
(32,68,o),
(199,-9,o),
(388,-9,cs)
);
},
{
closed = 1;
nodes = (
(323,158,o),
(277,185,o),
(277,241,cs),
(277,292,o),
(315,327,o),
(393,327,cs),
(467,327,o),
(508,298,o),
(508,242,cs),
(508,191,o),
(470,158,o),
(392,158,cs)
);
}
);
width = 757;
},
{
layerId = "23BA42C1-D468-4A44-9BE5-E18AE60B7926";
shapes = (
{
closed = 1;
nodes = (
(233,-10,o),
(296,48,o),
(331,218,cs),
(359,348,o),
(351,463,o),
(230,463,cs),
(182,463,o),
(127,435,o),
(89,337,c),
(83,337,l),
(139,580,o),
(185,699,o),
(276,699,cs),
(356,699,o),
(365,635,o),
(354,542,c),
(383,540,l),
(395,642,o),
(381,720,o),
(290,728,cs),
(196,737,o),
(118,659,o),
(54,324,cs),
(18,136,o),
(16,-10,o),
(157,-10,cs)
);
},
{
closed = 1;
nodes = (
(62,18,o),
(53,119,o),
(77,232,cs),
(103,356,o),
(152,436,o),
(224,436,cs),
(321,436,o),
(326,344,o),
(300,221,cs),
(274,98,o),
(238,18,o),
(159,18,cs)
);
}
);
width = 379;
},
{
layerId = "2D4E69BA-A319-45D0-84B7-5297BCF4B7A0";
shapes = (
{
closed = 1;
nodes = (
(346,-9,o),
(438,64,o),
(471,223,cs),
(499,356,o),
(476,467,o),
(362,477,cs),
(317,481,o),
(273,462,o),
(253,430,c),
(244,430,l),
(261,521,o),
(281,579,o),
(320,579,cs),
(348,579,o),
(358,554,o),
(354,525,c),
(523,525,l),
(538,656,o),
(463,729,o),
(326,729,cs),
(202,729,o),
(103,649,o),
(46,372,cs),
(-1,152,o),
(17,-9,o),
(229,-9,cs)
);
},
{
closed = 1;
nodes = (
(199,140,o),
(204,188,o),
(216,247,cs),
(229,309,o),
(243,341,o),
(272,341,cs),
(310,341,o),
(306,295,o),
(294,234,cs),
(282,176,o),
(267,140,o),
(238,140,cs)
);
}
);
width = 506;
},
{
background = {
shapes = (
{
closed = 1;
nodes = (
(439,-10,o),
(532,105,o),
(532,243,cs),
(532,368,o),
(446,451,o),
(330,451,cs),
(231,451,o),
(145,401,o),
(110,311,c),
(106,311,l),
(124,557,o),
(227,695,o),
(385,695,cs),
(476,695,o),
(542,646,o),
(551,558,c),
(589,558,l),
(576,661,o),
(501,729,o),
(384,729,cs),
(197,729,o),
(72,557,o),
(72,257,cs),
(72,89,o),
(144,-10,o),
(292,-10,cs)
);
},
{
closed = 1;
nodes = (
(185,24,o),
(117,91,o),
(117,209,cs),
(117,331,o),
(200,417,o),
(323,417,cs),
(425,417,o),
(493,348,o),
(493,243,cs),
(493,112,o),
(411,24,o),
(287,24,cs)
);
}
);
};
layerId = "095FE76F-1953-440B-9108-AA0678D151F9";
shapes = (
{
closed = 1;
nodes = (
(439,-10,o),
(534,103,o),
(534,242,cs),
(534,368,o),
(447,451,o),
(330,451,cs),
(233,451,o),
(148,405,o),
(109,311,c),
(105,311,l),
(124,557,o),
(228,695,o),
(386,695,cs),
(479,695,o),
(543,644,o),
(552,558,c),
(590,558,l),
(578,661,o),
(500,729,o),
(385,729,cs),
(193,729,o),
(71,549,o),
(71,264,cs),
(71,83,o),
(148,-10,o),
(293,-10,cs)
);
},
{
closed = 1;
nodes = (
(182,24,o),
(117,96,o),
(117,210,cs),
(117,332,o),
(205,417,o),
(324,417,cs),
(426,417,o),
(495,348,o),
(495,242,cs),
(495,112,o),
(411,24,o),
(288,24,cs)
);
}
);
width = 591;
},
{
background = {
shapes = (
{
closed = 1;
nodes = (
(464,-8,o),
(577,76,o),
(599,225,cs),
(620,377,o),
(538,478,o),
(407,478,cs),
(356,478,o),
(304,464,o),
(274,433,c),
(267,436,l),
(283,519,o),
(327,567,o),
(389,567,cs),
(433,567,o),
(461,548,o),
(466,515,c),
(654,515,l),
(646,643,o),
(546,729,o),
(405,729,cs),
(192,729,o),
(90,574,o),
(65,362,cs),
(39,141,o),
(118,-8,o),
(317,-8,cs)
);
},
{
closed = 1;
nodes = (
(266,154,o),
(244,200,o),
(253,258,cs),
(261,310,o),
(293,344,o),
(344,344,cs),
(399,344,o),
(421,298,o),
(412,240,cs),
(404,188,o),
(372,154,o),
(321,154,cs)
);
}
);
};
guides = (
{
pos = (636,520);
}
);
layerId = "63AAE8D6-1DFF-4DD4-BD9A-49272FE52904";
shapes = (
{
closed = 1;
nodes = (
(497,-10,o),
(620,94,o),
(620,256,cs),
(620,388,o),
(522,470,o),
(403,470,cs),
(344,470,o),
(288,449,o),
(263,417,c),
(256,420,l),
(271,521,o),
(321,569,o),
(394,569,cs),
(439,569,o),
(473,551,o),
(479,518,c),
(667,518,l),
(657,645,o),
(554,729,o),
(410,729,cs),
(178,729,o),
(61,539,o),
(61,289,cs),
(61,108,o),
(151,-10,o),
(334,-10,cs)
);
},
{
closed = 1;
nodes = (
(281,152,o),
(249,185,o),
(249,234,cs),
(249,288,o),
(280,335,o),
(347,335,cs),
(396,335,o),
(428,302,o),
(428,253,cs),
(428,191,o),
(391,152,o),
(329,152,cs)
);
}
);
width = 668;
},
{
background = {
shapes = (
{
closed = 1;
nodes = (
(550,-10,o),
(668,92,o),
(668,245,cs),
(668,384,o),
(561,464,o),
(405,464,cs),
(278,464,o),
(168,412,o),
(119,311,c),
(116,311,l),
(138,542,o),
(243,695,o),
(451,695,cs),
(579,695,o),
(670,638,o),
(682,537,c),
(718,536,l),
(711,652,o),
(605,729,o),
(452,729,cs),
(239,729,o),
(91,580,o),
(80,281,cs),
(74,99,o),
(167,-10,o),
(369,-10,cs)
);
},
{
closed = 1;
nodes = (
(219,24,o),
(122,100,o),
(122,215,cs),
(122,342,o),
(234,432,o),
(398,432,cs),
(535,432,o),
(629,366,o),
(629,244,cs),
(629,107,o),
(530,24,o),
(367,24,cs)
);
}
);
};
layerId = "C17B1F32-8075-45B4-AA59-7DAFF0D7E404";
shapes = (
{
closed = 1;
nodes = (
(543,-10,o),
(668,90,o),
(668,243,cs),
(668,384,o),
(555,464,o),
(405,464,cs),
(284,464,o),
(163,417,o),
(115,303,c),
(111,303,l),
(130,538,o),
(231,695,o),
(456,695,cs),
(578,695,o),
(668,632,o),
(682,537,c),
(718,536,l),
(704,652,o),
(600,729,o),
(457,729,cs),
(264,729,o),
(125,619,o),
(85,387,cs),
(43,139,o),
(133,-10,o),
(366,-10,cs)
);
},
{
closed = 1;
nodes = (
(224,24,o),
(119,94,o),
(122,219,cs),
(125,347,o),
(241,432,o),
(398,432,cs),
(535,432,o),
(629,366,o),
(629,239,cs),
(629,111,o),
(523,24,o),
(364,24,cs)
);
}
);
width = 729;
},
{
background = {
shapes = (
{
closed = 1;
nodes = (
(579,-10,o),
(719,94,o),
(724,248,cs),
(729,385,o),
(625,477,o),
(472,477,cs),
(395,477,o),
(321,455,o),
(283,412,c),
(274,414,l),
(288,502,o),
(350,561,o),
(448,561,cs),
(503,561,o),
(545,544,o),
(555,507,c),
(770,507,l),
(755,650,o),
(632,730,o),
(460,729,cs),
(222,729,o),
(58,580,o),
(49,321,cs),
(42,119,o),
(151,-10,o),
(374,-10,cs)
);
},
{
closed = 1;
nodes = (
(314,157,o),
(273,186,o),
(275,237,cs),
(277,297,o),
(326,327,o),
(399,327,cs),
(463,327,o),
(505,298,o),
(503,249,cs),
(501,185,o),
(451,157,o),
(379,157,cs)
);
}
);
};
guides = (
{
pos = (408,562);
}
);
layerId = "377EF8AC-8B0D-46C2-96BB-3B5B69A8F571";
shapes = (
{
closed = 1;
nodes = (
(580,-10,o),
(721,94,o),
(726,250,cs),
(731,386,o),
(640,477,o),
(474,477,cs),
(397,477,o),
(323,455,o),
(285,412,c),
(276,414,l),
(290,502,o),
(353,561,o),
(450,561,cs),
(505,561,o),
(548,539,o),
(557,507,c),
(772,507,l),
(760,643,o),
(634,730,o),
(462,729,cs),
(224,729,o),
(60,576,o),
(52,329,cs),
(44,119,o),
(161,-10,o),
(376,-10,cs)
);
},
{
closed = 1;
nodes = (
(317,157,o),
(275,186,o),
(277,237,cs),
(279,297,o),
(328,327,o),
(401,327,cs),
(465,327,o),
(507,299,o),
(505,249,cs),
(503,185,o),
(453,157,o),
(381,157,cs)
);
}
);
width = 761;
}
);
unicode = 54;
}
{
glyphname = seven;
kernLeft = KO_seven;
kernRight = KO_seven;
layers = (
{
layerId = "E787E54A-EE3E-475A-BF02-8501A6DA5144";
shapes = (
{
closed = 1;
nodes = (
(340,0,l),
(340,274,o),
(374,359,o),
(471,582,c),
(471,721,l),
(16,721,l),
(16,445,l),
(167,445,l),
(167,555,l),
(284,555,l),
(208,398,o),
(154,265,o),
(158,0,c)
);
}
);
width = 484;
},
{
layerId = "5713303B-ED49-44A7-8230-B5CAE56DEB7E";
shapes = (
{
closed = 1;
nodes = (
(159,0,l),
(159,199,o),
(197,400,o),
(329,694,c),
(329,721,l),
(17,721,l),
(17,523,l),
(46,523,l),
(46,691,l),
(292,691,l),
(194,462,o),
(125,250,o),
(125,0,c)
);
}
);
width = 334;
},
{
background = {
shapes = (
{
closed = 1;
nodes = (
(246,0,l),
(274,237,o),
(349,468,o),
(505,696,c),
(505,721,l),
(45,721,l),
(45,524,l),
(78,524,l),
(78,687,l),
(460,687,l),
(334,501,o),
(240,284,o),
(206,0,c)
);
}
);
};
layerId = master01;
shapes = (
{
closed = 1;
nodes = (
(250,0,l),
(250,312,o),
(372,501,o),
(505,696,c),
(505,721,l),
(45,721,l),
(45,524,l),
(78,524,l),
(78,688,l),
(460,688,l),
(329,494,o),
(210,304,o),
(210,0,c)
);
}
);
userData = {
com.schriftgestaltung.hints = (
{
horizontal = 1;
options = 0;
origin = (
0,
12
);
stem = -2;
target = (
u,
p
);
type = BottomGhost;
},
{
horizontal = 1;
options = 0;
origin = (
0,
5
);
stem = -2;
target = (
0,
8
);
type = Stem;
},
{
horizontal = 0;
options = 0;
origin = (
0,
6
);
stem = -2;
target = (
0,
7
);
type = Stem;
},
{
horizontal = 0;
options = 0;
origin = (
0,
12
);
stem = -2;
target = (
0,
0
);
type = Stem;
}
);
};
width = 535;
},
{
background = {
shapes = (
{
closed = 1;
nodes = (
(371,0,l),
(399,265,o),
(491,432,o),
(583,582,c),
(583,721,l),
(28,721,l),
(28,445,l),
(179,445,l),
(179,555,l),
(378,555,l),
(292,438,o),
(203,265,o),
(171,0,c)
);
}
);
};
layerId = "1EDCBF6C-9964-4A28-BC87-E86B534B8BE7";
shapes = (
{
closed = 1;
nodes = (
(389,0,l),
(389,284,o),
(469,422,o),
(583,582,c),
(583,721,l),
(28,721,l),
(28,445,l),
(179,445,l),
(179,555,l),
(357,555,l),
(273,438,o),
(184,265,o),
(184,0,c)
);
}
);
width = 602;
},
{
background = {
shapes = (
{
closed = 1;
nodes = (
(281,0,l),
(281,216,o),
(344,443,o),
(570,696,c),
(570,721,l),
(25,721,l),
(25,524,l),
(57,524,l),
(57,690,l),
(525,690,l),
(332,474,o),
(243,251,o),
(243,0,c)
);
}
);
};
layerId = "28A8A76A-23B4-40F5-83B9-DC51E48BF161";
shapes = (
{
closed = 1;
nodes = (
(247,0,l),
(284,260,o),
(404,494,o),
(572,696,c),
(572,721,l),
(30,721,l),
(30,524,l),
(62,524,l),
(62,690,l),
(527,690,l),
(368,498,o),
(246,270,o),
(208,0,c)
);
}
);
width = 588;
},
{
layerId = "D2144554-01B8-4B9B-B16A-E0E5B5794DFC";
shapes = (
{
closed = 1;
nodes = (
(376,0,l),
(399,199,o),
(511,430,o),
(631,578,c),
(631,721,l),
(14,721,l),
(14,436,l),
(179,436,l),
(179,547,l),
(408,547,l),
(279,396,o),
(182,198,o),
(159,0,c)
);
}
);
width = 634;
},
{
layerId = "23BA42C1-D468-4A44-9BE5-E18AE60B7926";
shapes = (
{
closed = 1;
nodes = (
(102,0,l),
(143,197,o),
(224,401,o),
(416,694,c),
(422,721,l),
(113,721,l),
(72,523,l),
(100,523,l),
(136,691,l),
(379,691,l),
(235,463,o),
(122,252,o),
(68,0,c)
);
}
);
width = 331;
},
{
layerId = "2D4E69BA-A319-45D0-84B7-5297BCF4B7A0";
shapes = (
{
closed = 1;
nodes = (
(285,0,l),
(339,283,o),
(406,392,o),
(531,582,c),
(561,721,l),
(110,721,l),
(52,445,l),
(202,445,l),
(224,555,l),
(350,555,l),
(218,381,o),
(142,201,o),
(105,0,c)
);
}
);
width = 480;
},
{
background = {
shapes = (
{
closed = 1;
nodes = (
(200,0,l),
(266,312,o),
(420,497,o),
(592,696,c),
(597,721,l),
(151,721,l),
(111,524,l),
(143,524,l),
(178,688,l),
(541,688,l),
(374,493,o),
(225,304,o),
(160,0,c)
);
}
);
};
layerId = "095FE76F-1953-440B-9108-AA0678D151F9";
shapes = (
{
closed = 1;
nodes = (
(192,0,l),
(268,233,o),
(387,459,o),
(584,683,c),
(593,721,l),
(141,721,l),
(100,524,l),
(133,524,l),
(167,687,l),
(547,687,l),
(382,501,o),
(243,284,o),
(150,0,c)
);
}
);
width = 528;
},
{
layerId = "63AAE8D6-1DFF-4DD4-BD9A-49272FE52904";
shapes = (
{
closed = 1;
nodes = (
(315,0,l),
(398,265,o),
(525,432,o),
(648,582,c),
(677,721,l),
(122,721,l),
(64,445,l),
(215,445,l),
(238,555,l),
(437,555,l),
(309,419,o),
(184,210,o),
(115,0,c)
);
}
);
width = 603;
},
{
layerId = "C17B1F32-8075-45B4-AA59-7DAFF0D7E404";
shapes = (
{
closed = 1;
nodes = (
(195,0,l),
(272,220,o),
(418,459,o),
(662,696,c),
(668,721,l),
(126,721,l),
(85,524,l),
(117,524,l),
(151,690,l),
(613,690,l),
(414,498,o),
(248,270,o),
(154,0,c)
);
}
);
width = 588;
},
{
layerId = "377EF8AC-8B0D-46C2-96BB-3B5B69A8F571";
shapes = (
{
closed = 1;
nodes = (
(362,0,l),
(403,208,o),
(501,388,o),
(706,568,c),
(738,721,l),
(107,721,l),
(47,436,l),
(210,436,l),
(233,542,l),
(454,542,l),
(330,436,o),
(195,271,o),
(141,0,c)
);
}
);
width = 648;
}
);
unicode = 55;
userData = {
KernOnName = seven;
};
}
{
glyphname = eight;
kernLeft = eight;
kernRight = eight;
layers = (
{
background = {
shapes = (
{
closed = 1;
nodes = (
(372,-10,o),
(451,72,o),
(451,196,cs),
(451,278,o),
(418,342,o),
(369,361,c),
(369,369,l),
(411,391,o),
(441,455,o),
(441,533,cs),
(441,651,o),
(366,729,o),
(232,729,cs),
(98,729,o),
(23,651,o),
(23,533,cs),
(23,455,o),
(53,391,o),
(95,369,c),
(95,361,l),
(46,342,o),
(13,278,o),
(13,196,cs),
(13,72,o),
(92,-10,o),
(232,-10,cs)
);
},
{
closed = 1;
nodes = (
(209,133,o),
(193,155,o),
(193,211,cs),
(193,262,o),
(202,290,o),
(232,290,cs),
(262,290,o),
(271,262,o),
(271,211,cs),
(271,155,o),
(255,133,o),
(232,133,cs)
);
},
{
closed = 1;
nodes = (
(210,436,o),
(196,450,o),
(196,514,cs),
(196,553,o),
(203,586,o),
(232,586,cs),
(261,586,o),
(268,553,o),
(268,514,cs),
(268,450,o),
(254,436,o),
(232,436,cs)
);
}
);
};
layerId = "E787E54A-EE3E-475A-BF02-8501A6DA5144";
shapes = (
{
closed = 1;
nodes = (
(376,-10,o),
(456,73,o),
(456,198,cs),
(456,278,o),
(415,347,o),
(346,365,c),
(346,373,l),
(411,397,o),
(446,458,o),
(446,539,cs),
(446,658,o),
(370,737,o),
(235,737,cs),
(99,737,o),
(23,658,o),
(23,539,cs),
(23,463,o),
(57,399,o),
(123,373,c),
(123,365,l),
(55,347,o),
(13,278,o),
(13,198,cs),
(13,73,o),
(93,-10,o),
(235,-10,cs)
);
},
{
closed = 1;
nodes = (
(211,135,o),
(195,157,o),
(195,213,cs),
(195,265,o),
(204,293,o),
(235,293,cs),
(265,293,o),
(274,265,o),
(274,213,cs),
(274,157,o),
(258,135,o),
(235,135,cs)
);
},
{
closed = 1;
nodes = (
(212,441,o),
(198,455,o),
(198,520,cs),
(198,559,o),
(205,593,o),
(235,593,cs),
(264,593,o),
(271,559,o),
(271,520,cs),
(271,455,o),
(257,441,o),
(235,441,cs)
);
}
);
width = 469;
},
{
background = {
shapes = (
{
closed = 1;
nodes = (
(299,-8,o),
(363,57,o),
(363,195,cs),
(363,283,o),
(326,355,o),
(265,374,c),
(265,378,l),
(321,399,o),
(353,468,o),
(353,547,cs),
(353,656,o),
(299,729,o),
(204,729,cs),
(115,729,o),
(54,663,o),
(54,547,cs),
(54,467,o),
(86,399,o),
(142,378,c),
(142,374,l),
(85,356,o),
(44,289,o),
(44,195,cs),
(44,73,o),
(96,-8,o),
(204,-8,cs)
);
},
{
closed = 1;
nodes = (
(128,19,o),
(76,68,o),
(76,196,cs),
(76,296,o),
(117,361,o),
(204,361,cs),
(280,361,o),
(331,308,o),
(331,196,cs),
(331,91,o),
(295,19,o),
(204,19,cs)
);
},
{
closed = 1;
nodes = (
(133,389,o),
(85,445,o),
(85,546,cs),
(85,639,o),
(123,701,o),
(204,701,cs),
(274,701,o),
(322,652,o),
(322,546,cs),
(322,451,o),
(279,389,o),
(204,389,cs)
);
}
);
};
layerId = "5713303B-ED49-44A7-8230-B5CAE56DEB7E";
shapes = (
{
closed = 1;
nodes = (
(302,-8,o),
(367,58,o),
(367,197,cs),
(367,286,o),
(330,359,o),
(258,378,c),
(258,382,l),
(325,404,o),
(357,473,o),
(357,553,cs),
(357,664,o),
(302,737,o),
(206,737,cs),
(116,737,o),
(55,671,o),
(55,553,cs),
(55,472,o),
(87,404,o),
(154,382,c),
(154,378,l),
(86,360,o),
(45,292,o),
(45,197,cs),
(45,74,o),
(97,-8,o),
(206,-8,cs)
);
},
{
closed = 1;
nodes = (
(129,19,o),
(77,69,o),
(77,198,cs),
(77,299,o),
(118,365,o),
(206,365,cs),
(283,365,o),
(335,312,o),
(335,198,cs),
(335,92,o),
(298,19,o),
(206,19,cs)
);
},
{
closed = 1;
nodes = (
(135,393,o),
(86,450,o),
(86,552,cs),
(86,646,o),
(124,709,o),
(206,709,cs),
(277,709,o),
(326,659,o),
(326,552,cs),
(326,456,o),
(282,393,o),
(206,393,cs)
);
}
);
width = 405;
},
{
background = {
shapes = (
{
closed = 1;
nodes = (
(438,-8,o),
(536,70,o),
(536,187,cs),
(536,277,o),
(482,353,o),
(370,361,c),
(370,363,l),
(479,375,o),
(527,455,o),
(527,539,cs),
(527,654,o),
(433,729,o),
(293,729,cs),
(153,729,o),
(61,656,o),
(61,541,cs),
(61,456,o),
(109,377,o),
(217,363,c),
(217,361,l),
(105,349,o),
(49,269,o),
(49,185,cs),
(49,69,o),
(147,-8,o),
(293,-8,cs)
);
},
{
closed = 1;
nodes = (
(173,26,o),
(92,88,o),
(92,191,cs),
(92,271,o),
(151,343,o),
(293,343,cs),
(433,343,o),
(495,278,o),
(495,191,cs),
(495,92,o),
(417,26,o),
(293,26,cs)
);
},
{
closed = 1;
nodes = (
(157,380,o),
(101,449,o),
(101,537,cs),
(101,634,o),
(174,696,o),
(293,696,cs),
(408,696,o),
(487,636,o),
(487,537,cs),
(487,453,o),
(434,380,o),
(293,380,cs)
);
}
);
};
layerId = master01;
shapes = (
{
closed = 1;
nodes = (
(440,-10,o),
(538,71,o),
(538,189,cs),
(538,279,o),
(483,354,o),
(376,374,c),
(376,377,l),
(456,398,o),
(514,464,o),
(514,548,cs),
(514,663,o),
(429,737,o),
(296,737,cs),
(164,737,o),
(79,663,o),
(79,548,cs),
(79,464,o),
(137,398,o),
(216,377,c),
(216,374,l),
(109,354,o),
(55,279,o),
(55,189,cs),
(55,71,o),
(153,-10,o),
(296,-10,cs)
);
},
{
closed = 1;
nodes = (
(176,24,o),
(95,91,o),
(95,191,cs),
(95,280,o),
(148,358,o),
(296,358,cs),
(445,358,o),
(498,280,o),
(498,191,cs),
(498,91,o),
(417,24,o),
(296,24,cs)
);
},
{
closed = 1;
nodes = (
(161,393,o),
(118,472,o),
(118,549,cs),
(118,625,o),
(161,704,o),
(296,704,cs),
(432,704,o),
(474,625,o),
(474,549,cs),
(474,472,o),
(432,393,o),
(296,393,cs)
);
}
);
userData = {
com.schriftgestaltung.hints = (
{
horizontal = 1;
options = 0;
place = (
0,
0
);
stem = -2;
type = Stem;
},
{
horizontal = 1;
options = 0;
place = (
0,
0
);
stem = -2;
type = Stem;
},
{
horizontal = 1;
options = 0;
place = (
0,
0
);
stem = -2;
type = Stem;
},
{
horizontal = 0;
options = 0;
place = (
0,
0
);
stem = -2;
type = Stem;
},
{
horizontal = 0;
options = 0;
place = (
0,
0
);
stem = -2;
type = Stem;
}
);
};
width = 593;
},
{
background = {
shapes = (
{
closed = 1;
nodes = (
(487,-10,o),
(590,74,o),
(590,198,cs),
(590,281,o),
(540,349,o),
(459,370,c),
(459,378,l),
(527,401,o),
(564,463,o),
(564,534,cs),
(564,652,o),
(470,729,o),
(307,729,cs),
(144,729,o),
(50,652,o),
(50,534,cs),
(50,463,o),
(87,401,o),
(155,378,c),
(155,370,l),
(74,349,o),
(24,281,o),
(24,198,cs),
(24,74,o),
(127,-10,o),
(307,-10,cs)
);
},
{
closed = 1;
nodes = (
(252,152,o),
(219,179,o),
(219,227,cs),
(219,272,o),
(250,301,o),
(307,301,cs),
(364,301,o),
(395,272,o),
(395,227,cs),
(395,179,o),
(362,152,o),
(307,152,cs)
);
},
{
closed = 1;
nodes = (
(258,441,o),
(230,465,o),
(230,508,cs),
(230,548,o),
(256,574,o),
(307,574,cs),
(358,574,o),
(384,548,o),
(384,508,cs),
(384,465,o),
(356,441,o),
(307,441,cs)
);
}
);
};
layerId = "1EDCBF6C-9964-4A28-BC87-E86B534B8BE7";
shapes = (
{
closed = 1;
nodes = (
(482,-10,o),
(597,66,o),
(597,200,cs),
(597,287,o),
(536,354,o),
(457,374,c),
(457,382,l),
(525,404,o),
(570,466,o),
(570,539,cs),
(570,658,o),
(476,737,o),
(311,737,cs),
(155,737,o),
(51,666,o),
(51,539,cs),
(51,466,o),
(96,404,o),
(164,382,c),
(164,374,l),
(85,354,o),
(24,287,o),
(24,200,cs),
(24,74,o),
(127,-10,o),
(311,-10,cs)
);
},
{
closed = 1;
nodes = (
(255,154,o),
(222,181,o),
(222,230,cs),
(222,275,o),
(253,304,o),
(311,304,cs),
(368,304,o),
(400,275,o),
(400,230,cs),
(400,181,o),
(366,154,o),
(311,154,cs)
);
},
{
closed = 1;
nodes = (
(264,446,o),
(233,470,o),
(233,514,cs),
(233,554,o),
(261,581,o),
(311,581,cs),
(360,581,o),
(388,554,o),
(388,514,cs),
(388,470,o),
(357,446,o),
(311,446,cs)
);
}
);
width = 621;
},
{
layerId = "28A8A76A-23B4-40F5-83B9-DC51E48BF161";
shapes = (
{
closed = 1;
nodes = (
(517,-8,o),
(633,62,o),
(633,193,cs),
(633,303,o),
(547,371,o),
(438,375,c),
(438,379,l),
(548,393,o),
(618,453,o),
(618,552,cs),
(618,682,o),
(494,737,o),
(336,737,cs),
(177,737,o),
(54,683,o),
(54,552,cs),
(54,453,o),
(122,393,o),
(233,379,c),
(233,375,l),
(123,370,o),
(37,302,o),
(37,193,cs),
(37,62,o),
(154,-8,o),
(336,-8,cs)
);
},
{
closed = 1;
nodes = (
(164,26,o),
(78,87,o),
(78,197,cs),
(78,314,o),
(173,360,o),
(336,360,cs),
(498,360,o),
(593,315,o),
(593,197,cs),
(593,88,o),
(508,26,o),
(336,26,cs)
);
},
{
closed = 1;
nodes = (
(157,393,o),
(92,457,o),
(92,548,cs),
(92,659,o),
(194,704,o),
(336,704,cs),
(476,704,o),
(579,659,o),
(579,548,cs),
(579,458,o),
(515,393,o),
(336,393,cs)
);
}
);
width = 671;
},
{
layerId = "D2144554-01B8-4B9B-B16A-E0E5B5794DFC";
shapes = (
{
closed = 1;
nodes = (
(590,-9,o),
(697,74,o),
(697,202,cs),
(697,291,o),
(635,361,o),
(546,372,c),
(546,379,l),
(626,395,o),
(681,452,o),
(681,536,cs),
(681,683,o),
(538,738,o),
(354,738,cs),
(171,738,o),
(29,683,o),
(29,536,cs),
(29,452,o),
(84,394,o),
(164,379,c),
(164,372,l),
(74,361,o),
(12,292,o),
(12,202,cs),
(12,73,o),
(120,-9,o),
(354,-9,cs)
);
},
{
closed = 1;
nodes = (
(285,156,o),
(241,178,o),
(241,227,cs),
(241,271,o),
(274,299,o),
(354,299,cs),
(435,299,o),
(468,271,o),
(468,227,cs),
(468,178,o),
(425,156,o),
(354,156,cs)
);
},
{
closed = 1;
nodes = (
(285,440,o),
(254,466,o),
(254,508,cs),
(254,550,o),
(290,574,o),
(354,574,cs),
(419,574,o),
(456,550,o),
(456,508,cs),
(456,466,o),
(425,440,o),
(354,440,cs)
);
}
);
width = 709;
},
{
layerId = "23BA42C1-D468-4A44-9BE5-E18AE60B7926";
shapes = (
{
closed = 1;
nodes = (
(247,-8,o),
(317,52,o),
(344,187,cs),
(359,258,o),
(348,345,o),
(284,373,c),
(284,377,l),
(345,393,o),
(390,459,o),
(408,539,cs),
(432,653,o),
(390,737,o),
(283,737,cs),
(203,737,o),
(136,676,o),
(113,567,cs),
(97,492,o),
(108,417,o),
(164,387,c),
(163,383,l),
(103,370,o),
(48,306,o),
(28,211,cs),
(2,82,o),
(40,-8,o),
(162,-8,cs)
);
},
{
closed = 1;
nodes = (
(62,19,o),
(36,99,o),
(61,210,cs),
(81,304,o),
(128,366,o),
(207,366,cs),
(306,366,o),
(333,286,o),
(313,190,cs),
(290,87,o),
(246,19,o),
(164,19,cs)
);
},
{
closed = 1;
nodes = (
(155,392,o),
(122,464,o),
(143,560,cs),
(162,651,o),
(208,709,o),
(280,709,cs),
(372,709,o),
(395,633,o),
(376,541,cs),
(358,451,o),
(307,392,o),
(238,392,cs)
);
}
);
width = 398;
},
{
background = {
shapes = (
{
closed = 1;
nodes = (
(322,-10,o),
(405,63,o),
(429,180,cs),
(443,245,o),
(432,323,o),
(373,349,c),
(374,357,l),
(430,375,o),
(473,437,o),
(488,512,cs),
(517,648,o),
(437,729,o),
(299,729,cs),
(183,729,o),
(104,660,o),
(81,550,cs),
(68,488,o),
(75,410,o),
(126,381,c),
(126,373,l),
(63,358,o),
(18,297,o),
(2,216,cs),
(-27,78,o),
(51,-10,o),
(201,-10,cs)
);
},
{
closed = 1;
nodes = (
(172,134,o),
(171,175,o),
(180,215,cs),
(190,263,o),
(203,290,o),
(231,290,cs),
(265,290,o),
(266,258,o),
(256,207,cs),
(245,156,o),
(226,134,o),
(205,134,cs)
);
},
{
closed = 1;
nodes = (
(236,436,o),
(236,469,o),
(246,516,cs),
(255,558,o),
(267,585,o),
(294,585,cs),
(325,585,o),
(324,551,o),
(316,510,cs),
(304,451,o),
(288,436,o),
(269,436,cs)
);
}
);
};
layerId = "2D4E69BA-A319-45D0-84B7-5297BCF4B7A0";
shapes = (
{
closed = 1;
nodes = (
(326,-10,o),
(410,64,o),
(433,173,cs),
(448,248,o),
(427,326,o),
(377,353,c),
(378,361,l),
(438,382,o),
(481,443,o),
(493,512,cs),
(516,656,o),
(438,737,o),
(302,737,cs),
(185,737,o),
(105,668,o),
(82,556,cs),
(69,494,o),
(85,415,o),
(127,385,c),
(127,377,l),
(70,360,o),
(18,300,o),
(2,218,cs),
(-27,79,o),
(52,-10,o),
(203,-10,cs)
);
},
{
closed = 1;
nodes = (
(174,136,o),
(173,177,o),
(182,217,cs),
(192,266,o),
(205,293,o),
(234,293,cs),
(268,293,o),
(269,261,o),
(259,209,cs),
(248,158,o),
(229,136,o),
(207,136,cs)
);
},
{
closed = 1;
nodes = (
(239,441,o),
(239,474,o),
(249,522,cs),
(258,564,o),
(270,592,o),
(297,592,cs),
(329,592,o),
(328,557,o),
(320,516,cs),
(307,456,o),
(291,441,o),
(272,441,cs)
);
}
);
width = 467;
},
{
background = {
shapes = (
{
closed = 1;
nodes = (
(407,-10,o),
(511,72,o),
(515,192,cs),
(518,277,o),
(465,344,o),
(389,352,c),
(389,355,l),
(491,363,o),
(576,437,o),
(580,545,cs),
(584,661,o),
(498,729,o),
(364,729,cs),
(234,729,o),
(128,638,o),
(124,519,cs),
(122,448,o),
(164,384,o),
(241,366,c),
(241,363,l),
(137,363,o),
(45,276,o),
(42,169,cs),
(38,65,o),
(120,-10,o),
(260,-10,cs)
);
},
{
closed = 1;
nodes = (
(152,25,o),
(77,81,o),
(81,176,cs),
(84,276,o),
(167,344,o),
(289,344,cs),
(412,344,o),
(478,289,o),
(474,194,cs),
(471,88,o),
(383,25,o),
(267,25,cs)
);
},
{
closed = 1;
nodes = (
(228,378,o),
(160,436,o),
(163,521,cs),
(167,625,o),
(249,696,o),
(364,696,cs),
(476,696,o),
(543,639,o),
(540,543,cs),
(536,445,o),
(453,378,o),
(337,378,cs)
);
}
);
};
layerId = "095FE76F-1953-440B-9108-AA0678D151F9";
shapes = (
{
closed = 1;
nodes = (
(414,-10,o),
(522,78,o),
(522,206,cs),
(522,285,o),
(468,349,o),
(393,365,c),
(393,368,l),
(503,380,o),
(578,458,o),
(578,560,cs),
(578,669,o),
(491,737,o),
(369,737,cs),
(229,737,o),
(135,651,o),
(135,527,cs),
(135,455,o),
(183,399,o),
(249,379,c),
(249,376,l),
(131,365,o),
(40,281,o),
(40,167,cs),
(40,64,o),
(122,-10,o),
(262,-10,cs)
);
},
{
closed = 1;
nodes = (
(156,24,o),
(80,79,o),
(80,173,cs),
(80,281,o),
(166,355,o),
(292,355,cs),
(414,355,o),
(480,301,o),
(480,208,cs),
(480,93,o),
(390,24,o),
(269,24,cs)
);
},
{
closed = 1;
nodes = (
(238,390,o),
(174,445,o),
(174,525,cs),
(174,632,o),
(244,704,o),
(369,704,cs),
(470,704,o),
(538,646,o),
(538,557,cs),
(538,458,o),
(459,390,o),
(341,390,cs)
);
}
);
width = 594;
},
{
background = {
shapes = (
{
closed = 1;
nodes = (
(460,-10,o),
(581,73,o),
(581,197,cs),
(581,266,o),
(535,331,o),
(466,353,c),
(469,361,l),
(562,384,o),
(619,449,o),
(619,532,cs),
(619,650,o),
(520,729,o),
(371,729,cs),
(211,729,o),
(102,649,o),
(98,528,cs),
(95,461,o),
(129,404,o),
(181,384,c),
(179,376,l),
(82,356,o),
(13,281,o),
(13,186,cs),
(13,70,o),
(108,-10,o),
(278,-10,cs)
);
},
{
closed = 1;
nodes = (
(241,152,o),
(207,178,o),
(207,224,cs),
(207,270,o),
(241,301,o),
(302,301,cs),
(352,301,o),
(386,275,o),
(386,229,cs),
(386,183,o),
(352,152,o),
(291,152,cs)
);
},
{
closed = 1;
nodes = (
(307,441,o),
(277,464,o),
(277,504,cs),
(277,546,o),
(308,574,o),
(364,574,cs),
(409,574,o),
(439,551,o),
(439,511,cs),
(439,469,o),
(408,441,o),
(352,441,cs)
);
}
);
};
guides = (
{
pos = (324,441);
},
{
pos = (324,152);
}
);
layerId = "63AAE8D6-1DFF-4DD4-BD9A-49272FE52904";
shapes = (
{
closed = 1;
nodes = (
(469,-10,o),
(588,66,o),
(588,200,cs),
(588,274,o),
(535,337,o),
(471,357,c),
(473,365,l),
(563,387,o),
(625,450,o),
(625,541,cs),
(625,658,o),
(522,737,o),
(367,737,cs),
(215,737,o),
(98,659,o),
(98,528,cs),
(98,464,o),
(134,409,o),
(183,388,c),
(182,379,l),
(87,362,o),
(13,290,o),
(13,190,cs),
(13,70,o),
(110,-10,o),
(292,-10,cs)
);
},
{
closed = 1;
nodes = (
(239,154,o),
(208,182,o),
(208,225,cs),
(208,273,o),
(243,305,o),
(304,305,cs),
(359,305,o),
(390,276,o),
(390,233,cs),
(390,185,o),
(355,154,o),
(293,154,cs)
);
},
{
closed = 1;
nodes = (
(311,446,o),
(279,470,o),
(279,510,cs),
(279,553,o),
(312,582,o),
(368,582,cs),
(413,582,o),
(444,556,o),
(444,518,cs),
(444,472,o),
(409,446,o),
(355,446,cs)
);
}
);
width = 629;
},
{
layerId = "C17B1F32-8075-45B4-AA59-7DAFF0D7E404";
shapes = (
{
closed = 1;
nodes = (
(496,-7,o),
(621,65,o),
(621,208,cs),
(621,295,o),
(555,361,o),
(460,370,c),
(460,374,l),
(589,383,o),
(678,448,o),
(678,563,cs),
(678,686,o),
(550,737,o),
(404,737,cs),
(228,737,o),
(114,661,o),
(114,535,cs),
(114,462,o),
(166,403,o),
(259,385,c),
(258,382,l),
(127,380,o),
(22,299,o),
(22,179,cs),
(22,67,o),
(127,-7,o),
(316,-7,cs)
);
},
{
closed = 1;
nodes = (
(164,27,o),
(63,84,o),
(63,183,cs),
(63,302,o),
(155,362,o),
(320,362,cs),
(486,362,o),
(581,314,o),
(581,212,cs),
(581,96,o),
(494,27,o),
(318,27,cs)
);
},
{
closed = 1;
nodes = (
(277,393,o),
(153,427,o),
(153,537,cs),
(153,644,o),
(243,705,o),
(397,705,cs),
(527,705,o),
(639,665,o),
(639,560,cs),
(639,452,o),
(550,393,o),
(397,393,cs)
);
}
);
width = 674;
},
{
layerId = "377EF8AC-8B0D-46C2-96BB-3B5B69A8F571";
shapes = (
{
closed = 1;
nodes = (
(556,-9,o),
(674,80,o),
(679,212,cs),
(681,290,o),
(629,352,o),
(561,365,c),
(562,370,l),
(666,387,o),
(731,458,o),
(731,546,cs),
(731,661,o),
(628,737,o),
(421,737,cs),
(222,737,o),
(82,656,o),
(82,517,cs),
(82,453,o),
(126,402,o),
(186,386,c),
(184,379,l),
(79,367,o),
(-4,287,o),
(-4,182,cs),
(-4,35,o),
(158,-9,o),
(324,-9,cs)
);
},
{
closed = 1;
nodes = (
(274,157,o),
(230,177,o),
(230,222,cs),
(230,269,o),
(268,299,o),
(349,299,cs),
(415,299,o),
(457,276,o),
(457,233,cs),
(457,188,o),
(417,157,o),
(341,157,cs)
);
},
{
closed = 1;
nodes = (
(342,439,o),
(300,461,o),
(300,500,cs),
(300,547,o),
(343,571,o),
(408,571,cs),
(462,571,o),
(503,550,o),
(503,511,cs),
(503,464,o),
(461,439,o),
(400,439,cs)
);
}
);
width = 706;
}
);
unicode = 56;
}
